<svg width="8" height="14" viewBox="0 0 8 14" fill="none" xmlns="http://www.w3.org/2000/svg">
<path d="M6.87543 2.61432C7.24707 2.20578 7.21715 1.57332 6.80861 1.20168C6.40008 0.830044 5.76762 0.859958 5.39598 1.2685L6.87543 2.61432ZM1.76379 6.74741L1.02406 6.0745L0.435201 6.72183L0.998707 7.39135L1.76379 6.74741ZM5.4693 12.703C5.82493 13.1255 6.45577 13.1798 6.87831 12.8241C7.30085 12.4685 7.35509 11.8377 6.99945 11.4151L5.4693 12.703ZM5.39598 1.2685L1.02406 6.0745L2.50351 7.42032L6.87543 2.61432L5.39598 1.2685ZM0.998707 7.39135L5.4693 12.703L6.99945 11.4151L2.52887 6.10348L0.998707 7.39135Z" fill="#583CF0"/>
</svg>
