<svg width="8" height="14" viewBox="0 0 8 14" fill="none" xmlns="http://www.w3.org/2000/svg">
<path d="M1.12457 11.3857C0.752935 11.7942 0.782848 12.4267 1.19139 12.7983C1.59992 13.17 2.23238 13.14 2.60402 12.7315L1.12457 11.3857ZM6.23621 7.25259L6.97594 7.9255L7.5648 7.27817L7.00129 6.60865L6.23621 7.25259ZM2.5307 1.29701C2.17507 0.874469 1.54423 0.820231 1.12169 1.17587C0.699147 1.5315 0.644909 2.16234 1.00055 2.58488L2.5307 1.29701ZM2.60402 12.7315L6.97594 7.9255L5.49649 6.57968L1.12457 11.3857L2.60402 12.7315ZM7.00129 6.60865L2.5307 1.29701L1.00055 2.58488L5.47113 7.89652L7.00129 6.60865Z" fill="#583CF0"/>
</svg>
