<svg width="180" height="196" viewBox="0 0 180 196" fill="none" xmlns="http://www.w3.org/2000/svg">
<g clip-path="url(#clip0_1_34781)">
<path fill-rule="evenodd" clip-rule="evenodd" d="M6.15707 3.07853C6.15707 4.77942 4.77942 6.15707 3.07853 6.15707C1.37764 6.15707 0 4.77942 0 3.07853C0 1.37764 1.37764 0 3.07853 0C4.77942 0 6.15707 1.37764 6.15707 3.07853" fill="url(#paint0_linear_1_34781)"/>
<path fill-rule="evenodd" clip-rule="evenodd" d="M6.15707 18.4701C6.15707 20.171 4.77942 21.5487 3.07853 21.5487C1.37764 21.5487 0 20.171 0 18.4701C0 16.7692 1.37764 15.3916 3.07853 15.3916C4.77942 15.3916 6.15707 16.7692 6.15707 18.4701" fill="url(#paint1_linear_1_34781)"/>
<path fill-rule="evenodd" clip-rule="evenodd" d="M22.5789 18.4701C22.5789 20.171 21.2013 21.5487 19.5004 21.5487C17.7995 21.5487 16.4219 20.171 16.4219 18.4701C16.4219 16.7692 17.7995 15.3916 19.5004 15.3916C21.2013 15.3916 22.5789 16.7692 22.5789 18.4701" fill="url(#paint2_linear_1_34781)"/>
<path fill-rule="evenodd" clip-rule="evenodd" d="M37.9696 18.4701C37.9696 20.171 36.5919 21.5487 34.891 21.5487C33.1901 21.5487 31.8125 20.171 31.8125 18.4701C31.8125 16.7692 33.1901 15.3916 34.891 15.3916C36.5919 15.3916 37.9696 16.7692 37.9696 18.4701" fill="url(#paint3_linear_1_34781)"/>
<path fill-rule="evenodd" clip-rule="evenodd" d="M53.3602 18.4701C53.3602 20.171 51.9825 21.5487 50.2817 21.5487C48.5808 21.5487 47.2031 20.171 47.2031 18.4701C47.2031 16.7692 48.5808 15.3916 50.2817 15.3916C51.9825 15.3916 53.3602 16.7692 53.3602 18.4701" fill="url(#paint4_linear_1_34781)"/>
<path fill-rule="evenodd" clip-rule="evenodd" d="M69.7821 18.4701C69.7821 20.171 68.4044 21.5487 66.7035 21.5487C65.0026 21.5487 63.625 20.171 63.625 18.4701C63.625 16.7692 65.0026 15.3916 66.7035 15.3916C68.4044 15.3916 69.7821 16.7692 69.7821 18.4701" fill="url(#paint5_linear_1_34781)"/>
<path fill-rule="evenodd" clip-rule="evenodd" d="M85.1727 18.4701C85.1727 20.171 83.795 21.5487 82.0942 21.5487C80.3933 21.5487 79.0156 20.171 79.0156 18.4701C79.0156 16.7692 80.3933 15.3916 82.0942 15.3916C83.795 15.3916 85.1727 16.7692 85.1727 18.4701" fill="url(#paint6_linear_1_34781)"/>
<path fill-rule="evenodd" clip-rule="evenodd" d="M101.595 18.4701C101.595 20.171 100.217 21.5487 98.516 21.5487C96.8151 21.5487 95.4375 20.171 95.4375 18.4701C95.4375 16.7692 96.8151 15.3916 98.516 15.3916C100.217 15.3916 101.595 16.7692 101.595 18.4701" fill="url(#paint7_linear_1_34781)"/>
<path fill-rule="evenodd" clip-rule="evenodd" d="M116.985 18.4701C116.985 20.171 115.608 21.5487 113.907 21.5487C112.206 21.5487 110.828 20.171 110.828 18.4701C110.828 16.7692 112.206 15.3916 113.907 15.3916C115.608 15.3916 116.985 16.7692 116.985 18.4701" fill="url(#paint8_linear_1_34781)"/>
<path fill-rule="evenodd" clip-rule="evenodd" d="M133.399 18.4701C133.399 20.171 132.022 21.5487 130.321 21.5487C128.62 21.5487 127.242 20.171 127.242 18.4701C127.242 16.7692 128.62 15.3916 130.321 15.3916C132.022 15.3916 133.399 16.7692 133.399 18.4701" fill="url(#paint9_linear_1_34781)"/>
<path fill-rule="evenodd" clip-rule="evenodd" d="M148.798 18.4701C148.798 20.171 147.42 21.5487 145.719 21.5487C144.018 21.5487 142.641 20.171 142.641 18.4701C142.641 16.7692 144.018 15.3916 145.719 15.3916C147.42 15.3916 148.798 16.7692 148.798 18.4701" fill="url(#paint10_linear_1_34781)"/>
<path fill-rule="evenodd" clip-rule="evenodd" d="M164.188 18.4701C164.188 20.171 162.811 21.5487 161.11 21.5487C159.409 21.5487 158.031 20.171 158.031 18.4701C158.031 16.7692 159.409 15.3916 161.11 15.3916C162.811 15.3916 164.188 16.7692 164.188 18.4701" fill="url(#paint11_linear_1_34781)"/>
<path fill-rule="evenodd" clip-rule="evenodd" d="M180.61 18.4701C180.61 20.171 179.233 21.5487 177.532 21.5487C175.831 21.5487 174.453 20.171 174.453 18.4701C174.453 16.7692 175.831 15.3916 177.532 15.3916C179.233 15.3916 180.61 16.7692 180.61 18.4701" fill="url(#paint12_linear_1_34781)"/>
<path fill-rule="evenodd" clip-rule="evenodd" d="M6.15707 34.8905C6.15707 36.5914 4.77942 37.9691 3.07853 37.9691C1.37764 37.9691 0 36.5914 0 34.8905C0 33.1897 1.37764 31.812 3.07853 31.812C4.77942 31.812 6.15707 33.1897 6.15707 34.8905" fill="url(#paint13_linear_1_34781)"/>
<path fill-rule="evenodd" clip-rule="evenodd" d="M22.5789 34.8905C22.5789 36.5914 21.2013 37.9691 19.5004 37.9691C17.7995 37.9691 16.4219 36.5914 16.4219 34.8905C16.4219 33.1897 17.7995 31.812 19.5004 31.812C21.2013 31.812 22.5789 33.1897 22.5789 34.8905" fill="url(#paint14_linear_1_34781)"/>
<path fill-rule="evenodd" clip-rule="evenodd" d="M37.9696 34.8905C37.9696 36.5914 36.5919 37.9691 34.891 37.9691C33.1901 37.9691 31.8125 36.5914 31.8125 34.8905C31.8125 33.1897 33.1901 31.812 34.891 31.812C36.5919 31.812 37.9696 33.1897 37.9696 34.8905" fill="url(#paint15_linear_1_34781)"/>
<path fill-rule="evenodd" clip-rule="evenodd" d="M53.3602 34.8905C53.3602 36.5914 51.9825 37.9691 50.2817 37.9691C48.5808 37.9691 47.2031 36.5914 47.2031 34.8905C47.2031 33.1897 48.5808 31.812 50.2817 31.812C51.9825 31.812 53.3602 33.1897 53.3602 34.8905" fill="url(#paint16_linear_1_34781)"/>
<path fill-rule="evenodd" clip-rule="evenodd" d="M69.7821 34.8905C69.7821 36.5914 68.4044 37.9691 66.7035 37.9691C65.0026 37.9691 63.625 36.5914 63.625 34.8905C63.625 33.1897 65.0026 31.812 66.7035 31.812C68.4044 31.812 69.7821 33.1897 69.7821 34.8905" fill="url(#paint17_linear_1_34781)"/>
<path fill-rule="evenodd" clip-rule="evenodd" d="M85.1727 34.8905C85.1727 36.5914 83.795 37.9691 82.0942 37.9691C80.3933 37.9691 79.0156 36.5914 79.0156 34.8905C79.0156 33.1897 80.3933 31.812 82.0942 31.812C83.795 31.812 85.1727 33.1897 85.1727 34.8905" fill="url(#paint18_linear_1_34781)"/>
<path fill-rule="evenodd" clip-rule="evenodd" d="M101.595 34.8905C101.595 36.5914 100.217 37.9691 98.516 37.9691C96.8151 37.9691 95.4375 36.5914 95.4375 34.8905C95.4375 33.1897 96.8151 31.812 98.516 31.812C100.217 31.812 101.595 33.1897 101.595 34.8905" fill="url(#paint19_linear_1_34781)"/>
<path fill-rule="evenodd" clip-rule="evenodd" d="M116.985 34.8905C116.985 36.5914 115.608 37.9691 113.907 37.9691C112.206 37.9691 110.828 36.5914 110.828 34.8905C110.828 33.1897 112.206 31.812 113.907 31.812C115.608 31.812 116.985 33.1897 116.985 34.8905" fill="url(#paint20_linear_1_34781)"/>
<path fill-rule="evenodd" clip-rule="evenodd" d="M133.399 34.8905C133.399 36.5914 132.022 37.9691 130.321 37.9691C128.62 37.9691 127.242 36.5914 127.242 34.8905C127.242 33.1897 128.62 31.812 130.321 31.812C132.022 31.812 133.399 33.1897 133.399 34.8905" fill="url(#paint21_linear_1_34781)"/>
<path fill-rule="evenodd" clip-rule="evenodd" d="M148.798 34.8905C148.798 36.5914 147.42 37.9691 145.719 37.9691C144.018 37.9691 142.641 36.5914 142.641 34.8905C142.641 33.1897 144.018 31.812 145.719 31.812C147.42 31.812 148.798 33.1897 148.798 34.8905" fill="url(#paint22_linear_1_34781)"/>
<path fill-rule="evenodd" clip-rule="evenodd" d="M164.188 34.8905C164.188 36.5914 162.811 37.9691 161.11 37.9691C159.409 37.9691 158.031 36.5914 158.031 34.8905C158.031 33.1897 159.409 31.812 161.11 31.812C162.811 31.812 164.188 33.1897 164.188 34.8905" fill="url(#paint23_linear_1_34781)"/>
<path fill-rule="evenodd" clip-rule="evenodd" d="M180.61 34.8905C180.61 36.5914 179.233 37.9691 177.532 37.9691C175.831 37.9691 174.453 36.5914 174.453 34.8905C174.453 33.1897 175.831 31.812 177.532 31.812C179.233 31.812 180.61 33.1897 180.61 34.8905" fill="url(#paint24_linear_1_34781)"/>
<path fill-rule="evenodd" clip-rule="evenodd" d="M6.15707 50.2821C6.15707 51.983 4.77942 53.3607 3.07853 53.3607C1.37764 53.3607 0 51.983 0 50.2821C0 48.5813 1.37764 47.2036 3.07853 47.2036C4.77942 47.2036 6.15707 48.5813 6.15707 50.2821" fill="url(#paint25_linear_1_34781)"/>
<path fill-rule="evenodd" clip-rule="evenodd" d="M22.5789 50.2821C22.5789 51.983 21.2013 53.3607 19.5004 53.3607C17.7995 53.3607 16.4219 51.983 16.4219 50.2821C16.4219 48.5813 17.7995 47.2036 19.5004 47.2036C21.2013 47.2036 22.5789 48.5813 22.5789 50.2821" fill="url(#paint26_linear_1_34781)"/>
<path fill-rule="evenodd" clip-rule="evenodd" d="M37.9696 50.2821C37.9696 51.983 36.5919 53.3607 34.891 53.3607C33.1901 53.3607 31.8125 51.983 31.8125 50.2821C31.8125 48.5813 33.1901 47.2036 34.891 47.2036C36.5919 47.2036 37.9696 48.5813 37.9696 50.2821" fill="url(#paint27_linear_1_34781)"/>
<path fill-rule="evenodd" clip-rule="evenodd" d="M53.3602 50.2821C53.3602 51.983 51.9825 53.3607 50.2817 53.3607C48.5808 53.3607 47.2031 51.983 47.2031 50.2821C47.2031 48.5813 48.5808 47.2036 50.2817 47.2036C51.9825 47.2036 53.3602 48.5813 53.3602 50.2821" fill="url(#paint28_linear_1_34781)"/>
<path fill-rule="evenodd" clip-rule="evenodd" d="M69.7821 50.2821C69.7821 51.983 68.4044 53.3607 66.7035 53.3607C65.0026 53.3607 63.625 51.983 63.625 50.2821C63.625 48.5813 65.0026 47.2036 66.7035 47.2036C68.4044 47.2036 69.7821 48.5813 69.7821 50.2821" fill="url(#paint29_linear_1_34781)"/>
<path fill-rule="evenodd" clip-rule="evenodd" d="M85.1727 50.2821C85.1727 51.983 83.795 53.3607 82.0942 53.3607C80.3933 53.3607 79.0156 51.983 79.0156 50.2821C79.0156 48.5813 80.3933 47.2036 82.0942 47.2036C83.795 47.2036 85.1727 48.5813 85.1727 50.2821" fill="url(#paint30_linear_1_34781)"/>
<path fill-rule="evenodd" clip-rule="evenodd" d="M101.595 50.2821C101.595 51.983 100.217 53.3607 98.516 53.3607C96.8151 53.3607 95.4375 51.983 95.4375 50.2821C95.4375 48.5813 96.8151 47.2036 98.516 47.2036C100.217 47.2036 101.595 48.5813 101.595 50.2821" fill="url(#paint31_linear_1_34781)"/>
<path fill-rule="evenodd" clip-rule="evenodd" d="M116.985 50.2821C116.985 51.983 115.608 53.3607 113.907 53.3607C112.206 53.3607 110.828 51.983 110.828 50.2821C110.828 48.5813 112.206 47.2036 113.907 47.2036C115.608 47.2036 116.985 48.5813 116.985 50.2821" fill="url(#paint32_linear_1_34781)"/>
<path fill-rule="evenodd" clip-rule="evenodd" d="M133.399 50.2821C133.399 51.983 132.022 53.3607 130.321 53.3607C128.62 53.3607 127.242 51.983 127.242 50.2821C127.242 48.5813 128.62 47.2036 130.321 47.2036C132.022 47.2036 133.399 48.5813 133.399 50.2821" fill="url(#paint33_linear_1_34781)"/>
<path fill-rule="evenodd" clip-rule="evenodd" d="M148.798 50.2821C148.798 51.983 147.42 53.3607 145.719 53.3607C144.018 53.3607 142.641 51.983 142.641 50.2821C142.641 48.5813 144.018 47.2036 145.719 47.2036C147.42 47.2036 148.798 48.5813 148.798 50.2821" fill="url(#paint34_linear_1_34781)"/>
<path fill-rule="evenodd" clip-rule="evenodd" d="M164.188 50.2821C164.188 51.983 162.811 53.3607 161.11 53.3607C159.409 53.3607 158.031 51.983 158.031 50.2821C158.031 48.5813 159.409 47.2036 161.11 47.2036C162.811 47.2036 164.188 48.5813 164.188 50.2821" fill="url(#paint35_linear_1_34781)"/>
<path fill-rule="evenodd" clip-rule="evenodd" d="M180.61 50.2821C180.61 51.983 179.233 53.3607 177.532 53.3607C175.831 53.3607 174.453 51.983 174.453 50.2821C174.453 48.5813 175.831 47.2036 177.532 47.2036C179.233 47.2036 180.61 48.5813 180.61 50.2821" fill="url(#paint36_linear_1_34781)"/>
<path fill-rule="evenodd" clip-rule="evenodd" d="M6.15707 66.7027C6.15707 68.4036 4.77942 69.7812 3.07853 69.7812C1.37764 69.7812 0 68.4036 0 66.7027C0 65.0018 1.37764 63.6241 3.07853 63.6241C4.77942 63.6241 6.15707 65.0018 6.15707 66.7027" fill="url(#paint37_linear_1_34781)"/>
<path fill-rule="evenodd" clip-rule="evenodd" d="M22.5789 66.7027C22.5789 68.4036 21.2013 69.7812 19.5004 69.7812C17.7995 69.7812 16.4219 68.4036 16.4219 66.7027C16.4219 65.0018 17.7995 63.6241 19.5004 63.6241C21.2013 63.6241 22.5789 65.0018 22.5789 66.7027" fill="url(#paint38_linear_1_34781)"/>
<path fill-rule="evenodd" clip-rule="evenodd" d="M37.9696 66.7027C37.9696 68.4036 36.5919 69.7812 34.891 69.7812C33.1901 69.7812 31.8125 68.4036 31.8125 66.7027C31.8125 65.0018 33.1901 63.6241 34.891 63.6241C36.5919 63.6241 37.9696 65.0018 37.9696 66.7027" fill="url(#paint39_linear_1_34781)"/>
<path fill-rule="evenodd" clip-rule="evenodd" d="M53.3602 66.7027C53.3602 68.4036 51.9825 69.7812 50.2817 69.7812C48.5808 69.7812 47.2031 68.4036 47.2031 66.7027C47.2031 65.0018 48.5808 63.6241 50.2817 63.6241C51.9825 63.6241 53.3602 65.0018 53.3602 66.7027" fill="url(#paint40_linear_1_34781)"/>
<path fill-rule="evenodd" clip-rule="evenodd" d="M69.7821 66.7027C69.7821 68.4036 68.4044 69.7812 66.7035 69.7812C65.0026 69.7812 63.625 68.4036 63.625 66.7027C63.625 65.0018 65.0026 63.6241 66.7035 63.6241C68.4044 63.6241 69.7821 65.0018 69.7821 66.7027" fill="url(#paint41_linear_1_34781)"/>
<path fill-rule="evenodd" clip-rule="evenodd" d="M85.1727 66.7027C85.1727 68.4036 83.795 69.7812 82.0942 69.7812C80.3933 69.7812 79.0156 68.4036 79.0156 66.7027C79.0156 65.0018 80.3933 63.6241 82.0942 63.6241C83.795 63.6241 85.1727 65.0018 85.1727 66.7027" fill="url(#paint42_linear_1_34781)"/>
<path fill-rule="evenodd" clip-rule="evenodd" d="M101.595 66.7027C101.595 68.4036 100.217 69.7812 98.516 69.7812C96.8151 69.7812 95.4375 68.4036 95.4375 66.7027C95.4375 65.0018 96.8151 63.6241 98.516 63.6241C100.217 63.6241 101.595 65.0018 101.595 66.7027" fill="url(#paint43_linear_1_34781)"/>
<path fill-rule="evenodd" clip-rule="evenodd" d="M116.985 66.7027C116.985 68.4036 115.608 69.7812 113.907 69.7812C112.206 69.7812 110.828 68.4036 110.828 66.7027C110.828 65.0018 112.206 63.6241 113.907 63.6241C115.608 63.6241 116.985 65.0018 116.985 66.7027" fill="url(#paint44_linear_1_34781)"/>
<path fill-rule="evenodd" clip-rule="evenodd" d="M133.399 66.7027C133.399 68.4036 132.022 69.7812 130.321 69.7812C128.62 69.7812 127.242 68.4036 127.242 66.7027C127.242 65.0018 128.62 63.6241 130.321 63.6241C132.022 63.6241 133.399 65.0018 133.399 66.7027" fill="url(#paint45_linear_1_34781)"/>
<path fill-rule="evenodd" clip-rule="evenodd" d="M148.798 66.7027C148.798 68.4036 147.42 69.7812 145.719 69.7812C144.018 69.7812 142.641 68.4036 142.641 66.7027C142.641 65.0018 144.018 63.6241 145.719 63.6241C147.42 63.6241 148.798 65.0018 148.798 66.7027" fill="url(#paint46_linear_1_34781)"/>
<path fill-rule="evenodd" clip-rule="evenodd" d="M164.188 66.7027C164.188 68.4036 162.811 69.7812 161.11 69.7812C159.409 69.7812 158.031 68.4036 158.031 66.7027C158.031 65.0018 159.409 63.6241 161.11 63.6241C162.811 63.6241 164.188 65.0018 164.188 66.7027" fill="url(#paint47_linear_1_34781)"/>
<path fill-rule="evenodd" clip-rule="evenodd" d="M180.61 66.7027C180.61 68.4036 179.233 69.7812 177.532 69.7812C175.831 69.7812 174.453 68.4036 174.453 66.7027C174.453 65.0018 175.831 63.6241 177.532 63.6241C179.233 63.6241 180.61 65.0018 180.61 66.7027" fill="url(#paint48_linear_1_34781)"/>
<path fill-rule="evenodd" clip-rule="evenodd" d="M6.15707 82.0943C6.15707 83.7952 4.77942 85.1728 3.07853 85.1728C1.37764 85.1728 0 83.7952 0 82.0943C0 80.3934 1.37764 79.0157 3.07853 79.0157C4.77942 79.0157 6.15707 80.3934 6.15707 82.0943" fill="url(#paint49_linear_1_34781)"/>
<path fill-rule="evenodd" clip-rule="evenodd" d="M22.5789 82.0943C22.5789 83.7952 21.2013 85.1728 19.5004 85.1728C17.7995 85.1728 16.4219 83.7952 16.4219 82.0943C16.4219 80.3934 17.7995 79.0157 19.5004 79.0157C21.2013 79.0157 22.5789 80.3934 22.5789 82.0943" fill="url(#paint50_linear_1_34781)"/>
<path fill-rule="evenodd" clip-rule="evenodd" d="M37.9696 82.0943C37.9696 83.7952 36.5919 85.1728 34.891 85.1728C33.1901 85.1728 31.8125 83.7952 31.8125 82.0943C31.8125 80.3934 33.1901 79.0157 34.891 79.0157C36.5919 79.0157 37.9696 80.3934 37.9696 82.0943" fill="url(#paint51_linear_1_34781)"/>
<path fill-rule="evenodd" clip-rule="evenodd" d="M53.3602 82.0943C53.3602 83.7952 51.9825 85.1728 50.2817 85.1728C48.5808 85.1728 47.2031 83.7952 47.2031 82.0943C47.2031 80.3934 48.5808 79.0157 50.2817 79.0157C51.9825 79.0157 53.3602 80.3934 53.3602 82.0943" fill="url(#paint52_linear_1_34781)"/>
<path fill-rule="evenodd" clip-rule="evenodd" d="M69.7821 82.0943C69.7821 83.7952 68.4044 85.1728 66.7035 85.1728C65.0026 85.1728 63.625 83.7952 63.625 82.0943C63.625 80.3934 65.0026 79.0157 66.7035 79.0157C68.4044 79.0157 69.7821 80.3934 69.7821 82.0943" fill="url(#paint53_linear_1_34781)"/>
<path fill-rule="evenodd" clip-rule="evenodd" d="M85.1727 82.0943C85.1727 83.7952 83.795 85.1728 82.0942 85.1728C80.3933 85.1728 79.0156 83.7952 79.0156 82.0943C79.0156 80.3934 80.3933 79.0157 82.0942 79.0157C83.795 79.0157 85.1727 80.3934 85.1727 82.0943" fill="url(#paint54_linear_1_34781)"/>
<path fill-rule="evenodd" clip-rule="evenodd" d="M101.595 82.0943C101.595 83.7952 100.217 85.1728 98.516 85.1728C96.8151 85.1728 95.4375 83.7952 95.4375 82.0943C95.4375 80.3934 96.8151 79.0157 98.516 79.0157C100.217 79.0157 101.595 80.3934 101.595 82.0943" fill="url(#paint55_linear_1_34781)"/>
<path fill-rule="evenodd" clip-rule="evenodd" d="M116.985 82.0943C116.985 83.7952 115.608 85.1728 113.907 85.1728C112.206 85.1728 110.828 83.7952 110.828 82.0943C110.828 80.3934 112.206 79.0157 113.907 79.0157C115.608 79.0157 116.985 80.3934 116.985 82.0943" fill="url(#paint56_linear_1_34781)"/>
<path fill-rule="evenodd" clip-rule="evenodd" d="M133.399 82.0943C133.399 83.7952 132.022 85.1728 130.321 85.1728C128.62 85.1728 127.242 83.7952 127.242 82.0943C127.242 80.3934 128.62 79.0157 130.321 79.0157C132.022 79.0157 133.399 80.3934 133.399 82.0943" fill="url(#paint57_linear_1_34781)"/>
<path fill-rule="evenodd" clip-rule="evenodd" d="M148.798 82.0943C148.798 83.7952 147.42 85.1728 145.719 85.1728C144.018 85.1728 142.641 83.7952 142.641 82.0943C142.641 80.3934 144.018 79.0157 145.719 79.0157C147.42 79.0157 148.798 80.3934 148.798 82.0943" fill="url(#paint58_linear_1_34781)"/>
<path fill-rule="evenodd" clip-rule="evenodd" d="M164.188 82.0943C164.188 83.7952 162.811 85.1728 161.11 85.1728C159.409 85.1728 158.031 83.7952 158.031 82.0943C158.031 80.3934 159.409 79.0157 161.11 79.0157C162.811 79.0157 164.188 80.3934 164.188 82.0943" fill="url(#paint59_linear_1_34781)"/>
<path fill-rule="evenodd" clip-rule="evenodd" d="M180.61 82.0943C180.61 83.7952 179.233 85.1728 177.532 85.1728C175.831 85.1728 174.453 83.7952 174.453 82.0943C174.453 80.3934 175.831 79.0157 177.532 79.0157C179.233 79.0157 180.61 80.3934 180.61 82.0943" fill="url(#paint60_linear_1_34781)"/>
<path fill-rule="evenodd" clip-rule="evenodd" d="M6.15707 98.516C6.15707 100.217 4.77942 101.595 3.07853 101.595C1.37764 101.595 0 100.217 0 98.516C0 96.8151 1.37764 95.4375 3.07853 95.4375C4.77942 95.4375 6.15707 96.8151 6.15707 98.516" fill="url(#paint61_linear_1_34781)"/>
<path fill-rule="evenodd" clip-rule="evenodd" d="M22.5789 98.516C22.5789 100.217 21.2013 101.595 19.5004 101.595C17.7995 101.595 16.4219 100.217 16.4219 98.516C16.4219 96.8151 17.7995 95.4375 19.5004 95.4375C21.2013 95.4375 22.5789 96.8151 22.5789 98.516" fill="url(#paint62_linear_1_34781)"/>
<path fill-rule="evenodd" clip-rule="evenodd" d="M37.9696 98.516C37.9696 100.217 36.5919 101.595 34.891 101.595C33.1901 101.595 31.8125 100.217 31.8125 98.516C31.8125 96.8151 33.1901 95.4375 34.891 95.4375C36.5919 95.4375 37.9696 96.8151 37.9696 98.516" fill="url(#paint63_linear_1_34781)"/>
<path fill-rule="evenodd" clip-rule="evenodd" d="M53.3602 98.516C53.3602 100.217 51.9825 101.595 50.2817 101.595C48.5808 101.595 47.2031 100.217 47.2031 98.516C47.2031 96.8151 48.5808 95.4375 50.2817 95.4375C51.9825 95.4375 53.3602 96.8151 53.3602 98.516" fill="url(#paint64_linear_1_34781)"/>
<path fill-rule="evenodd" clip-rule="evenodd" d="M69.7821 98.516C69.7821 100.217 68.4044 101.595 66.7035 101.595C65.0026 101.595 63.625 100.217 63.625 98.516C63.625 96.8151 65.0026 95.4375 66.7035 95.4375C68.4044 95.4375 69.7821 96.8151 69.7821 98.516" fill="url(#paint65_linear_1_34781)"/>
<path fill-rule="evenodd" clip-rule="evenodd" d="M85.1727 98.516C85.1727 100.217 83.795 101.595 82.0942 101.595C80.3933 101.595 79.0156 100.217 79.0156 98.516C79.0156 96.8151 80.3933 95.4375 82.0942 95.4375C83.795 95.4375 85.1727 96.8151 85.1727 98.516" fill="url(#paint66_linear_1_34781)"/>
<path fill-rule="evenodd" clip-rule="evenodd" d="M101.595 98.516C101.595 100.217 100.217 101.595 98.516 101.595C96.8151 101.595 95.4375 100.217 95.4375 98.516C95.4375 96.8151 96.8151 95.4375 98.516 95.4375C100.217 95.4375 101.595 96.8151 101.595 98.516" fill="url(#paint67_linear_1_34781)"/>
<path fill-rule="evenodd" clip-rule="evenodd" d="M116.985 98.516C116.985 100.217 115.608 101.595 113.907 101.595C112.206 101.595 110.828 100.217 110.828 98.516C110.828 96.8151 112.206 95.4375 113.907 95.4375C115.608 95.4375 116.985 96.8151 116.985 98.516" fill="url(#paint68_linear_1_34781)"/>
<path fill-rule="evenodd" clip-rule="evenodd" d="M133.407 98.516C133.407 100.217 132.029 101.595 130.329 101.595C128.628 101.595 127.25 100.217 127.25 98.516C127.25 96.8151 128.628 95.4375 130.329 95.4375C132.029 95.4375 133.407 96.8151 133.407 98.516" fill="url(#paint69_linear_1_34781)"/>
<path fill-rule="evenodd" clip-rule="evenodd" d="M148.798 98.516C148.798 100.217 147.42 101.595 145.719 101.595C144.018 101.595 142.641 100.217 142.641 98.516C142.641 96.8151 144.018 95.4375 145.719 95.4375C147.42 95.4375 148.798 96.8151 148.798 98.516" fill="url(#paint70_linear_1_34781)"/>
<path fill-rule="evenodd" clip-rule="evenodd" d="M164.188 98.516C164.188 100.217 162.811 101.595 161.11 101.595C159.409 101.595 158.031 100.217 158.031 98.516C158.031 96.8151 159.409 95.4375 161.11 95.4375C162.811 95.4375 164.188 96.8151 164.188 98.516" fill="url(#paint71_linear_1_34781)"/>
<path fill-rule="evenodd" clip-rule="evenodd" d="M180.61 98.516C180.61 100.217 179.233 101.595 177.532 101.595C175.831 101.595 174.453 100.217 174.453 98.516C174.453 96.8151 175.831 95.4375 177.532 95.4375C179.233 95.4375 180.61 96.8151 180.61 98.516" fill="url(#paint72_linear_1_34781)"/>
<path fill-rule="evenodd" clip-rule="evenodd" d="M6.15707 113.906C6.15707 115.607 4.77942 116.985 3.07853 116.985C1.37764 116.985 0 115.607 0 113.906C0 112.205 1.37764 110.828 3.07853 110.828C4.77942 110.828 6.15707 112.205 6.15707 113.906" fill="url(#paint73_linear_1_34781)"/>
<path fill-rule="evenodd" clip-rule="evenodd" d="M22.5789 113.906C22.5789 115.607 21.2013 116.985 19.5004 116.985C17.7995 116.985 16.4219 115.607 16.4219 113.906C16.4219 112.205 17.7995 110.828 19.5004 110.828C21.2013 110.828 22.5789 112.205 22.5789 113.906" fill="url(#paint74_linear_1_34781)"/>
<path fill-rule="evenodd" clip-rule="evenodd" d="M37.9696 113.906C37.9696 115.607 36.5919 116.985 34.891 116.985C33.1901 116.985 31.8125 115.607 31.8125 113.906C31.8125 112.205 33.1901 110.828 34.891 110.828C36.5919 110.828 37.9696 112.205 37.9696 113.906" fill="url(#paint75_linear_1_34781)"/>
<path fill-rule="evenodd" clip-rule="evenodd" d="M53.3602 113.906C53.3602 115.607 51.9825 116.985 50.2817 116.985C48.5808 116.985 47.2031 115.607 47.2031 113.906C47.2031 112.205 48.5808 110.828 50.2817 110.828C51.9825 110.828 53.3602 112.205 53.3602 113.906" fill="url(#paint76_linear_1_34781)"/>
<path fill-rule="evenodd" clip-rule="evenodd" d="M69.7821 113.906C69.7821 115.607 68.4044 116.985 66.7035 116.985C65.0026 116.985 63.625 115.607 63.625 113.906C63.625 112.205 65.0026 110.828 66.7035 110.828C68.4044 110.828 69.7821 112.205 69.7821 113.906" fill="url(#paint77_linear_1_34781)"/>
<path fill-rule="evenodd" clip-rule="evenodd" d="M85.1727 113.906C85.1727 115.607 83.795 116.985 82.0942 116.985C80.3933 116.985 79.0156 115.607 79.0156 113.906C79.0156 112.205 80.3933 110.828 82.0942 110.828C83.795 110.828 85.1727 112.205 85.1727 113.906" fill="url(#paint78_linear_1_34781)"/>
<path fill-rule="evenodd" clip-rule="evenodd" d="M101.595 113.906C101.595 115.607 100.217 116.985 98.516 116.985C96.8151 116.985 95.4375 115.607 95.4375 113.906C95.4375 112.205 96.8151 110.828 98.516 110.828C100.217 110.828 101.595 112.205 101.595 113.906" fill="url(#paint79_linear_1_34781)"/>
<path fill-rule="evenodd" clip-rule="evenodd" d="M116.985 113.906C116.985 115.607 115.608 116.985 113.907 116.985C112.206 116.985 110.828 115.607 110.828 113.906C110.828 112.205 112.206 110.828 113.907 110.828C115.608 110.828 116.985 112.205 116.985 113.906" fill="url(#paint80_linear_1_34781)"/>
<path fill-rule="evenodd" clip-rule="evenodd" d="M133.399 113.906C133.399 115.607 132.022 116.985 130.321 116.985C128.62 116.985 127.242 115.607 127.242 113.906C127.242 112.205 128.62 110.828 130.321 110.828C132.022 110.828 133.399 112.205 133.399 113.906" fill="url(#paint81_linear_1_34781)"/>
<path fill-rule="evenodd" clip-rule="evenodd" d="M148.798 113.906C148.798 115.607 147.42 116.985 145.719 116.985C144.018 116.985 142.641 115.607 142.641 113.906C142.641 112.205 144.018 110.828 145.719 110.828C147.42 110.828 148.798 112.205 148.798 113.906" fill="url(#paint82_linear_1_34781)"/>
<path fill-rule="evenodd" clip-rule="evenodd" d="M164.188 113.906C164.188 115.607 162.811 116.985 161.11 116.985C159.409 116.985 158.031 115.607 158.031 113.906C158.031 112.205 159.409 110.828 161.11 110.828C162.811 110.828 164.188 112.205 164.188 113.906" fill="url(#paint83_linear_1_34781)"/>
<path fill-rule="evenodd" clip-rule="evenodd" d="M180.61 113.906C180.61 115.607 179.233 116.985 177.532 116.985C175.831 116.985 174.453 115.607 174.453 113.906C174.453 112.205 175.831 110.828 177.532 110.828C179.233 110.828 180.61 112.205 180.61 113.906" fill="url(#paint84_linear_1_34781)"/>
<path fill-rule="evenodd" clip-rule="evenodd" d="M6.15707 129.298C6.15707 130.999 4.77942 132.376 3.07853 132.376C1.37764 132.376 0 130.999 0 129.298C0 127.597 1.37764 126.219 3.07853 126.219C4.77942 126.219 6.15707 127.597 6.15707 129.298" fill="url(#paint85_linear_1_34781)"/>
<path fill-rule="evenodd" clip-rule="evenodd" d="M22.5789 129.298C22.5789 130.999 21.2013 132.376 19.5004 132.376C17.7995 132.376 16.4219 130.999 16.4219 129.298C16.4219 127.597 17.7995 126.219 19.5004 126.219C21.2013 126.219 22.5789 127.597 22.5789 129.298" fill="url(#paint86_linear_1_34781)"/>
<path fill-rule="evenodd" clip-rule="evenodd" d="M37.9696 129.298C37.9696 130.999 36.5919 132.376 34.891 132.376C33.1901 132.376 31.8125 130.999 31.8125 129.298C31.8125 127.597 33.1901 126.219 34.891 126.219C36.5919 126.219 37.9696 127.597 37.9696 129.298" fill="url(#paint87_linear_1_34781)"/>
<path fill-rule="evenodd" clip-rule="evenodd" d="M53.3602 129.298C53.3602 130.999 51.9825 132.376 50.2817 132.376C48.5808 132.376 47.2031 130.999 47.2031 129.298C47.2031 127.597 48.5808 126.219 50.2817 126.219C51.9825 126.219 53.3602 127.597 53.3602 129.298" fill="url(#paint88_linear_1_34781)"/>
<path fill-rule="evenodd" clip-rule="evenodd" d="M69.7821 129.298C69.7821 130.999 68.4044 132.376 66.7035 132.376C65.0026 132.376 63.625 130.999 63.625 129.298C63.625 127.597 65.0026 126.219 66.7035 126.219C68.4044 126.219 69.7821 127.597 69.7821 129.298" fill="url(#paint89_linear_1_34781)"/>
<path fill-rule="evenodd" clip-rule="evenodd" d="M85.1727 129.298C85.1727 130.999 83.795 132.376 82.0942 132.376C80.3933 132.376 79.0156 130.999 79.0156 129.298C79.0156 127.597 80.3933 126.219 82.0942 126.219C83.795 126.219 85.1727 127.597 85.1727 129.298" fill="url(#paint90_linear_1_34781)"/>
<path fill-rule="evenodd" clip-rule="evenodd" d="M101.595 129.298C101.595 130.999 100.217 132.376 98.516 132.376C96.8151 132.376 95.4375 130.999 95.4375 129.298C95.4375 127.597 96.8151 126.219 98.516 126.219C100.217 126.219 101.595 127.597 101.595 129.298" fill="url(#paint91_linear_1_34781)"/>
<path fill-rule="evenodd" clip-rule="evenodd" d="M116.985 129.298C116.985 130.999 115.608 132.376 113.907 132.376C112.206 132.376 110.828 130.999 110.828 129.298C110.828 127.597 112.206 126.219 113.907 126.219C115.608 126.219 116.985 127.597 116.985 129.298" fill="url(#paint92_linear_1_34781)"/>
<path fill-rule="evenodd" clip-rule="evenodd" d="M133.399 129.298C133.399 130.999 132.022 132.376 130.321 132.376C128.62 132.376 127.242 130.999 127.242 129.298C127.242 127.597 128.62 126.219 130.321 126.219C132.022 126.219 133.399 127.597 133.399 129.298" fill="url(#paint93_linear_1_34781)"/>
<path fill-rule="evenodd" clip-rule="evenodd" d="M148.798 129.298C148.798 130.999 147.42 132.376 145.719 132.376C144.018 132.376 142.641 130.999 142.641 129.298C142.641 127.597 144.018 126.219 145.719 126.219C147.42 126.219 148.798 127.597 148.798 129.298" fill="url(#paint94_linear_1_34781)"/>
<path fill-rule="evenodd" clip-rule="evenodd" d="M164.188 129.298C164.188 130.999 162.811 132.376 161.11 132.376C159.409 132.376 158.031 130.999 158.031 129.298C158.031 127.597 159.409 126.219 161.11 126.219C162.811 126.219 164.188 127.597 164.188 129.298" fill="url(#paint95_linear_1_34781)"/>
<path fill-rule="evenodd" clip-rule="evenodd" d="M180.61 129.298C180.61 130.999 179.233 132.376 177.532 132.376C175.831 132.376 174.453 130.999 174.453 129.298C174.453 127.597 175.831 126.219 177.532 126.219C179.233 126.219 180.61 127.597 180.61 129.298" fill="url(#paint96_linear_1_34781)"/>
<path fill-rule="evenodd" clip-rule="evenodd" d="M6.15707 145.718C6.15707 147.419 4.77942 148.797 3.07853 148.797C1.37764 148.797 0 147.419 0 145.718C0 144.017 1.37764 142.64 3.07853 142.64C4.77942 142.64 6.15707 144.017 6.15707 145.718" fill="url(#paint97_linear_1_34781)"/>
<path fill-rule="evenodd" clip-rule="evenodd" d="M22.5789 145.718C22.5789 147.419 21.2013 148.797 19.5004 148.797C17.7995 148.797 16.4219 147.419 16.4219 145.718C16.4219 144.017 17.7995 142.64 19.5004 142.64C21.2013 142.64 22.5789 144.017 22.5789 145.718" fill="url(#paint98_linear_1_34781)"/>
<path fill-rule="evenodd" clip-rule="evenodd" d="M37.9696 145.718C37.9696 147.419 36.5919 148.797 34.891 148.797C33.1901 148.797 31.8125 147.419 31.8125 145.718C31.8125 144.017 33.1901 142.64 34.891 142.64C36.5919 142.64 37.9696 144.017 37.9696 145.718" fill="url(#paint99_linear_1_34781)"/>
<path fill-rule="evenodd" clip-rule="evenodd" d="M53.3602 145.718C53.3602 147.419 51.9825 148.797 50.2817 148.797C48.5808 148.797 47.2031 147.419 47.2031 145.718C47.2031 144.017 48.5808 142.64 50.2817 142.64C51.9825 142.64 53.3602 144.017 53.3602 145.718" fill="url(#paint100_linear_1_34781)"/>
<path fill-rule="evenodd" clip-rule="evenodd" d="M69.7821 145.718C69.7821 147.419 68.4044 148.797 66.7035 148.797C65.0026 148.797 63.625 147.419 63.625 145.718C63.625 144.017 65.0026 142.64 66.7035 142.64C68.4044 142.64 69.7821 144.017 69.7821 145.718" fill="url(#paint101_linear_1_34781)"/>
<path fill-rule="evenodd" clip-rule="evenodd" d="M85.1727 145.718C85.1727 147.419 83.795 148.797 82.0942 148.797C80.3933 148.797 79.0156 147.419 79.0156 145.718C79.0156 144.017 80.3933 142.64 82.0942 142.64C83.795 142.64 85.1727 144.017 85.1727 145.718" fill="url(#paint102_linear_1_34781)"/>
<path fill-rule="evenodd" clip-rule="evenodd" d="M101.595 145.718C101.595 147.419 100.217 148.797 98.516 148.797C96.8151 148.797 95.4375 147.419 95.4375 145.718C95.4375 144.017 96.8151 142.64 98.516 142.64C100.217 142.64 101.595 144.017 101.595 145.718" fill="url(#paint103_linear_1_34781)"/>
<path fill-rule="evenodd" clip-rule="evenodd" d="M116.985 145.718C116.985 147.419 115.608 148.797 113.907 148.797C112.206 148.797 110.828 147.419 110.828 145.718C110.828 144.017 112.206 142.64 113.907 142.64C115.608 142.64 116.985 144.017 116.985 145.718" fill="url(#paint104_linear_1_34781)"/>
<path fill-rule="evenodd" clip-rule="evenodd" d="M133.399 145.718C133.399 147.419 132.022 148.797 130.321 148.797C128.62 148.797 127.242 147.419 127.242 145.718C127.242 144.017 128.62 142.64 130.321 142.64C132.022 142.64 133.399 144.017 133.399 145.718" fill="url(#paint105_linear_1_34781)"/>
<path fill-rule="evenodd" clip-rule="evenodd" d="M148.798 145.718C148.798 147.419 147.42 148.797 145.719 148.797C144.018 148.797 142.641 147.419 142.641 145.718C142.641 144.017 144.018 142.64 145.719 142.64C147.42 142.64 148.798 144.017 148.798 145.718" fill="url(#paint106_linear_1_34781)"/>
<path fill-rule="evenodd" clip-rule="evenodd" d="M164.188 145.718C164.188 147.419 162.811 148.797 161.11 148.797C159.409 148.797 158.031 147.419 158.031 145.718C158.031 144.017 159.409 142.64 161.11 142.64C162.811 142.64 164.188 144.017 164.188 145.718" fill="url(#paint107_linear_1_34781)"/>
<path fill-rule="evenodd" clip-rule="evenodd" d="M180.61 145.718C180.61 147.419 179.233 148.797 177.532 148.797C175.831 148.797 174.453 147.419 174.453 145.718C174.453 144.017 175.831 142.64 177.532 142.64C179.233 142.64 180.61 144.017 180.61 145.718" fill="url(#paint108_linear_1_34781)"/>
<path fill-rule="evenodd" clip-rule="evenodd" d="M6.15707 161.11C6.15707 162.811 4.77942 164.188 3.07853 164.188C1.37764 164.188 0 162.811 0 161.11C0 159.409 1.37764 158.031 3.07853 158.031C4.77942 158.031 6.15707 159.409 6.15707 161.11" fill="url(#paint109_linear_1_34781)"/>
<path fill-rule="evenodd" clip-rule="evenodd" d="M22.5789 161.11C22.5789 162.811 21.2013 164.188 19.5004 164.188C17.7995 164.188 16.4219 162.811 16.4219 161.11C16.4219 159.409 17.7995 158.031 19.5004 158.031C21.2013 158.031 22.5789 159.409 22.5789 161.11" fill="url(#paint110_linear_1_34781)"/>
<path fill-rule="evenodd" clip-rule="evenodd" d="M37.9696 161.11C37.9696 162.811 36.5919 164.188 34.891 164.188C33.1901 164.188 31.8125 162.811 31.8125 161.11C31.8125 159.409 33.1901 158.031 34.891 158.031C36.5919 158.031 37.9696 159.409 37.9696 161.11" fill="url(#paint111_linear_1_34781)"/>
<path fill-rule="evenodd" clip-rule="evenodd" d="M53.3602 161.11C53.3602 162.811 51.9825 164.188 50.2817 164.188C48.5808 164.188 47.2031 162.811 47.2031 161.11C47.2031 159.409 48.5808 158.031 50.2817 158.031C51.9825 158.031 53.3602 159.409 53.3602 161.11" fill="url(#paint112_linear_1_34781)"/>
<path fill-rule="evenodd" clip-rule="evenodd" d="M69.7821 161.11C69.7821 162.811 68.4044 164.188 66.7035 164.188C65.0026 164.188 63.625 162.811 63.625 161.11C63.625 159.409 65.0026 158.031 66.7035 158.031C68.4044 158.031 69.7821 159.409 69.7821 161.11" fill="url(#paint113_linear_1_34781)"/>
<path fill-rule="evenodd" clip-rule="evenodd" d="M85.1727 161.11C85.1727 162.811 83.795 164.188 82.0942 164.188C80.3933 164.188 79.0156 162.811 79.0156 161.11C79.0156 159.409 80.3933 158.031 82.0942 158.031C83.795 158.031 85.1727 159.409 85.1727 161.11" fill="url(#paint114_linear_1_34781)"/>
<path fill-rule="evenodd" clip-rule="evenodd" d="M101.595 161.11C101.595 162.811 100.217 164.188 98.516 164.188C96.8151 164.188 95.4375 162.811 95.4375 161.11C95.4375 159.409 96.8151 158.031 98.516 158.031C100.217 158.031 101.595 159.409 101.595 161.11" fill="url(#paint115_linear_1_34781)"/>
<path fill-rule="evenodd" clip-rule="evenodd" d="M116.985 161.11C116.985 162.811 115.608 164.188 113.907 164.188C112.206 164.188 110.828 162.811 110.828 161.11C110.828 159.409 112.206 158.031 113.907 158.031C115.608 158.031 116.985 159.409 116.985 161.11" fill="url(#paint116_linear_1_34781)"/>
<path fill-rule="evenodd" clip-rule="evenodd" d="M133.399 161.11C133.399 162.811 132.022 164.188 130.321 164.188C128.62 164.188 127.242 162.811 127.242 161.11C127.242 159.409 128.62 158.031 130.321 158.031C132.022 158.031 133.399 159.409 133.399 161.11" fill="url(#paint117_linear_1_34781)"/>
<path fill-rule="evenodd" clip-rule="evenodd" d="M148.798 161.11C148.798 162.811 147.42 164.188 145.719 164.188C144.018 164.188 142.641 162.811 142.641 161.11C142.641 159.409 144.018 158.031 145.719 158.031C147.42 158.031 148.798 159.409 148.798 161.11" fill="url(#paint118_linear_1_34781)"/>
<path fill-rule="evenodd" clip-rule="evenodd" d="M164.188 161.11C164.188 162.811 162.811 164.188 161.11 164.188C159.409 164.188 158.031 162.811 158.031 161.11C158.031 159.409 159.409 158.031 161.11 158.031C162.811 158.031 164.188 159.409 164.188 161.11" fill="url(#paint119_linear_1_34781)"/>
<path fill-rule="evenodd" clip-rule="evenodd" d="M180.61 161.11C180.61 162.811 179.233 164.188 177.532 164.188C175.831 164.188 174.453 162.811 174.453 161.11C174.453 159.409 175.831 158.031 177.532 158.031C179.233 158.031 180.61 159.409 180.61 161.11" fill="url(#paint120_linear_1_34781)"/>
<path fill-rule="evenodd" clip-rule="evenodd" d="M6.15707 177.532C6.15707 179.233 4.77942 180.61 3.07853 180.61C1.37764 180.61 0 179.233 0 177.532C0 175.831 1.37764 174.453 3.07853 174.453C4.77942 174.453 6.15707 175.831 6.15707 177.532" fill="url(#paint121_linear_1_34781)"/>
<path fill-rule="evenodd" clip-rule="evenodd" d="M22.5789 177.532C22.5789 179.233 21.2013 180.61 19.5004 180.61C17.7995 180.61 16.4219 179.233 16.4219 177.532C16.4219 175.831 17.7995 174.453 19.5004 174.453C21.2013 174.453 22.5789 175.831 22.5789 177.532" fill="url(#paint122_linear_1_34781)"/>
<path fill-rule="evenodd" clip-rule="evenodd" d="M37.9696 177.532C37.9696 179.233 36.5919 180.61 34.891 180.61C33.1901 180.61 31.8125 179.233 31.8125 177.532C31.8125 175.831 33.1901 174.453 34.891 174.453C36.5919 174.453 37.9696 175.831 37.9696 177.532" fill="url(#paint123_linear_1_34781)"/>
<path fill-rule="evenodd" clip-rule="evenodd" d="M53.3602 177.532C53.3602 179.233 51.9825 180.61 50.2817 180.61C48.5808 180.61 47.2031 179.233 47.2031 177.532C47.2031 175.831 48.5808 174.453 50.2817 174.453C51.9825 174.453 53.3602 175.831 53.3602 177.532" fill="url(#paint124_linear_1_34781)"/>
<path fill-rule="evenodd" clip-rule="evenodd" d="M69.7821 177.532C69.7821 179.233 68.4044 180.61 66.7035 180.61C65.0026 180.61 63.625 179.233 63.625 177.532C63.625 175.831 65.0026 174.453 66.7035 174.453C68.4044 174.453 69.7821 175.831 69.7821 177.532" fill="url(#paint125_linear_1_34781)"/>
<path fill-rule="evenodd" clip-rule="evenodd" d="M85.1727 177.532C85.1727 179.233 83.795 180.61 82.0942 180.61C80.3933 180.61 79.0156 179.233 79.0156 177.532C79.0156 175.831 80.3933 174.453 82.0942 174.453C83.795 174.453 85.1727 175.831 85.1727 177.532" fill="url(#paint126_linear_1_34781)"/>
<path fill-rule="evenodd" clip-rule="evenodd" d="M101.595 177.532C101.595 179.233 100.217 180.61 98.516 180.61C96.8151 180.61 95.4375 179.233 95.4375 177.532C95.4375 175.831 96.8151 174.453 98.516 174.453C100.217 174.453 101.595 175.831 101.595 177.532" fill="url(#paint127_linear_1_34781)"/>
<path fill-rule="evenodd" clip-rule="evenodd" d="M116.985 177.532C116.985 179.233 115.608 180.61 113.907 180.61C112.206 180.61 110.828 179.233 110.828 177.532C110.828 175.831 112.206 174.453 113.907 174.453C115.608 174.453 116.985 175.831 116.985 177.532" fill="url(#paint128_linear_1_34781)"/>
<path fill-rule="evenodd" clip-rule="evenodd" d="M133.407 177.532C133.407 179.233 132.029 180.61 130.329 180.61C128.628 180.61 127.25 179.233 127.25 177.532C127.25 175.831 128.628 174.453 130.329 174.453C132.029 174.453 133.407 175.831 133.407 177.532" fill="url(#paint129_linear_1_34781)"/>
<path fill-rule="evenodd" clip-rule="evenodd" d="M148.798 177.532C148.798 179.233 147.42 180.61 145.719 180.61C144.018 180.61 142.641 179.233 142.641 177.532C142.641 175.831 144.018 174.453 145.719 174.453C147.42 174.453 148.798 175.831 148.798 177.532" fill="url(#paint130_linear_1_34781)"/>
<path fill-rule="evenodd" clip-rule="evenodd" d="M164.188 177.532C164.188 179.233 162.811 180.61 161.11 180.61C159.409 180.61 158.031 179.233 158.031 177.532C158.031 175.831 159.409 174.453 161.11 174.453C162.811 174.453 164.188 175.831 164.188 177.532" fill="url(#paint131_linear_1_34781)"/>
<path fill-rule="evenodd" clip-rule="evenodd" d="M180.61 177.532C180.61 179.233 179.233 180.61 177.532 180.61C175.831 180.61 174.453 179.233 174.453 177.532C174.453 175.831 175.831 174.453 177.532 174.453C179.233 174.453 180.61 175.831 180.61 177.532" fill="url(#paint132_linear_1_34781)"/>
<path fill-rule="evenodd" clip-rule="evenodd" d="M6.15707 192.922C6.15707 194.623 4.77942 196.001 3.07853 196.001C1.37764 196.001 0 194.623 0 192.922C0 191.221 1.37764 189.844 3.07853 189.844C4.77942 189.844 6.15707 191.221 6.15707 192.922" fill="url(#paint133_linear_1_34781)"/>
<path fill-rule="evenodd" clip-rule="evenodd" d="M22.5789 192.922C22.5789 194.623 21.2013 196.001 19.5004 196.001C17.7995 196.001 16.4219 194.623 16.4219 192.922C16.4219 191.221 17.7995 189.844 19.5004 189.844C21.2013 189.844 22.5789 191.221 22.5789 192.922" fill="url(#paint134_linear_1_34781)"/>
<path fill-rule="evenodd" clip-rule="evenodd" d="M37.9696 192.922C37.9696 194.623 36.5919 196.001 34.891 196.001C33.1901 196.001 31.8125 194.623 31.8125 192.922C31.8125 191.221 33.1901 189.844 34.891 189.844C36.5919 189.844 37.9696 191.221 37.9696 192.922" fill="url(#paint135_linear_1_34781)"/>
<path fill-rule="evenodd" clip-rule="evenodd" d="M53.3602 192.922C53.3602 194.623 51.9825 196.001 50.2817 196.001C48.5808 196.001 47.2031 194.623 47.2031 192.922C47.2031 191.221 48.5808 189.844 50.2817 189.844C51.9825 189.844 53.3602 191.221 53.3602 192.922" fill="url(#paint136_linear_1_34781)"/>
<path fill-rule="evenodd" clip-rule="evenodd" d="M69.7821 192.922C69.7821 194.623 68.4044 196.001 66.7035 196.001C65.0026 196.001 63.625 194.623 63.625 192.922C63.625 191.221 65.0026 189.844 66.7035 189.844C68.4044 189.844 69.7821 191.221 69.7821 192.922" fill="url(#paint137_linear_1_34781)"/>
<path fill-rule="evenodd" clip-rule="evenodd" d="M85.1727 192.922C85.1727 194.623 83.795 196.001 82.0942 196.001C80.3933 196.001 79.0156 194.623 79.0156 192.922C79.0156 191.221 80.3933 189.844 82.0942 189.844C83.795 189.844 85.1727 191.221 85.1727 192.922" fill="url(#paint138_linear_1_34781)"/>
<path fill-rule="evenodd" clip-rule="evenodd" d="M101.595 192.922C101.595 194.623 100.217 196.001 98.516 196.001C96.8151 196.001 95.4375 194.623 95.4375 192.922C95.4375 191.221 96.8151 189.844 98.516 189.844C100.217 189.844 101.595 191.221 101.595 192.922" fill="url(#paint139_linear_1_34781)"/>
<path fill-rule="evenodd" clip-rule="evenodd" d="M116.985 192.922C116.985 194.623 115.608 196.001 113.907 196.001C112.206 196.001 110.828 194.623 110.828 192.922C110.828 191.221 112.206 189.844 113.907 189.844C115.608 189.844 116.985 191.221 116.985 192.922" fill="url(#paint140_linear_1_34781)"/>
<path fill-rule="evenodd" clip-rule="evenodd" d="M133.399 192.922C133.399 194.623 132.022 196.001 130.321 196.001C128.62 196.001 127.242 194.623 127.242 192.922C127.242 191.221 128.62 189.844 130.321 189.844C132.022 189.844 133.399 191.221 133.399 192.922" fill="url(#paint141_linear_1_34781)"/>
<path fill-rule="evenodd" clip-rule="evenodd" d="M148.798 192.922C148.798 194.623 147.42 196.001 145.719 196.001C144.018 196.001 142.641 194.623 142.641 192.922C142.641 191.221 144.018 189.844 145.719 189.844C147.42 189.844 148.798 191.221 148.798 192.922" fill="url(#paint142_linear_1_34781)"/>
<path fill-rule="evenodd" clip-rule="evenodd" d="M164.188 192.922C164.188 194.623 162.811 196.001 161.11 196.001C159.409 196.001 158.031 194.623 158.031 192.922C158.031 191.221 159.409 189.844 161.11 189.844C162.811 189.844 164.188 191.221 164.188 192.922" fill="url(#paint143_linear_1_34781)"/>
<path fill-rule="evenodd" clip-rule="evenodd" d="M180.61 192.922C180.61 194.623 179.233 196.001 177.532 196.001C175.831 196.001 174.453 194.623 174.453 192.922C174.453 191.221 175.831 189.844 177.532 189.844C179.233 189.844 180.61 191.221 180.61 192.922" fill="url(#paint144_linear_1_34781)"/>
<path fill-rule="evenodd" clip-rule="evenodd" d="M22.5789 3.07853C22.5789 4.77942 21.2013 6.15707 19.5004 6.15707C17.7995 6.15707 16.4219 4.77942 16.4219 3.07853C16.4219 1.37764 17.7995 0 19.5004 0C21.2013 0 22.5789 1.37764 22.5789 3.07853" fill="url(#paint145_linear_1_34781)"/>
<path fill-rule="evenodd" clip-rule="evenodd" d="M37.9696 3.07853C37.9696 4.77942 36.5919 6.15707 34.891 6.15707C33.1901 6.15707 31.8125 4.77942 31.8125 3.07853C31.8125 1.37764 33.1901 0 34.891 0C36.5919 0 37.9696 1.37764 37.9696 3.07853" fill="url(#paint146_linear_1_34781)"/>
<path fill-rule="evenodd" clip-rule="evenodd" d="M53.3602 3.07853C53.3602 4.77942 51.9825 6.15707 50.2817 6.15707C48.5808 6.15707 47.2031 4.77942 47.2031 3.07853C47.2031 1.37764 48.5808 0 50.2817 0C51.9825 0 53.3602 1.37764 53.3602 3.07853" fill="url(#paint147_linear_1_34781)"/>
<path fill-rule="evenodd" clip-rule="evenodd" d="M69.7821 3.07853C69.7821 4.77942 68.4044 6.15707 66.7035 6.15707C65.0026 6.15707 63.625 4.77942 63.625 3.07853C63.625 1.37764 65.0026 0 66.7035 0C68.4044 0 69.7821 1.37764 69.7821 3.07853" fill="url(#paint148_linear_1_34781)"/>
<path fill-rule="evenodd" clip-rule="evenodd" d="M85.1727 3.07853C85.1727 4.77942 83.795 6.15707 82.0942 6.15707C80.3933 6.15707 79.0156 4.77942 79.0156 3.07853C79.0156 1.37764 80.3933 0 82.0942 0C83.795 0 85.1727 1.37764 85.1727 3.07853" fill="url(#paint149_linear_1_34781)"/>
<path fill-rule="evenodd" clip-rule="evenodd" d="M101.595 3.07853C101.595 4.77942 100.217 6.15707 98.516 6.15707C96.8151 6.15707 95.4375 4.77942 95.4375 3.07853C95.4375 1.37764 96.8151 0 98.516 0C100.217 0 101.595 1.37764 101.595 3.07853" fill="url(#paint150_linear_1_34781)"/>
<path fill-rule="evenodd" clip-rule="evenodd" d="M116.985 3.07853C116.985 4.77942 115.608 6.15707 113.907 6.15707C112.206 6.15707 110.828 4.77942 110.828 3.07853C110.828 1.37764 112.206 0 113.907 0C115.608 0 116.985 1.37764 116.985 3.07853" fill="url(#paint151_linear_1_34781)"/>
<path fill-rule="evenodd" clip-rule="evenodd" d="M133.399 3.07853C133.399 4.77942 132.022 6.15707 130.321 6.15707C128.62 6.15707 127.242 4.77942 127.242 3.07853C127.242 1.37764 128.62 0 130.321 0C132.022 0 133.399 1.37764 133.399 3.07853" fill="url(#paint152_linear_1_34781)"/>
<path fill-rule="evenodd" clip-rule="evenodd" d="M148.798 3.07853C148.798 4.77942 147.42 6.15707 145.719 6.15707C144.018 6.15707 142.641 4.77942 142.641 3.07853C142.641 1.37764 144.018 0 145.719 0C147.42 0 148.798 1.37764 148.798 3.07853" fill="url(#paint153_linear_1_34781)"/>
<path fill-rule="evenodd" clip-rule="evenodd" d="M164.188 3.07853C164.188 4.77942 162.811 6.15707 161.11 6.15707C159.409 6.15707 158.031 4.77942 158.031 3.07853C158.031 1.37764 159.409 0 161.11 0C162.811 0 164.188 1.37764 164.188 3.07853" fill="url(#paint154_linear_1_34781)"/>
<path fill-rule="evenodd" clip-rule="evenodd" d="M180.61 3.07853C180.61 4.77942 179.233 6.15707 177.532 6.15707C175.831 6.15707 174.453 4.77942 174.453 3.07853C174.453 1.37764 175.831 0 177.532 0C179.233 0 180.61 1.37764 180.61 3.07853" fill="url(#paint155_linear_1_34781)"/>
</g>
<defs>
<linearGradient id="paint0_linear_1_34781" x1="4.37152" y1="-1.71687" x2="-2.55476" y2="1.34976" gradientUnits="userSpaceOnUse">
<stop offset="0.0001" stop-color="#9D50FF"/>
<stop offset="1" stop-color="#583CF0"/>
</linearGradient>
<linearGradient id="paint1_linear_1_34781" x1="4.37152" y1="13.6747" x2="-2.55476" y2="16.7414" gradientUnits="userSpaceOnUse">
<stop offset="0.0001" stop-color="#9D50FF"/>
<stop offset="1" stop-color="#583CF0"/>
</linearGradient>
<linearGradient id="paint2_linear_1_34781" x1="20.7934" y1="13.6747" x2="13.8671" y2="16.7414" gradientUnits="userSpaceOnUse">
<stop offset="0.0001" stop-color="#9D50FF"/>
<stop offset="1" stop-color="#583CF0"/>
</linearGradient>
<linearGradient id="paint3_linear_1_34781" x1="36.184" y1="13.6747" x2="29.2577" y2="16.7414" gradientUnits="userSpaceOnUse">
<stop offset="0.0001" stop-color="#9D50FF"/>
<stop offset="1" stop-color="#583CF0"/>
</linearGradient>
<linearGradient id="paint4_linear_1_34781" x1="51.5746" y1="13.6747" x2="44.6484" y2="16.7414" gradientUnits="userSpaceOnUse">
<stop offset="0.0001" stop-color="#9D50FF"/>
<stop offset="1" stop-color="#583CF0"/>
</linearGradient>
<linearGradient id="paint5_linear_1_34781" x1="67.9965" y1="13.6747" x2="61.0702" y2="16.7414" gradientUnits="userSpaceOnUse">
<stop offset="0.0001" stop-color="#9D50FF"/>
<stop offset="1" stop-color="#583CF0"/>
</linearGradient>
<linearGradient id="paint6_linear_1_34781" x1="83.3871" y1="13.6747" x2="76.4609" y2="16.7414" gradientUnits="userSpaceOnUse">
<stop offset="0.0001" stop-color="#9D50FF"/>
<stop offset="1" stop-color="#583CF0"/>
</linearGradient>
<linearGradient id="paint7_linear_1_34781" x1="99.809" y1="13.6747" x2="92.8827" y2="16.7414" gradientUnits="userSpaceOnUse">
<stop offset="0.0001" stop-color="#9D50FF"/>
<stop offset="1" stop-color="#583CF0"/>
</linearGradient>
<linearGradient id="paint8_linear_1_34781" x1="115.2" y1="13.6747" x2="108.273" y2="16.7414" gradientUnits="userSpaceOnUse">
<stop offset="0.0001" stop-color="#9D50FF"/>
<stop offset="1" stop-color="#583CF0"/>
</linearGradient>
<linearGradient id="paint9_linear_1_34781" x1="131.614" y1="13.6747" x2="124.687" y2="16.7414" gradientUnits="userSpaceOnUse">
<stop offset="0.0001" stop-color="#9D50FF"/>
<stop offset="1" stop-color="#583CF0"/>
</linearGradient>
<linearGradient id="paint10_linear_1_34781" x1="147.012" y1="13.6747" x2="140.086" y2="16.7414" gradientUnits="userSpaceOnUse">
<stop offset="0.0001" stop-color="#9D50FF"/>
<stop offset="1" stop-color="#583CF0"/>
</linearGradient>
<linearGradient id="paint11_linear_1_34781" x1="162.403" y1="13.6747" x2="155.476" y2="16.7414" gradientUnits="userSpaceOnUse">
<stop offset="0.0001" stop-color="#9D50FF"/>
<stop offset="1" stop-color="#583CF0"/>
</linearGradient>
<linearGradient id="paint12_linear_1_34781" x1="178.825" y1="13.6747" x2="171.898" y2="16.7414" gradientUnits="userSpaceOnUse">
<stop offset="0.0001" stop-color="#9D50FF"/>
<stop offset="1" stop-color="#583CF0"/>
</linearGradient>
<linearGradient id="paint13_linear_1_34781" x1="4.37152" y1="30.0951" x2="-2.55476" y2="33.1618" gradientUnits="userSpaceOnUse">
<stop offset="0.0001" stop-color="#9D50FF"/>
<stop offset="1" stop-color="#583CF0"/>
</linearGradient>
<linearGradient id="paint14_linear_1_34781" x1="20.7934" y1="30.0951" x2="13.8671" y2="33.1618" gradientUnits="userSpaceOnUse">
<stop offset="0.0001" stop-color="#9D50FF"/>
<stop offset="1" stop-color="#583CF0"/>
</linearGradient>
<linearGradient id="paint15_linear_1_34781" x1="36.184" y1="30.0951" x2="29.2577" y2="33.1618" gradientUnits="userSpaceOnUse">
<stop offset="0.0001" stop-color="#9D50FF"/>
<stop offset="1" stop-color="#583CF0"/>
</linearGradient>
<linearGradient id="paint16_linear_1_34781" x1="51.5746" y1="30.0951" x2="44.6484" y2="33.1618" gradientUnits="userSpaceOnUse">
<stop offset="0.0001" stop-color="#9D50FF"/>
<stop offset="1" stop-color="#583CF0"/>
</linearGradient>
<linearGradient id="paint17_linear_1_34781" x1="67.9965" y1="30.0951" x2="61.0702" y2="33.1618" gradientUnits="userSpaceOnUse">
<stop offset="0.0001" stop-color="#9D50FF"/>
<stop offset="1" stop-color="#583CF0"/>
</linearGradient>
<linearGradient id="paint18_linear_1_34781" x1="83.3871" y1="30.0951" x2="76.4609" y2="33.1618" gradientUnits="userSpaceOnUse">
<stop offset="0.0001" stop-color="#9D50FF"/>
<stop offset="1" stop-color="#583CF0"/>
</linearGradient>
<linearGradient id="paint19_linear_1_34781" x1="99.809" y1="30.0951" x2="92.8827" y2="33.1618" gradientUnits="userSpaceOnUse">
<stop offset="0.0001" stop-color="#9D50FF"/>
<stop offset="1" stop-color="#583CF0"/>
</linearGradient>
<linearGradient id="paint20_linear_1_34781" x1="115.2" y1="30.0951" x2="108.273" y2="33.1618" gradientUnits="userSpaceOnUse">
<stop offset="0.0001" stop-color="#9D50FF"/>
<stop offset="1" stop-color="#583CF0"/>
</linearGradient>
<linearGradient id="paint21_linear_1_34781" x1="131.614" y1="30.0951" x2="124.687" y2="33.1618" gradientUnits="userSpaceOnUse">
<stop offset="0.0001" stop-color="#9D50FF"/>
<stop offset="1" stop-color="#583CF0"/>
</linearGradient>
<linearGradient id="paint22_linear_1_34781" x1="147.012" y1="30.0951" x2="140.086" y2="33.1618" gradientUnits="userSpaceOnUse">
<stop offset="0.0001" stop-color="#9D50FF"/>
<stop offset="1" stop-color="#583CF0"/>
</linearGradient>
<linearGradient id="paint23_linear_1_34781" x1="162.403" y1="30.0951" x2="155.476" y2="33.1618" gradientUnits="userSpaceOnUse">
<stop offset="0.0001" stop-color="#9D50FF"/>
<stop offset="1" stop-color="#583CF0"/>
</linearGradient>
<linearGradient id="paint24_linear_1_34781" x1="178.825" y1="30.0951" x2="171.898" y2="33.1618" gradientUnits="userSpaceOnUse">
<stop offset="0.0001" stop-color="#9D50FF"/>
<stop offset="1" stop-color="#583CF0"/>
</linearGradient>
<linearGradient id="paint25_linear_1_34781" x1="4.37152" y1="45.4867" x2="-2.55476" y2="48.5534" gradientUnits="userSpaceOnUse">
<stop offset="0.0001" stop-color="#9D50FF"/>
<stop offset="1" stop-color="#583CF0"/>
</linearGradient>
<linearGradient id="paint26_linear_1_34781" x1="20.7934" y1="45.4867" x2="13.8671" y2="48.5534" gradientUnits="userSpaceOnUse">
<stop offset="0.0001" stop-color="#9D50FF"/>
<stop offset="1" stop-color="#583CF0"/>
</linearGradient>
<linearGradient id="paint27_linear_1_34781" x1="36.184" y1="45.4867" x2="29.2577" y2="48.5534" gradientUnits="userSpaceOnUse">
<stop offset="0.0001" stop-color="#9D50FF"/>
<stop offset="1" stop-color="#583CF0"/>
</linearGradient>
<linearGradient id="paint28_linear_1_34781" x1="51.5746" y1="45.4867" x2="44.6484" y2="48.5534" gradientUnits="userSpaceOnUse">
<stop offset="0.0001" stop-color="#9D50FF"/>
<stop offset="1" stop-color="#583CF0"/>
</linearGradient>
<linearGradient id="paint29_linear_1_34781" x1="67.9965" y1="45.4867" x2="61.0702" y2="48.5534" gradientUnits="userSpaceOnUse">
<stop offset="0.0001" stop-color="#9D50FF"/>
<stop offset="1" stop-color="#583CF0"/>
</linearGradient>
<linearGradient id="paint30_linear_1_34781" x1="83.3871" y1="45.4867" x2="76.4609" y2="48.5534" gradientUnits="userSpaceOnUse">
<stop offset="0.0001" stop-color="#9D50FF"/>
<stop offset="1" stop-color="#583CF0"/>
</linearGradient>
<linearGradient id="paint31_linear_1_34781" x1="99.809" y1="45.4867" x2="92.8827" y2="48.5534" gradientUnits="userSpaceOnUse">
<stop offset="0.0001" stop-color="#9D50FF"/>
<stop offset="1" stop-color="#583CF0"/>
</linearGradient>
<linearGradient id="paint32_linear_1_34781" x1="115.2" y1="45.4867" x2="108.273" y2="48.5534" gradientUnits="userSpaceOnUse">
<stop offset="0.0001" stop-color="#9D50FF"/>
<stop offset="1" stop-color="#583CF0"/>
</linearGradient>
<linearGradient id="paint33_linear_1_34781" x1="131.614" y1="45.4867" x2="124.687" y2="48.5534" gradientUnits="userSpaceOnUse">
<stop offset="0.0001" stop-color="#9D50FF"/>
<stop offset="1" stop-color="#583CF0"/>
</linearGradient>
<linearGradient id="paint34_linear_1_34781" x1="147.012" y1="45.4867" x2="140.086" y2="48.5534" gradientUnits="userSpaceOnUse">
<stop offset="0.0001" stop-color="#9D50FF"/>
<stop offset="1" stop-color="#583CF0"/>
</linearGradient>
<linearGradient id="paint35_linear_1_34781" x1="162.403" y1="45.4867" x2="155.476" y2="48.5534" gradientUnits="userSpaceOnUse">
<stop offset="0.0001" stop-color="#9D50FF"/>
<stop offset="1" stop-color="#583CF0"/>
</linearGradient>
<linearGradient id="paint36_linear_1_34781" x1="178.825" y1="45.4867" x2="171.898" y2="48.5534" gradientUnits="userSpaceOnUse">
<stop offset="0.0001" stop-color="#9D50FF"/>
<stop offset="1" stop-color="#583CF0"/>
</linearGradient>
<linearGradient id="paint37_linear_1_34781" x1="4.37152" y1="61.9073" x2="-2.55476" y2="64.9739" gradientUnits="userSpaceOnUse">
<stop offset="0.0001" stop-color="#9D50FF"/>
<stop offset="1" stop-color="#583CF0"/>
</linearGradient>
<linearGradient id="paint38_linear_1_34781" x1="20.7934" y1="61.9073" x2="13.8671" y2="64.9739" gradientUnits="userSpaceOnUse">
<stop offset="0.0001" stop-color="#9D50FF"/>
<stop offset="1" stop-color="#583CF0"/>
</linearGradient>
<linearGradient id="paint39_linear_1_34781" x1="36.184" y1="61.9073" x2="29.2577" y2="64.9739" gradientUnits="userSpaceOnUse">
<stop offset="0.0001" stop-color="#9D50FF"/>
<stop offset="1" stop-color="#583CF0"/>
</linearGradient>
<linearGradient id="paint40_linear_1_34781" x1="51.5746" y1="61.9073" x2="44.6484" y2="64.9739" gradientUnits="userSpaceOnUse">
<stop offset="0.0001" stop-color="#9D50FF"/>
<stop offset="1" stop-color="#583CF0"/>
</linearGradient>
<linearGradient id="paint41_linear_1_34781" x1="67.9965" y1="61.9073" x2="61.0702" y2="64.9739" gradientUnits="userSpaceOnUse">
<stop offset="0.0001" stop-color="#9D50FF"/>
<stop offset="1" stop-color="#583CF0"/>
</linearGradient>
<linearGradient id="paint42_linear_1_34781" x1="83.3871" y1="61.9073" x2="76.4609" y2="64.9739" gradientUnits="userSpaceOnUse">
<stop offset="0.0001" stop-color="#9D50FF"/>
<stop offset="1" stop-color="#583CF0"/>
</linearGradient>
<linearGradient id="paint43_linear_1_34781" x1="99.809" y1="61.9073" x2="92.8827" y2="64.9739" gradientUnits="userSpaceOnUse">
<stop offset="0.0001" stop-color="#9D50FF"/>
<stop offset="1" stop-color="#583CF0"/>
</linearGradient>
<linearGradient id="paint44_linear_1_34781" x1="115.2" y1="61.9073" x2="108.273" y2="64.9739" gradientUnits="userSpaceOnUse">
<stop offset="0.0001" stop-color="#9D50FF"/>
<stop offset="1" stop-color="#583CF0"/>
</linearGradient>
<linearGradient id="paint45_linear_1_34781" x1="131.614" y1="61.9073" x2="124.687" y2="64.9739" gradientUnits="userSpaceOnUse">
<stop offset="0.0001" stop-color="#9D50FF"/>
<stop offset="1" stop-color="#583CF0"/>
</linearGradient>
<linearGradient id="paint46_linear_1_34781" x1="147.012" y1="61.9073" x2="140.086" y2="64.9739" gradientUnits="userSpaceOnUse">
<stop offset="0.0001" stop-color="#9D50FF"/>
<stop offset="1" stop-color="#583CF0"/>
</linearGradient>
<linearGradient id="paint47_linear_1_34781" x1="162.403" y1="61.9073" x2="155.476" y2="64.9739" gradientUnits="userSpaceOnUse">
<stop offset="0.0001" stop-color="#9D50FF"/>
<stop offset="1" stop-color="#583CF0"/>
</linearGradient>
<linearGradient id="paint48_linear_1_34781" x1="178.825" y1="61.9073" x2="171.898" y2="64.9739" gradientUnits="userSpaceOnUse">
<stop offset="0.0001" stop-color="#9D50FF"/>
<stop offset="1" stop-color="#583CF0"/>
</linearGradient>
<linearGradient id="paint49_linear_1_34781" x1="4.37152" y1="77.2989" x2="-2.55476" y2="80.3655" gradientUnits="userSpaceOnUse">
<stop offset="0.0001" stop-color="#9D50FF"/>
<stop offset="1" stop-color="#583CF0"/>
</linearGradient>
<linearGradient id="paint50_linear_1_34781" x1="20.7934" y1="77.2989" x2="13.8671" y2="80.3655" gradientUnits="userSpaceOnUse">
<stop offset="0.0001" stop-color="#9D50FF"/>
<stop offset="1" stop-color="#583CF0"/>
</linearGradient>
<linearGradient id="paint51_linear_1_34781" x1="36.184" y1="77.2989" x2="29.2577" y2="80.3655" gradientUnits="userSpaceOnUse">
<stop offset="0.0001" stop-color="#9D50FF"/>
<stop offset="1" stop-color="#583CF0"/>
</linearGradient>
<linearGradient id="paint52_linear_1_34781" x1="51.5746" y1="77.2989" x2="44.6484" y2="80.3655" gradientUnits="userSpaceOnUse">
<stop offset="0.0001" stop-color="#9D50FF"/>
<stop offset="1" stop-color="#583CF0"/>
</linearGradient>
<linearGradient id="paint53_linear_1_34781" x1="67.9965" y1="77.2989" x2="61.0702" y2="80.3655" gradientUnits="userSpaceOnUse">
<stop offset="0.0001" stop-color="#9D50FF"/>
<stop offset="1" stop-color="#583CF0"/>
</linearGradient>
<linearGradient id="paint54_linear_1_34781" x1="83.3871" y1="77.2989" x2="76.4609" y2="80.3655" gradientUnits="userSpaceOnUse">
<stop offset="0.0001" stop-color="#9D50FF"/>
<stop offset="1" stop-color="#583CF0"/>
</linearGradient>
<linearGradient id="paint55_linear_1_34781" x1="99.809" y1="77.2989" x2="92.8827" y2="80.3655" gradientUnits="userSpaceOnUse">
<stop offset="0.0001" stop-color="#9D50FF"/>
<stop offset="1" stop-color="#583CF0"/>
</linearGradient>
<linearGradient id="paint56_linear_1_34781" x1="115.2" y1="77.2989" x2="108.273" y2="80.3655" gradientUnits="userSpaceOnUse">
<stop offset="0.0001" stop-color="#9D50FF"/>
<stop offset="1" stop-color="#583CF0"/>
</linearGradient>
<linearGradient id="paint57_linear_1_34781" x1="131.614" y1="77.2989" x2="124.687" y2="80.3655" gradientUnits="userSpaceOnUse">
<stop offset="0.0001" stop-color="#9D50FF"/>
<stop offset="1" stop-color="#583CF0"/>
</linearGradient>
<linearGradient id="paint58_linear_1_34781" x1="147.012" y1="77.2989" x2="140.086" y2="80.3655" gradientUnits="userSpaceOnUse">
<stop offset="0.0001" stop-color="#9D50FF"/>
<stop offset="1" stop-color="#583CF0"/>
</linearGradient>
<linearGradient id="paint59_linear_1_34781" x1="162.403" y1="77.2989" x2="155.476" y2="80.3655" gradientUnits="userSpaceOnUse">
<stop offset="0.0001" stop-color="#9D50FF"/>
<stop offset="1" stop-color="#583CF0"/>
</linearGradient>
<linearGradient id="paint60_linear_1_34781" x1="178.825" y1="77.2989" x2="171.898" y2="80.3655" gradientUnits="userSpaceOnUse">
<stop offset="0.0001" stop-color="#9D50FF"/>
<stop offset="1" stop-color="#583CF0"/>
</linearGradient>
<linearGradient id="paint61_linear_1_34781" x1="4.37152" y1="93.7206" x2="-2.55476" y2="96.7873" gradientUnits="userSpaceOnUse">
<stop offset="0.0001" stop-color="#9D50FF"/>
<stop offset="1" stop-color="#583CF0"/>
</linearGradient>
<linearGradient id="paint62_linear_1_34781" x1="20.7934" y1="93.7206" x2="13.8671" y2="96.7873" gradientUnits="userSpaceOnUse">
<stop offset="0.0001" stop-color="#9D50FF"/>
<stop offset="1" stop-color="#583CF0"/>
</linearGradient>
<linearGradient id="paint63_linear_1_34781" x1="36.184" y1="93.7206" x2="29.2577" y2="96.7873" gradientUnits="userSpaceOnUse">
<stop offset="0.0001" stop-color="#9D50FF"/>
<stop offset="1" stop-color="#583CF0"/>
</linearGradient>
<linearGradient id="paint64_linear_1_34781" x1="51.5746" y1="93.7206" x2="44.6484" y2="96.7873" gradientUnits="userSpaceOnUse">
<stop offset="0.0001" stop-color="#9D50FF"/>
<stop offset="1" stop-color="#583CF0"/>
</linearGradient>
<linearGradient id="paint65_linear_1_34781" x1="67.9965" y1="93.7206" x2="61.0702" y2="96.7873" gradientUnits="userSpaceOnUse">
<stop offset="0.0001" stop-color="#9D50FF"/>
<stop offset="1" stop-color="#583CF0"/>
</linearGradient>
<linearGradient id="paint66_linear_1_34781" x1="83.3871" y1="93.7206" x2="76.4609" y2="96.7873" gradientUnits="userSpaceOnUse">
<stop offset="0.0001" stop-color="#9D50FF"/>
<stop offset="1" stop-color="#583CF0"/>
</linearGradient>
<linearGradient id="paint67_linear_1_34781" x1="99.809" y1="93.7206" x2="92.8827" y2="96.7873" gradientUnits="userSpaceOnUse">
<stop offset="0.0001" stop-color="#9D50FF"/>
<stop offset="1" stop-color="#583CF0"/>
</linearGradient>
<linearGradient id="paint68_linear_1_34781" x1="115.2" y1="93.7206" x2="108.273" y2="96.7873" gradientUnits="userSpaceOnUse">
<stop offset="0.0001" stop-color="#9D50FF"/>
<stop offset="1" stop-color="#583CF0"/>
</linearGradient>
<linearGradient id="paint69_linear_1_34781" x1="131.622" y1="93.7206" x2="124.695" y2="96.7873" gradientUnits="userSpaceOnUse">
<stop offset="0.0001" stop-color="#9D50FF"/>
<stop offset="1" stop-color="#583CF0"/>
</linearGradient>
<linearGradient id="paint70_linear_1_34781" x1="147.012" y1="93.7206" x2="140.086" y2="96.7873" gradientUnits="userSpaceOnUse">
<stop offset="0.0001" stop-color="#9D50FF"/>
<stop offset="1" stop-color="#583CF0"/>
</linearGradient>
<linearGradient id="paint71_linear_1_34781" x1="162.403" y1="93.7206" x2="155.476" y2="96.7873" gradientUnits="userSpaceOnUse">
<stop offset="0.0001" stop-color="#9D50FF"/>
<stop offset="1" stop-color="#583CF0"/>
</linearGradient>
<linearGradient id="paint72_linear_1_34781" x1="178.825" y1="93.7206" x2="171.898" y2="96.7873" gradientUnits="userSpaceOnUse">
<stop offset="0.0001" stop-color="#9D50FF"/>
<stop offset="1" stop-color="#583CF0"/>
</linearGradient>
<linearGradient id="paint73_linear_1_34781" x1="4.37152" y1="109.111" x2="-2.55476" y2="112.178" gradientUnits="userSpaceOnUse">
<stop offset="0.0001" stop-color="#9D50FF"/>
<stop offset="1" stop-color="#583CF0"/>
</linearGradient>
<linearGradient id="paint74_linear_1_34781" x1="20.7934" y1="109.111" x2="13.8671" y2="112.178" gradientUnits="userSpaceOnUse">
<stop offset="0.0001" stop-color="#9D50FF"/>
<stop offset="1" stop-color="#583CF0"/>
</linearGradient>
<linearGradient id="paint75_linear_1_34781" x1="36.184" y1="109.111" x2="29.2577" y2="112.178" gradientUnits="userSpaceOnUse">
<stop offset="0.0001" stop-color="#9D50FF"/>
<stop offset="1" stop-color="#583CF0"/>
</linearGradient>
<linearGradient id="paint76_linear_1_34781" x1="51.5746" y1="109.111" x2="44.6484" y2="112.178" gradientUnits="userSpaceOnUse">
<stop offset="0.0001" stop-color="#9D50FF"/>
<stop offset="1" stop-color="#583CF0"/>
</linearGradient>
<linearGradient id="paint77_linear_1_34781" x1="67.9965" y1="109.111" x2="61.0702" y2="112.178" gradientUnits="userSpaceOnUse">
<stop offset="0.0001" stop-color="#9D50FF"/>
<stop offset="1" stop-color="#583CF0"/>
</linearGradient>
<linearGradient id="paint78_linear_1_34781" x1="83.3871" y1="109.111" x2="76.4609" y2="112.178" gradientUnits="userSpaceOnUse">
<stop offset="0.0001" stop-color="#9D50FF"/>
<stop offset="1" stop-color="#583CF0"/>
</linearGradient>
<linearGradient id="paint79_linear_1_34781" x1="99.809" y1="109.111" x2="92.8827" y2="112.178" gradientUnits="userSpaceOnUse">
<stop offset="0.0001" stop-color="#9D50FF"/>
<stop offset="1" stop-color="#583CF0"/>
</linearGradient>
<linearGradient id="paint80_linear_1_34781" x1="115.2" y1="109.111" x2="108.273" y2="112.178" gradientUnits="userSpaceOnUse">
<stop offset="0.0001" stop-color="#9D50FF"/>
<stop offset="1" stop-color="#583CF0"/>
</linearGradient>
<linearGradient id="paint81_linear_1_34781" x1="131.614" y1="109.111" x2="124.687" y2="112.178" gradientUnits="userSpaceOnUse">
<stop offset="0.0001" stop-color="#9D50FF"/>
<stop offset="1" stop-color="#583CF0"/>
</linearGradient>
<linearGradient id="paint82_linear_1_34781" x1="147.012" y1="109.111" x2="140.086" y2="112.178" gradientUnits="userSpaceOnUse">
<stop offset="0.0001" stop-color="#9D50FF"/>
<stop offset="1" stop-color="#583CF0"/>
</linearGradient>
<linearGradient id="paint83_linear_1_34781" x1="162.403" y1="109.111" x2="155.476" y2="112.178" gradientUnits="userSpaceOnUse">
<stop offset="0.0001" stop-color="#9D50FF"/>
<stop offset="1" stop-color="#583CF0"/>
</linearGradient>
<linearGradient id="paint84_linear_1_34781" x1="178.825" y1="109.111" x2="171.898" y2="112.178" gradientUnits="userSpaceOnUse">
<stop offset="0.0001" stop-color="#9D50FF"/>
<stop offset="1" stop-color="#583CF0"/>
</linearGradient>
<linearGradient id="paint85_linear_1_34781" x1="4.37152" y1="124.502" x2="-2.55476" y2="127.569" gradientUnits="userSpaceOnUse">
<stop offset="0.0001" stop-color="#9D50FF"/>
<stop offset="1" stop-color="#583CF0"/>
</linearGradient>
<linearGradient id="paint86_linear_1_34781" x1="20.7934" y1="124.502" x2="13.8671" y2="127.569" gradientUnits="userSpaceOnUse">
<stop offset="0.0001" stop-color="#9D50FF"/>
<stop offset="1" stop-color="#583CF0"/>
</linearGradient>
<linearGradient id="paint87_linear_1_34781" x1="36.184" y1="124.502" x2="29.2577" y2="127.569" gradientUnits="userSpaceOnUse">
<stop offset="0.0001" stop-color="#9D50FF"/>
<stop offset="1" stop-color="#583CF0"/>
</linearGradient>
<linearGradient id="paint88_linear_1_34781" x1="51.5746" y1="124.502" x2="44.6484" y2="127.569" gradientUnits="userSpaceOnUse">
<stop offset="0.0001" stop-color="#9D50FF"/>
<stop offset="1" stop-color="#583CF0"/>
</linearGradient>
<linearGradient id="paint89_linear_1_34781" x1="67.9965" y1="124.502" x2="61.0702" y2="127.569" gradientUnits="userSpaceOnUse">
<stop offset="0.0001" stop-color="#9D50FF"/>
<stop offset="1" stop-color="#583CF0"/>
</linearGradient>
<linearGradient id="paint90_linear_1_34781" x1="83.3871" y1="124.502" x2="76.4609" y2="127.569" gradientUnits="userSpaceOnUse">
<stop offset="0.0001" stop-color="#9D50FF"/>
<stop offset="1" stop-color="#583CF0"/>
</linearGradient>
<linearGradient id="paint91_linear_1_34781" x1="99.809" y1="124.502" x2="92.8827" y2="127.569" gradientUnits="userSpaceOnUse">
<stop offset="0.0001" stop-color="#9D50FF"/>
<stop offset="1" stop-color="#583CF0"/>
</linearGradient>
<linearGradient id="paint92_linear_1_34781" x1="115.2" y1="124.502" x2="108.273" y2="127.569" gradientUnits="userSpaceOnUse">
<stop offset="0.0001" stop-color="#9D50FF"/>
<stop offset="1" stop-color="#583CF0"/>
</linearGradient>
<linearGradient id="paint93_linear_1_34781" x1="131.614" y1="124.502" x2="124.687" y2="127.569" gradientUnits="userSpaceOnUse">
<stop offset="0.0001" stop-color="#9D50FF"/>
<stop offset="1" stop-color="#583CF0"/>
</linearGradient>
<linearGradient id="paint94_linear_1_34781" x1="147.012" y1="124.502" x2="140.086" y2="127.569" gradientUnits="userSpaceOnUse">
<stop offset="0.0001" stop-color="#9D50FF"/>
<stop offset="1" stop-color="#583CF0"/>
</linearGradient>
<linearGradient id="paint95_linear_1_34781" x1="162.403" y1="124.502" x2="155.476" y2="127.569" gradientUnits="userSpaceOnUse">
<stop offset="0.0001" stop-color="#9D50FF"/>
<stop offset="1" stop-color="#583CF0"/>
</linearGradient>
<linearGradient id="paint96_linear_1_34781" x1="178.825" y1="124.502" x2="171.898" y2="127.569" gradientUnits="userSpaceOnUse">
<stop offset="0.0001" stop-color="#9D50FF"/>
<stop offset="1" stop-color="#583CF0"/>
</linearGradient>
<linearGradient id="paint97_linear_1_34781" x1="4.37152" y1="140.923" x2="-2.55476" y2="143.99" gradientUnits="userSpaceOnUse">
<stop offset="0.0001" stop-color="#9D50FF"/>
<stop offset="1" stop-color="#583CF0"/>
</linearGradient>
<linearGradient id="paint98_linear_1_34781" x1="20.7934" y1="140.923" x2="13.8671" y2="143.99" gradientUnits="userSpaceOnUse">
<stop offset="0.0001" stop-color="#9D50FF"/>
<stop offset="1" stop-color="#583CF0"/>
</linearGradient>
<linearGradient id="paint99_linear_1_34781" x1="36.184" y1="140.923" x2="29.2577" y2="143.99" gradientUnits="userSpaceOnUse">
<stop offset="0.0001" stop-color="#9D50FF"/>
<stop offset="1" stop-color="#583CF0"/>
</linearGradient>
<linearGradient id="paint100_linear_1_34781" x1="51.5746" y1="140.923" x2="44.6484" y2="143.99" gradientUnits="userSpaceOnUse">
<stop offset="0.0001" stop-color="#9D50FF"/>
<stop offset="1" stop-color="#583CF0"/>
</linearGradient>
<linearGradient id="paint101_linear_1_34781" x1="67.9965" y1="140.923" x2="61.0702" y2="143.99" gradientUnits="userSpaceOnUse">
<stop offset="0.0001" stop-color="#9D50FF"/>
<stop offset="1" stop-color="#583CF0"/>
</linearGradient>
<linearGradient id="paint102_linear_1_34781" x1="83.3871" y1="140.923" x2="76.4609" y2="143.99" gradientUnits="userSpaceOnUse">
<stop offset="0.0001" stop-color="#9D50FF"/>
<stop offset="1" stop-color="#583CF0"/>
</linearGradient>
<linearGradient id="paint103_linear_1_34781" x1="99.809" y1="140.923" x2="92.8827" y2="143.99" gradientUnits="userSpaceOnUse">
<stop offset="0.0001" stop-color="#9D50FF"/>
<stop offset="1" stop-color="#583CF0"/>
</linearGradient>
<linearGradient id="paint104_linear_1_34781" x1="115.2" y1="140.923" x2="108.273" y2="143.99" gradientUnits="userSpaceOnUse">
<stop offset="0.0001" stop-color="#9D50FF"/>
<stop offset="1" stop-color="#583CF0"/>
</linearGradient>
<linearGradient id="paint105_linear_1_34781" x1="131.614" y1="140.923" x2="124.687" y2="143.99" gradientUnits="userSpaceOnUse">
<stop offset="0.0001" stop-color="#9D50FF"/>
<stop offset="1" stop-color="#583CF0"/>
</linearGradient>
<linearGradient id="paint106_linear_1_34781" x1="147.012" y1="140.923" x2="140.086" y2="143.99" gradientUnits="userSpaceOnUse">
<stop offset="0.0001" stop-color="#9D50FF"/>
<stop offset="1" stop-color="#583CF0"/>
</linearGradient>
<linearGradient id="paint107_linear_1_34781" x1="162.403" y1="140.923" x2="155.476" y2="143.99" gradientUnits="userSpaceOnUse">
<stop offset="0.0001" stop-color="#9D50FF"/>
<stop offset="1" stop-color="#583CF0"/>
</linearGradient>
<linearGradient id="paint108_linear_1_34781" x1="178.825" y1="140.923" x2="171.898" y2="143.99" gradientUnits="userSpaceOnUse">
<stop offset="0.0001" stop-color="#9D50FF"/>
<stop offset="1" stop-color="#583CF0"/>
</linearGradient>
<linearGradient id="paint109_linear_1_34781" x1="4.37152" y1="156.314" x2="-2.55476" y2="159.381" gradientUnits="userSpaceOnUse">
<stop offset="0.0001" stop-color="#9D50FF"/>
<stop offset="1" stop-color="#583CF0"/>
</linearGradient>
<linearGradient id="paint110_linear_1_34781" x1="20.7934" y1="156.314" x2="13.8671" y2="159.381" gradientUnits="userSpaceOnUse">
<stop offset="0.0001" stop-color="#9D50FF"/>
<stop offset="1" stop-color="#583CF0"/>
</linearGradient>
<linearGradient id="paint111_linear_1_34781" x1="36.184" y1="156.314" x2="29.2577" y2="159.381" gradientUnits="userSpaceOnUse">
<stop offset="0.0001" stop-color="#9D50FF"/>
<stop offset="1" stop-color="#583CF0"/>
</linearGradient>
<linearGradient id="paint112_linear_1_34781" x1="51.5746" y1="156.314" x2="44.6484" y2="159.381" gradientUnits="userSpaceOnUse">
<stop offset="0.0001" stop-color="#9D50FF"/>
<stop offset="1" stop-color="#583CF0"/>
</linearGradient>
<linearGradient id="paint113_linear_1_34781" x1="67.9965" y1="156.314" x2="61.0702" y2="159.381" gradientUnits="userSpaceOnUse">
<stop offset="0.0001" stop-color="#9D50FF"/>
<stop offset="1" stop-color="#583CF0"/>
</linearGradient>
<linearGradient id="paint114_linear_1_34781" x1="83.3871" y1="156.314" x2="76.4609" y2="159.381" gradientUnits="userSpaceOnUse">
<stop offset="0.0001" stop-color="#9D50FF"/>
<stop offset="1" stop-color="#583CF0"/>
</linearGradient>
<linearGradient id="paint115_linear_1_34781" x1="99.809" y1="156.314" x2="92.8827" y2="159.381" gradientUnits="userSpaceOnUse">
<stop offset="0.0001" stop-color="#9D50FF"/>
<stop offset="1" stop-color="#583CF0"/>
</linearGradient>
<linearGradient id="paint116_linear_1_34781" x1="115.2" y1="156.314" x2="108.273" y2="159.381" gradientUnits="userSpaceOnUse">
<stop offset="0.0001" stop-color="#9D50FF"/>
<stop offset="1" stop-color="#583CF0"/>
</linearGradient>
<linearGradient id="paint117_linear_1_34781" x1="131.614" y1="156.314" x2="124.687" y2="159.381" gradientUnits="userSpaceOnUse">
<stop offset="0.0001" stop-color="#9D50FF"/>
<stop offset="1" stop-color="#583CF0"/>
</linearGradient>
<linearGradient id="paint118_linear_1_34781" x1="147.012" y1="156.314" x2="140.086" y2="159.381" gradientUnits="userSpaceOnUse">
<stop offset="0.0001" stop-color="#9D50FF"/>
<stop offset="1" stop-color="#583CF0"/>
</linearGradient>
<linearGradient id="paint119_linear_1_34781" x1="162.403" y1="156.314" x2="155.476" y2="159.381" gradientUnits="userSpaceOnUse">
<stop offset="0.0001" stop-color="#9D50FF"/>
<stop offset="1" stop-color="#583CF0"/>
</linearGradient>
<linearGradient id="paint120_linear_1_34781" x1="178.825" y1="156.314" x2="171.898" y2="159.381" gradientUnits="userSpaceOnUse">
<stop offset="0.0001" stop-color="#9D50FF"/>
<stop offset="1" stop-color="#583CF0"/>
</linearGradient>
<linearGradient id="paint121_linear_1_34781" x1="4.37152" y1="172.736" x2="-2.55476" y2="175.803" gradientUnits="userSpaceOnUse">
<stop offset="0.0001" stop-color="#9D50FF"/>
<stop offset="1" stop-color="#583CF0"/>
</linearGradient>
<linearGradient id="paint122_linear_1_34781" x1="20.7934" y1="172.736" x2="13.8671" y2="175.803" gradientUnits="userSpaceOnUse">
<stop offset="0.0001" stop-color="#9D50FF"/>
<stop offset="1" stop-color="#583CF0"/>
</linearGradient>
<linearGradient id="paint123_linear_1_34781" x1="36.184" y1="172.736" x2="29.2577" y2="175.803" gradientUnits="userSpaceOnUse">
<stop offset="0.0001" stop-color="#9D50FF"/>
<stop offset="1" stop-color="#583CF0"/>
</linearGradient>
<linearGradient id="paint124_linear_1_34781" x1="51.5746" y1="172.736" x2="44.6484" y2="175.803" gradientUnits="userSpaceOnUse">
<stop offset="0.0001" stop-color="#9D50FF"/>
<stop offset="1" stop-color="#583CF0"/>
</linearGradient>
<linearGradient id="paint125_linear_1_34781" x1="67.9965" y1="172.736" x2="61.0702" y2="175.803" gradientUnits="userSpaceOnUse">
<stop offset="0.0001" stop-color="#9D50FF"/>
<stop offset="1" stop-color="#583CF0"/>
</linearGradient>
<linearGradient id="paint126_linear_1_34781" x1="83.3871" y1="172.736" x2="76.4609" y2="175.803" gradientUnits="userSpaceOnUse">
<stop offset="0.0001" stop-color="#9D50FF"/>
<stop offset="1" stop-color="#583CF0"/>
</linearGradient>
<linearGradient id="paint127_linear_1_34781" x1="99.809" y1="172.736" x2="92.8827" y2="175.803" gradientUnits="userSpaceOnUse">
<stop offset="0.0001" stop-color="#9D50FF"/>
<stop offset="1" stop-color="#583CF0"/>
</linearGradient>
<linearGradient id="paint128_linear_1_34781" x1="115.2" y1="172.736" x2="108.273" y2="175.803" gradientUnits="userSpaceOnUse">
<stop offset="0.0001" stop-color="#9D50FF"/>
<stop offset="1" stop-color="#583CF0"/>
</linearGradient>
<linearGradient id="paint129_linear_1_34781" x1="131.622" y1="172.736" x2="124.695" y2="175.803" gradientUnits="userSpaceOnUse">
<stop offset="0.0001" stop-color="#9D50FF"/>
<stop offset="1" stop-color="#583CF0"/>
</linearGradient>
<linearGradient id="paint130_linear_1_34781" x1="147.012" y1="172.736" x2="140.086" y2="175.803" gradientUnits="userSpaceOnUse">
<stop offset="0.0001" stop-color="#9D50FF"/>
<stop offset="1" stop-color="#583CF0"/>
</linearGradient>
<linearGradient id="paint131_linear_1_34781" x1="162.403" y1="172.736" x2="155.476" y2="175.803" gradientUnits="userSpaceOnUse">
<stop offset="0.0001" stop-color="#9D50FF"/>
<stop offset="1" stop-color="#583CF0"/>
</linearGradient>
<linearGradient id="paint132_linear_1_34781" x1="178.825" y1="172.736" x2="171.898" y2="175.803" gradientUnits="userSpaceOnUse">
<stop offset="0.0001" stop-color="#9D50FF"/>
<stop offset="1" stop-color="#583CF0"/>
</linearGradient>
<linearGradient id="paint133_linear_1_34781" x1="4.37152" y1="188.127" x2="-2.55476" y2="191.193" gradientUnits="userSpaceOnUse">
<stop offset="0.0001" stop-color="#9D50FF"/>
<stop offset="1" stop-color="#583CF0"/>
</linearGradient>
<linearGradient id="paint134_linear_1_34781" x1="20.7934" y1="188.127" x2="13.8671" y2="191.193" gradientUnits="userSpaceOnUse">
<stop offset="0.0001" stop-color="#9D50FF"/>
<stop offset="1" stop-color="#583CF0"/>
</linearGradient>
<linearGradient id="paint135_linear_1_34781" x1="36.184" y1="188.127" x2="29.2577" y2="191.193" gradientUnits="userSpaceOnUse">
<stop offset="0.0001" stop-color="#9D50FF"/>
<stop offset="1" stop-color="#583CF0"/>
</linearGradient>
<linearGradient id="paint136_linear_1_34781" x1="51.5746" y1="188.127" x2="44.6484" y2="191.193" gradientUnits="userSpaceOnUse">
<stop offset="0.0001" stop-color="#9D50FF"/>
<stop offset="1" stop-color="#583CF0"/>
</linearGradient>
<linearGradient id="paint137_linear_1_34781" x1="67.9965" y1="188.127" x2="61.0702" y2="191.193" gradientUnits="userSpaceOnUse">
<stop offset="0.0001" stop-color="#9D50FF"/>
<stop offset="1" stop-color="#583CF0"/>
</linearGradient>
<linearGradient id="paint138_linear_1_34781" x1="83.3871" y1="188.127" x2="76.4609" y2="191.193" gradientUnits="userSpaceOnUse">
<stop offset="0.0001" stop-color="#9D50FF"/>
<stop offset="1" stop-color="#583CF0"/>
</linearGradient>
<linearGradient id="paint139_linear_1_34781" x1="99.809" y1="188.127" x2="92.8827" y2="191.193" gradientUnits="userSpaceOnUse">
<stop offset="0.0001" stop-color="#9D50FF"/>
<stop offset="1" stop-color="#583CF0"/>
</linearGradient>
<linearGradient id="paint140_linear_1_34781" x1="115.2" y1="188.127" x2="108.273" y2="191.193" gradientUnits="userSpaceOnUse">
<stop offset="0.0001" stop-color="#9D50FF"/>
<stop offset="1" stop-color="#583CF0"/>
</linearGradient>
<linearGradient id="paint141_linear_1_34781" x1="131.614" y1="188.127" x2="124.687" y2="191.193" gradientUnits="userSpaceOnUse">
<stop offset="0.0001" stop-color="#9D50FF"/>
<stop offset="1" stop-color="#583CF0"/>
</linearGradient>
<linearGradient id="paint142_linear_1_34781" x1="147.012" y1="188.127" x2="140.086" y2="191.193" gradientUnits="userSpaceOnUse">
<stop offset="0.0001" stop-color="#9D50FF"/>
<stop offset="1" stop-color="#583CF0"/>
</linearGradient>
<linearGradient id="paint143_linear_1_34781" x1="162.403" y1="188.127" x2="155.476" y2="191.193" gradientUnits="userSpaceOnUse">
<stop offset="0.0001" stop-color="#9D50FF"/>
<stop offset="1" stop-color="#583CF0"/>
</linearGradient>
<linearGradient id="paint144_linear_1_34781" x1="178.825" y1="188.127" x2="171.898" y2="191.193" gradientUnits="userSpaceOnUse">
<stop offset="0.0001" stop-color="#9D50FF"/>
<stop offset="1" stop-color="#583CF0"/>
</linearGradient>
<linearGradient id="paint145_linear_1_34781" x1="20.7934" y1="-1.71687" x2="13.8671" y2="1.34976" gradientUnits="userSpaceOnUse">
<stop offset="0.0001" stop-color="#9D50FF"/>
<stop offset="1" stop-color="#583CF0"/>
</linearGradient>
<linearGradient id="paint146_linear_1_34781" x1="36.184" y1="-1.71687" x2="29.2577" y2="1.34976" gradientUnits="userSpaceOnUse">
<stop offset="0.0001" stop-color="#9D50FF"/>
<stop offset="1" stop-color="#583CF0"/>
</linearGradient>
<linearGradient id="paint147_linear_1_34781" x1="51.5746" y1="-1.71687" x2="44.6484" y2="1.34976" gradientUnits="userSpaceOnUse">
<stop offset="0.0001" stop-color="#9D50FF"/>
<stop offset="1" stop-color="#583CF0"/>
</linearGradient>
<linearGradient id="paint148_linear_1_34781" x1="67.9965" y1="-1.71687" x2="61.0702" y2="1.34976" gradientUnits="userSpaceOnUse">
<stop offset="0.0001" stop-color="#9D50FF"/>
<stop offset="1" stop-color="#583CF0"/>
</linearGradient>
<linearGradient id="paint149_linear_1_34781" x1="83.3871" y1="-1.71687" x2="76.4609" y2="1.34976" gradientUnits="userSpaceOnUse">
<stop offset="0.0001" stop-color="#9D50FF"/>
<stop offset="1" stop-color="#583CF0"/>
</linearGradient>
<linearGradient id="paint150_linear_1_34781" x1="99.809" y1="-1.71687" x2="92.8827" y2="1.34976" gradientUnits="userSpaceOnUse">
<stop offset="0.0001" stop-color="#9D50FF"/>
<stop offset="1" stop-color="#583CF0"/>
</linearGradient>
<linearGradient id="paint151_linear_1_34781" x1="115.2" y1="-1.71687" x2="108.273" y2="1.34976" gradientUnits="userSpaceOnUse">
<stop offset="0.0001" stop-color="#9D50FF"/>
<stop offset="1" stop-color="#583CF0"/>
</linearGradient>
<linearGradient id="paint152_linear_1_34781" x1="131.614" y1="-1.71687" x2="124.687" y2="1.34976" gradientUnits="userSpaceOnUse">
<stop offset="0.0001" stop-color="#9D50FF"/>
<stop offset="1" stop-color="#583CF0"/>
</linearGradient>
<linearGradient id="paint153_linear_1_34781" x1="147.012" y1="-1.71687" x2="140.086" y2="1.34976" gradientUnits="userSpaceOnUse">
<stop offset="0.0001" stop-color="#9D50FF"/>
<stop offset="1" stop-color="#583CF0"/>
</linearGradient>
<linearGradient id="paint154_linear_1_34781" x1="162.403" y1="-1.71687" x2="155.476" y2="1.34976" gradientUnits="userSpaceOnUse">
<stop offset="0.0001" stop-color="#9D50FF"/>
<stop offset="1" stop-color="#583CF0"/>
</linearGradient>
<linearGradient id="paint155_linear_1_34781" x1="178.825" y1="-1.71687" x2="171.898" y2="1.34976" gradientUnits="userSpaceOnUse">
<stop offset="0.0001" stop-color="#9D50FF"/>
<stop offset="1" stop-color="#583CF0"/>
</linearGradient>
<clipPath id="clip0_1_34781">
<rect width="180" height="196" rx="90" fill="white"/>
</clipPath>
</defs>
</svg>
