<svg width="48" height="48" viewBox="0 0 48 48" fill="none" xmlns="http://www.w3.org/2000/svg">
<rect width="48" height="48" rx="24" fill="url(#paint0_linear_1_35113)" fill-opacity="0.04"/>
<path d="M24 14C22.0222 14 20.0888 14.5865 18.4443 15.6853C16.7998 16.7841 15.5181 18.3459 14.7612 20.1732C14.0043 22.0004 13.8063 24.0111 14.1922 25.9509C14.578 27.8907 15.5304 29.6725 16.9289 31.0711C18.3275 32.4696 20.1093 33.422 22.0491 33.8079C23.9889 34.1937 25.9996 33.9957 27.8268 33.2388C29.6541 32.4819 31.2159 31.2002 32.3147 29.5557C33.4135 27.9112 34 25.9778 34 24C34 22.6868 33.7413 21.3864 33.2388 20.1732C32.7363 18.9599 31.9997 17.8575 31.0711 16.9289C30.1425 16.0003 29.0401 15.2638 27.8268 14.7612C26.6136 14.2587 25.3132 14 24 14V14ZM24 32C22.4178 32 20.871 31.5308 19.5554 30.6518C18.2398 29.7727 17.2145 28.5233 16.609 27.0615C16.0035 25.5997 15.845 23.9911 16.1537 22.4393C16.4624 20.8874 17.2243 19.462 18.3432 18.3431C19.462 17.2243 20.8874 16.4624 22.4393 16.1537C23.9911 15.845 25.5997 16.0035 27.0615 16.609C28.5233 17.2145 29.7727 18.2398 30.6518 19.5554C31.5308 20.871 32 22.4177 32 24C32 26.1217 31.1572 28.1566 29.6569 29.6569C28.1566 31.1571 26.1217 32 24 32V32ZM24 18C23.7348 18 23.4804 18.1054 23.2929 18.2929C23.1054 18.4804 23 18.7348 23 19V23.42L20.9 24.63C20.7074 24.7392 20.5564 24.9092 20.4708 25.1134C20.3852 25.3176 20.3698 25.5444 20.4269 25.7583C20.4841 25.9722 20.6107 26.1611 20.7868 26.2953C20.9629 26.4296 21.1786 26.5015 21.4 26.5C21.5752 26.5012 21.7476 26.4564 21.9 26.37L24.5 24.87L24.59 24.78L24.75 24.65C24.7891 24.6005 24.8226 24.5468 24.85 24.49C24.8826 24.4363 24.9094 24.3793 24.93 24.32C24.9572 24.2564 24.9741 24.1889 24.98 24.12C24.98 24.12 25 24 25 24V19C25 18.7348 24.8946 18.4804 24.7071 18.2929C24.5196 18.1054 24.2652 18 24 18Z" fill="#9D50FF"/>
<defs>
<linearGradient id="paint0_linear_1_35113" x1="34.08" y1="-13.3846" x2="-19.9167" y2="10.5226" gradientUnits="userSpaceOnUse">
<stop offset="0.0001" stop-color="#9D50FF"/>
<stop offset="1" stop-color="#583CF0"/>
</linearGradient>
</defs>
</svg>
