<svg width="156" height="24" viewBox="0 0 156 24" fill="none" xmlns="http://www.w3.org/2000/svg">
<path d="M6.67783 0.487901C6.66677 0.487901 6.65572 0.476751 6.64466 0.476751C4.35612 -0.604864 1.72485 0.209135 0.586111 2.36121C-0.618965 4.6471 0.110715 7.37902 2.2887 8.70595C2.73093 8.97357 4.26767 9.83217 6.00343 10.78C6.3351 10.9584 6.72205 11.3041 6.72205 11.8727C6.72205 12.3188 6.57833 12.6979 5.84865 13.0993C3.81439 14.2367 2.60931 14.9169 2.2887 15.1064C2.27764 15.1176 2.25553 15.1287 2.24447 15.1399C2.22236 15.151 2.21131 15.1622 2.18919 15.1733C2.18919 15.1733 2.1892 15.1733 2.17814 15.1733C2.15603 15.1845 2.14497 15.1956 2.13392 15.2068C0.398164 16.3776 -0.696354 18.7862 0.508722 21.3062C1.01729 22.3767 1.96808 23.1795 3.1621 23.5698C4.36718 23.9601 5.64964 23.8709 6.65572 23.3245C6.88789 23.2018 7.21956 23.0234 7.60651 22.8116C9.07692 22.0199 11.5424 20.6818 13.6208 19.4998C14.9365 18.7527 15.9315 18.1729 16.5838 17.7603C18.817 16.3553 20 14.3259 20 11.895C20 8.60559 17.5456 6.63192 16.4953 5.94058C14.7596 4.79206 8.2588 1.31305 6.77733 0.543654C6.77733 0.543654 6.77733 0.543654 6.76627 0.543654C6.74416 0.532503 6.71099 0.521354 6.68888 0.510203C6.68888 0.487902 6.68888 0.487901 6.67783 0.487901ZM6.67783 14.5935C7.76129 13.9914 8.33619 13.1551 8.41358 12.1069C9.46387 12.6867 10.3152 13.1662 10.5694 13.3223C10.9232 13.5342 11.1222 13.813 11.1222 14.0694C11.1222 14.337 10.9011 14.627 10.5142 14.8611C9.11009 15.7197 5.36219 17.8272 4.40034 18.3178C4.13501 18.4516 3.88072 18.5185 3.64855 18.5185C3.27266 18.5185 2.95204 18.3401 2.76409 17.9945C2.73093 17.9387 2.69776 17.8718 2.67565 17.7937C2.66459 17.7714 2.66459 17.7491 2.65354 17.7268L2.65354 17.7157C2.64248 17.6934 2.64248 17.6711 2.63142 17.6488L2.63142 17.6376C2.63142 17.6153 2.62037 17.593 2.62037 17.5707L2.62037 17.5596C2.62037 17.5373 2.62037 17.515 2.62037 17.4927L2.62037 17.4815C2.62037 17.3589 2.64248 17.2362 2.69776 17.1136C2.70881 17.0801 2.73093 17.0578 2.75304 17.0244C2.78621 16.9686 2.84148 16.9017 2.89676 16.8459C2.92993 16.8125 2.9631 16.7902 2.99626 16.7567C2.99626 16.7567 3.00732 16.7567 3.00732 16.7456C3.04049 16.7121 3.08471 16.6898 3.11788 16.6675C3.11788 16.6675 3.12893 16.6675 3.12893 16.6564C3.15104 16.6452 3.1621 16.6341 3.18421 16.6229C3.39427 16.4445 4.17923 15.9873 6.67783 14.5935ZM5.8597 21.808C5.26269 22.1314 4.44457 22.176 3.69278 21.9306C2.94099 21.6853 2.34398 21.1947 2.04547 20.548C1.85752 20.1465 1.74697 19.7563 1.7138 19.3883C1.75802 19.444 1.8133 19.4887 1.86858 19.5333C1.87963 19.5333 1.87963 19.5444 1.89069 19.5444C1.94597 19.589 1.99019 19.6336 2.04547 19.6782C2.05653 19.6894 2.05653 19.6894 2.06758 19.7005C2.12286 19.7451 2.17814 19.7786 2.23342 19.812C2.2887 19.8455 2.34398 19.8789 2.41031 19.9124C2.42137 19.9124 2.42137 19.9235 2.43242 19.9235C2.4877 19.957 2.55403 19.9793 2.60931 20.0016C2.62037 20.0016 2.63142 20.0127 2.64248 20.0127C2.70882 20.035 2.76409 20.0573 2.83043 20.0796C2.84148 20.0796 2.84148 20.0796 2.85254 20.0796C2.91887 20.1019 2.97415 20.1131 3.04049 20.1242C3.05154 20.1242 3.05154 20.1242 3.0626 20.1354C3.12893 20.1465 3.19527 20.1577 3.2616 20.1688C3.27266 20.1688 3.28371 20.1688 3.30583 20.1688C3.37216 20.18 3.43849 20.18 3.50483 20.1911C3.51588 20.1911 3.52694 20.1911 3.538 20.1911C3.60433 20.1911 3.67067 20.1911 3.72594 20.1911C3.737 20.1911 3.737 20.1911 3.74806 20.1911C3.81439 20.1911 3.88072 20.18 3.94706 20.18C3.95811 20.18 3.98023 20.18 3.99128 20.18C4.05762 20.1688 4.12395 20.1577 4.19029 20.1465C4.20134 20.1465 4.2124 20.1465 4.23451 20.1354C4.30084 20.1242 4.36718 20.1131 4.43351 20.0908C4.44457 20.0908 4.44457 20.0908 4.45562 20.0908C4.52196 20.0685 4.59935 20.0462 4.66568 20.0239C4.67674 20.0239 4.69885 20.0127 4.7099 20.0127C4.77624 19.9904 4.84257 19.9681 4.90891 19.9347C4.91996 19.9235 4.94208 19.9235 4.95313 19.9124C5.01947 19.8789 5.0858 19.8566 5.15213 19.8232C5.15213 19.8232 5.16319 19.8232 5.16319 19.812C6.1361 19.3102 9.96138 17.1582 11.3876 16.2884C12.2941 15.7309 12.8138 14.9169 12.8138 14.036C12.8138 13.1662 12.3163 12.3634 11.4429 11.8281C11.0227 11.5717 9.27593 10.6127 7.42962 9.58685C5.5612 8.56099 3.62644 7.49052 3.1621 7.21176C1.74696 6.34201 1.29368 4.6248 2.07864 3.13061C2.2887 2.74034 2.57615 2.41697 2.91887 2.1828L2.91887 2.19395C2.89676 2.24971 2.88571 2.31661 2.87465 2.37237C2.87465 2.38352 2.86359 2.39467 2.86359 2.41697C2.85254 2.47272 2.84148 2.53962 2.83043 2.60653C2.83043 2.61768 2.83043 2.63998 2.83043 2.65113C2.81937 2.71804 2.81937 2.77379 2.81937 2.84069C2.81937 2.85184 2.81937 2.87415 2.81937 2.8853C2.81937 2.94105 2.81937 3.00795 2.81937 3.06371C2.81937 3.07486 2.81937 3.08601 2.81937 3.08601C2.81937 3.14176 2.83043 3.20867 2.83043 3.26442C2.83043 3.27557 2.83043 3.29787 2.83043 3.30902C2.84148 3.36478 2.85254 3.43168 2.86359 3.48743C2.86359 3.49858 2.87465 3.52088 2.87465 3.53204C2.88571 3.58779 2.90782 3.65469 2.91887 3.71045C2.91887 3.7216 2.92993 3.73275 2.92993 3.75505C2.95204 3.8108 2.9631 3.86656 2.98521 3.93346C2.98521 3.94461 2.99626 3.94461 2.99626 3.95576C3.01838 4.01151 3.04049 4.06727 3.07365 4.12302C3.08471 4.13417 3.08471 4.14532 3.09577 4.15647C3.11788 4.21223 3.15104 4.26798 3.18421 4.32373C3.19527 4.33488 3.19527 4.34603 3.20632 4.36834C3.23949 4.42409 3.27266 4.47984 3.30582 4.52445C3.31688 4.5356 3.31688 4.54675 3.32794 4.5579C3.3611 4.61365 3.40533 4.65825 3.43849 4.71401L3.44955 4.72516C3.49377 4.78091 3.538 4.82551 3.58222 4.87012C3.59327 4.88127 3.60433 4.89242 3.60433 4.90357C3.64855 4.94817 3.69278 4.99277 3.74805 5.03738C3.75911 5.04853 3.77017 5.05968 3.78122 5.07083C3.82544 5.11543 3.88072 5.16003 3.936 5.19349C3.94706 5.20464 3.95811 5.20464 3.96917 5.21579C4.02445 5.26039 4.07973 5.29384 4.13501 5.33844C4.13501 5.33844 4.13501 5.33844 4.14606 5.33844C4.55512 5.59491 5.69387 6.2082 7.13111 6.97759C9.12115 8.04806 11.6087 9.37499 12.9464 10.2224C14.5163 11.2037 15.1797 12.3299 15.1797 13.9802C15.1797 14.1029 15.1686 14.2255 15.1576 14.337C15.0249 15.7643 14.0962 17.2028 12.8027 17.9499C12.8027 17.9499 12.7917 17.9499 12.7917 17.961C10.7353 19.1764 8.28091 20.5034 6.82155 21.2951C6.42355 21.5069 6.09187 21.6853 5.8597 21.808ZM15.5666 7.36787C16.3958 7.91425 18.3085 9.44189 18.3085 11.895C18.3085 13.3781 17.7667 14.5935 16.6501 15.5859C16.7054 15.3964 16.7496 15.2068 16.7828 15.0061C16.7828 14.9949 16.7828 14.9838 16.7938 14.9726C16.8049 14.9169 16.8159 14.8723 16.8159 14.8165C16.8159 14.7942 16.827 14.7608 16.827 14.7385C16.827 14.6939 16.8381 14.6604 16.8381 14.6158C16.8381 14.5712 16.8491 14.5266 16.8491 14.482C16.8491 14.4597 16.8491 14.4374 16.8602 14.4151C16.8712 14.2813 16.8712 14.1475 16.8712 14.0137C16.8712 11.7835 15.8762 10.0775 13.8309 8.79515C12.4379 7.9254 9.92822 6.57617 7.91607 5.49455C6.62255 4.80321 5.40642 4.14532 5.05263 3.92231C4.49985 3.56549 4.38929 2.91875 4.6104 2.49502C4.64357 2.42812 4.68779 2.36121 4.73202 2.30546L4.74307 2.29431C4.76518 2.27201 4.78729 2.24971 4.80941 2.22741C4.82046 2.21626 4.82046 2.21626 4.83152 2.20511C4.85363 2.1828 4.86468 2.17165 4.8868 2.14935C4.89785 2.1382 4.90891 2.1382 4.90891 2.12705C4.93102 2.1159 4.94208 2.0936 4.96419 2.08245C4.97524 2.0713 4.9863 2.0713 4.99735 2.06015C5.01947 2.049 5.03052 2.03784 5.05263 2.02669C5.06369 2.01554 5.07474 2.01554 5.0858 2.01554C5.10791 2.00439 5.11897 1.99324 5.14108 1.99324C5.15213 1.99324 5.16319 1.98209 5.17425 1.98209C5.19636 1.97094 5.20741 1.97094 5.22952 1.95979C5.24058 1.95979 5.25164 1.94864 5.27375 1.94864C5.29586 1.94864 5.30691 1.93749 5.32903 1.93749C5.34008 1.93749 5.36219 1.93749 5.37325 1.92634C5.39536 1.92634 5.40642 1.92634 5.42853 1.91519C5.43958 1.91519 5.46169 1.91519 5.47275 1.91519C5.49486 1.91519 5.50592 1.91519 5.52803 1.91519C5.53909 1.91519 5.5612 1.91519 5.57225 1.91519C5.59436 1.91519 5.60542 1.91519 5.62753 1.91519C5.63859 1.91519 5.6607 1.91519 5.67175 1.91519C5.68281 1.91519 5.70492 1.91519 5.71598 1.92634C5.72703 1.92634 5.74914 1.93749 5.7602 1.93749C5.77126 1.93749 5.79337 1.94864 5.80442 1.94864C5.81548 1.94864 5.83759 1.95979 5.84865 1.95979C5.8597 1.95979 5.88181 1.97094 5.89287 1.97094C5.90392 1.97094 5.92604 1.98209 5.93709 1.99324C5.9592 2.00439 5.97026 2.00439 5.99237 2.01554C5.99237 2.01554 6.00343 2.01554 6.00343 2.02669C7.44067 2.79609 13.9083 6.2751 15.5666 7.36787Z" fill="#040921" fill-opacity="0.16"/>
<path d="M55.3217 8.58261C55.3217 8.57156 55.3328 8.5605 55.3328 8.54945C56.4144 6.26091 55.6004 3.62964 53.4484 2.4909C51.1625 1.28582 48.4306 2.0155 47.1036 4.19348C46.836 4.63571 45.9774 6.17246 45.0296 7.90821C44.8512 8.23988 44.5055 8.62684 43.9368 8.62684C43.4908 8.62684 43.1117 8.48311 42.7103 7.75343C41.5729 5.71918 40.8927 4.5141 40.7031 4.19348C40.692 4.18243 40.6808 4.16031 40.6697 4.14926C40.6585 4.12715 40.6474 4.11609 40.6362 4.09398C40.6362 4.09398 40.6362 4.09398 40.6362 4.08292C40.6251 4.06081 40.6139 4.04976 40.6028 4.0387C39.432 2.30295 37.0234 1.20843 34.5034 2.41351C33.4329 2.92207 32.63 3.87287 32.2398 5.06689C31.8495 6.27196 31.9387 7.55443 32.4851 8.5605C32.6077 8.79267 32.7862 9.12434 32.998 9.5113C33.7897 10.9817 35.1278 13.4471 36.3098 15.5256C37.0569 16.8413 37.6367 17.8363 38.0493 18.4886C39.4543 20.7218 41.4837 21.9048 43.9145 21.9048C47.204 21.9048 49.1776 19.4504 49.869 18.4001C51.0175 16.6644 54.4965 10.1636 55.2659 8.68211C55.2659 8.68211 55.2659 8.68211 55.2659 8.67106C55.2771 8.64895 55.2882 8.61578 55.2994 8.59367C55.3217 8.59367 55.3217 8.59367 55.3217 8.58261ZM41.2161 8.58261C41.8182 9.66608 42.6545 10.241 43.7027 10.3184C43.1228 11.3687 42.6434 12.22 42.4872 12.4742C42.2754 12.828 41.9966 13.027 41.7401 13.027C41.4725 13.027 41.1826 12.8059 40.9485 12.419C40.0898 11.0149 37.9824 7.26698 37.4917 6.30513C37.3579 6.03979 37.291 5.78551 37.291 5.55334C37.291 5.17744 37.4694 4.85683 37.8151 4.66888C37.8709 4.63571 37.9378 4.60254 38.0158 4.58043C38.0381 4.56938 38.0604 4.56938 38.0827 4.55832H38.0939C38.1162 4.54727 38.1385 4.54727 38.1608 4.53621H38.1719C38.1942 4.53621 38.2165 4.52515 38.2388 4.52515H38.25C38.2723 4.52515 38.2946 4.52515 38.3169 4.52515H38.328C38.4507 4.52515 38.5734 4.54727 38.696 4.60254C38.7295 4.6136 38.7518 4.63571 38.7852 4.65782C38.841 4.69099 38.9079 4.74627 38.9636 4.80155C38.9971 4.83472 39.0194 4.86788 39.0528 4.90105C39.0528 4.90105 39.0528 4.91211 39.064 4.91211C39.0974 4.94527 39.1197 4.9895 39.142 5.02266C39.142 5.02266 39.142 5.03372 39.1532 5.03372C39.1643 5.05583 39.1755 5.06689 39.1866 5.089C39.3651 5.29906 39.8222 6.08401 41.2161 8.58261ZM34.0016 7.76449C33.6782 7.16748 33.6336 6.34935 33.8789 5.59756C34.1242 4.84577 34.6149 4.24876 35.2616 3.95026C35.663 3.76231 36.0533 3.65175 36.4213 3.61858C36.3655 3.66281 36.3209 3.71809 36.2763 3.77336C36.2763 3.78442 36.2652 3.78442 36.2652 3.79548C36.2206 3.85075 36.176 3.89498 36.1314 3.95026C36.1202 3.96131 36.1202 3.96131 36.1091 3.97237C36.0645 4.02765 36.031 4.08292 35.9976 4.1382C35.9641 4.19348 35.9306 4.24876 35.8972 4.3151C35.8972 4.32615 35.886 4.32615 35.886 4.33721C35.8526 4.39249 35.8303 4.45882 35.808 4.5141C35.808 4.52515 35.7968 4.53621 35.7968 4.54727C35.7745 4.6136 35.7522 4.66888 35.7299 4.73521C35.7299 4.74627 35.7299 4.74627 35.7299 4.75733C35.7076 4.82366 35.6965 4.87894 35.6853 4.94527C35.6853 4.95633 35.6853 4.95633 35.6742 4.96738C35.663 5.03372 35.6519 5.10005 35.6407 5.16639C35.6407 5.17744 35.6407 5.1885 35.6407 5.21061C35.6296 5.27695 35.6296 5.34328 35.6184 5.40961C35.6184 5.42067 35.6184 5.43173 35.6184 5.44278C35.6184 5.50912 35.6184 5.57545 35.6184 5.63073C35.6184 5.64179 35.6184 5.64179 35.6184 5.65284C35.6184 5.71918 35.6296 5.78551 35.6296 5.85184C35.6296 5.8629 35.6296 5.88501 35.6296 5.89607C35.6407 5.9624 35.6519 6.02874 35.663 6.09507C35.663 6.10613 35.663 6.11718 35.6742 6.13929C35.6853 6.20563 35.6965 6.27196 35.7188 6.3383C35.7188 6.34935 35.7188 6.34935 35.7188 6.36041C35.7411 6.42674 35.7634 6.50413 35.7857 6.57047C35.7857 6.58152 35.7968 6.60363 35.7968 6.61469C35.8191 6.68102 35.8414 6.74736 35.8749 6.81369C35.886 6.82475 35.886 6.84686 35.8972 6.85792C35.9306 6.92425 35.9529 6.99059 35.9864 7.05692C35.9864 7.05692 35.9864 7.06798 35.9976 7.06798C36.4993 8.04088 38.6514 11.8662 39.5212 13.2924C40.0787 14.1989 40.8927 14.7186 41.7736 14.7186C42.6434 14.7186 43.4462 14.221 43.9814 13.3476C44.2379 12.9275 45.1969 11.1807 46.2227 9.3344C47.2486 7.46598 48.319 5.53123 48.5978 5.06689C49.4676 3.65175 51.1848 3.19847 52.679 3.98342C53.0692 4.19348 53.3926 4.48093 53.6268 4.82366H53.6156C53.5599 4.80155 53.493 4.79049 53.4372 4.77944C53.4261 4.77944 53.4149 4.76838 53.3926 4.76838C53.3369 4.75733 53.2699 4.74627 53.203 4.73521C53.1919 4.73521 53.1696 4.73521 53.1584 4.73521C53.0915 4.72416 53.0358 4.72416 52.9689 4.72416C52.9577 4.72416 52.9354 4.72416 52.9243 4.72416C52.8685 4.72416 52.8016 4.72416 52.7459 4.72416C52.7347 4.72416 52.7236 4.72416 52.7236 4.72416C52.6678 4.72416 52.6009 4.73521 52.5452 4.73521C52.534 4.73521 52.5117 4.73521 52.5005 4.73521C52.4448 4.74627 52.3779 4.75733 52.3221 4.76838C52.311 4.76838 52.2887 4.77944 52.2775 4.77944C52.2218 4.79049 52.1549 4.8126 52.0991 4.82366C52.088 4.82366 52.0768 4.83472 52.0545 4.83472C51.9988 4.85683 51.943 4.86788 51.8761 4.88999C51.865 4.88999 51.865 4.90105 51.8538 4.90105C51.7981 4.92316 51.7423 4.94527 51.6866 4.97844C51.6754 4.9895 51.6642 4.9895 51.6531 5.00055C51.5973 5.02266 51.5416 5.05583 51.4858 5.089C51.4747 5.10005 51.4635 5.10005 51.4412 5.11111C51.3855 5.14428 51.3297 5.17744 51.2851 5.21061C51.274 5.22167 51.2628 5.22167 51.2517 5.23272C51.1959 5.26589 51.1513 5.31011 51.0956 5.34328L51.0844 5.35434C51.0287 5.39856 50.9841 5.44278 50.9395 5.487C50.9283 5.49806 50.9172 5.50912 50.906 5.50912C50.8614 5.55334 50.8168 5.59756 50.7722 5.65284C50.761 5.6639 50.7499 5.67495 50.7387 5.68601C50.6941 5.73023 50.6495 5.78551 50.6161 5.84079C50.6049 5.85184 50.6049 5.8629 50.5938 5.87396C50.5492 5.92923 50.5157 5.98451 50.4711 6.03979C50.4711 6.03979 50.4711 6.03979 50.4711 6.05085C50.2147 6.45991 49.6014 7.59865 48.832 9.0359C47.7615 11.0259 46.4346 13.5135 45.5871 14.8512C44.6059 16.4211 43.4797 17.0845 41.8294 17.0845C41.7067 17.0845 41.584 17.0734 41.4725 17.0624C40.0452 16.9297 38.6068 16.001 37.8597 14.7075C37.8597 14.7075 37.8597 14.6964 37.8486 14.6964C36.6331 12.6401 35.3062 10.1857 34.5145 8.72634C34.3026 8.32833 34.1242 7.99666 34.0016 7.76449ZM48.4417 17.4714C47.8953 18.3006 46.3677 20.2133 43.9145 20.2133C42.4315 20.2133 41.2161 19.6715 40.2237 18.5549C40.4132 18.6102 40.6028 18.6544 40.8035 18.6876C40.8146 18.6876 40.8258 18.6876 40.8369 18.6986C40.8927 18.7097 40.9373 18.7207 40.9931 18.7207C41.0154 18.7207 41.0488 18.7318 41.0711 18.7318C41.1157 18.7318 41.1492 18.7428 41.1938 18.7428C41.2384 18.7428 41.283 18.7539 41.3276 18.7539C41.3499 18.7539 41.3722 18.7539 41.3945 18.765C41.5283 18.776 41.6621 18.776 41.7959 18.776C44.026 18.776 45.7321 17.781 47.0144 15.7357C47.8842 14.3427 49.2334 11.833 50.315 9.82086C51.0064 8.52733 51.6642 7.3112 51.8873 6.95742C52.2441 6.40463 52.8908 6.29407 53.3145 6.51519C53.3815 6.54836 53.4484 6.59258 53.5041 6.6368L53.5153 6.64786C53.5376 6.66997 53.5599 6.69208 53.5822 6.71419C53.5933 6.72525 53.5933 6.72525 53.6045 6.7363C53.6268 6.75842 53.6379 6.76947 53.6602 6.79158C53.6714 6.80264 53.6714 6.81369 53.6825 6.81369C53.6937 6.83581 53.716 6.84686 53.7271 6.86897C53.7383 6.88003 53.7383 6.89108 53.7494 6.90214C53.7606 6.92425 53.7717 6.93531 53.7829 6.95742C53.794 6.96847 53.794 6.97953 53.794 6.99059C53.8052 7.0127 53.8163 7.02375 53.8163 7.04586C53.8163 7.05692 53.8275 7.06798 53.8275 7.07903C53.8386 7.10114 53.8386 7.1122 53.8498 7.13431C53.8498 7.14537 53.8609 7.15642 53.8609 7.17853C53.8609 7.20064 53.8721 7.2117 53.8721 7.23381C53.8721 7.24487 53.8721 7.26698 53.8832 7.27803C53.8832 7.30015 53.8832 7.3112 53.8944 7.33331C53.8944 7.34437 53.8944 7.36648 53.8944 7.37754C53.8944 7.39965 53.8944 7.4107 53.8944 7.43282C53.8944 7.44387 53.8944 7.46598 53.8944 7.47704C53.8944 7.49915 53.8944 7.51021 53.8944 7.53232C53.8944 7.54337 53.8944 7.56548 53.8944 7.57654C53.8944 7.5876 53.8944 7.60971 53.8832 7.62076C53.8832 7.63182 53.8721 7.65393 53.8721 7.66499C53.8721 7.67604 53.8609 7.69815 53.8609 7.70921C53.8609 7.72026 53.8498 7.74238 53.8498 7.75343C53.8498 7.76449 53.8386 7.7866 53.8386 7.79766C53.8386 7.80871 53.8275 7.83082 53.8163 7.84188C53.8052 7.86399 53.8052 7.87505 53.794 7.89716C53.794 7.89716 53.794 7.90821 53.7829 7.90821C53.0135 9.34546 49.5345 15.8131 48.4417 17.4714Z" fill="#040921" fill-opacity="0.16"/>
<path d="M81.1347 23.3217C81.1457 23.3217 81.1568 23.3328 81.1678 23.3328C83.4564 24.4144 86.0876 23.6004 87.2264 21.4484C88.4315 19.1625 87.7018 16.4306 85.5238 15.1036C85.0816 14.836 83.5448 13.9774 81.8091 13.0296C81.4774 12.8512 81.0904 12.5055 81.0904 11.9368C81.0904 11.4908 81.2342 11.1117 81.9639 10.7103C83.9981 9.57289 85.2032 8.8927 85.5238 8.70314C85.5349 8.69198 85.557 8.68083 85.568 8.66968C85.5901 8.65853 85.6012 8.64738 85.6233 8.63623C85.6233 8.63623 85.6233 8.63623 85.6344 8.63623C85.6565 8.62508 85.6675 8.61393 85.6786 8.60278C87.4143 7.43196 88.5089 5.02341 87.3038 2.50336C86.7952 1.4329 85.8444 0.630047 84.6504 0.239773C83.4453 -0.1505 82.1629 -0.061295 81.1568 0.485088C80.9246 0.607745 80.5929 0.786156 80.206 0.998019C78.7356 1.78972 76.2701 3.1278 74.1917 4.30977C72.876 5.05686 71.881 5.6367 71.2287 6.04927C68.9955 7.45426 67.8125 9.48368 67.8125 11.9145C67.8125 15.204 70.2669 17.1776 71.3172 17.869C73.0529 19.0175 79.5537 22.4965 81.0352 23.2659C81.0352 23.2659 81.0352 23.2659 81.0462 23.2659C81.0683 23.2771 81.1015 23.2882 81.1236 23.2994C81.1236 23.3217 81.1236 23.3217 81.1347 23.3217ZM81.1347 9.21607C80.0512 9.8182 79.4763 10.6545 79.3989 11.7027C78.3486 11.1228 77.4973 10.6434 77.2431 10.4872C76.8893 10.2754 76.6903 9.99661 76.6903 9.74015C76.6903 9.47253 76.9114 9.18261 77.2983 8.94845C78.7024 8.08985 82.4503 5.98237 83.4122 5.49174C83.6775 5.35793 83.9318 5.29103 84.1639 5.29103C84.5398 5.29103 84.8605 5.46944 85.0484 5.81511C85.0816 5.87086 85.1147 5.93777 85.1369 6.01582C85.1479 6.03812 85.1479 6.06043 85.159 6.08273L85.159 6.09388C85.17 6.11618 85.17 6.13848 85.1811 6.16078L85.1811 6.17193C85.1811 6.19423 85.1921 6.21653 85.1921 6.23884L85.1921 6.24999C85.1921 6.27229 85.1921 6.29459 85.1921 6.31689L85.1921 6.32804C85.1921 6.4507 85.17 6.57336 85.1147 6.69601C85.1037 6.72947 85.0816 6.75177 85.0595 6.78522C85.0263 6.84097 84.971 6.90788 84.9157 6.96363C84.8826 6.99708 84.8494 7.01938 84.8162 7.05284C84.8162 7.05284 84.8052 7.05283 84.8052 7.06399C84.772 7.09744 84.7278 7.11974 84.6946 7.14204C84.6946 7.14204 84.6836 7.14204 84.6836 7.15319C84.6615 7.16434 84.6504 7.17549 84.6283 7.18664C84.4182 7.36505 83.6333 7.82223 81.1347 9.21607ZM81.9528 2.00158C82.5498 1.67821 83.3679 1.63361 84.1197 1.87892C84.8715 2.12424 85.4685 2.61487 85.767 3.26161C85.955 3.66303 86.0655 4.0533 86.0987 4.42128C86.0545 4.36552 85.9992 4.32092 85.9439 4.27632C85.9329 4.27632 85.9329 4.26517 85.9218 4.26517C85.8665 4.22056 85.8223 4.17596 85.767 4.13136C85.756 4.12021 85.756 4.12021 85.7449 4.10906C85.6896 4.06445 85.6344 4.031 85.5791 3.99755C85.5238 3.9641 85.4685 3.93065 85.4022 3.89719C85.3911 3.89719 85.3911 3.88604 85.3801 3.88604C85.3248 3.85259 85.2585 3.83029 85.2032 3.80799C85.1921 3.80799 85.1811 3.79684 85.17 3.79684C85.1037 3.77454 85.0484 3.75224 84.9821 3.72993C84.971 3.72993 84.971 3.72993 84.96 3.72993C84.8936 3.70763 84.8383 3.69648 84.772 3.68533C84.761 3.68533 84.761 3.68533 84.7499 3.67418C84.6836 3.66303 84.6172 3.65188 84.5509 3.64073C84.5398 3.64073 84.5288 3.64073 84.5067 3.64073C84.4403 3.62958 84.374 3.62958 84.3077 3.61843C84.2966 3.61843 84.2856 3.61843 84.2745 3.61843C84.2082 3.61843 84.1418 3.61843 84.0866 3.61843C84.0755 3.61843 84.0755 3.61843 84.0644 3.61843C83.9981 3.61843 83.9318 3.62958 83.8654 3.62958C83.8544 3.62958 83.8323 3.62958 83.8212 3.62958C83.7549 3.64073 83.6885 3.65188 83.6222 3.66303C83.6112 3.66303 83.6001 3.66303 83.578 3.67418C83.5117 3.68533 83.4453 3.69648 83.379 3.71878C83.3679 3.71878 83.3679 3.71878 83.3569 3.71878C83.2905 3.74108 83.2132 3.76339 83.1468 3.78569C83.1358 3.78569 83.1137 3.79684 83.1026 3.79684C83.0363 3.81914 82.9699 3.84144 82.9036 3.87489C82.8925 3.88604 82.8704 3.88604 82.8594 3.89719C82.793 3.93065 82.7267 3.95295 82.6604 3.9864C82.6604 3.9864 82.6493 3.9864 82.6493 3.99755C81.6764 4.49933 77.8511 6.65141 76.4249 7.52116C75.5184 8.0787 74.9987 8.8927 74.9987 9.7736C74.9987 10.6434 75.4962 11.4462 76.3696 11.9814C76.7898 12.2379 78.5366 13.1969 80.3829 14.2227C82.2513 15.2486 84.1861 16.319 84.6504 16.5978C86.0655 17.4676 86.5188 19.1848 85.7339 20.679C85.5238 21.0692 85.2364 21.3926 84.8936 21.6268L84.8936 21.6156C84.9157 21.5599 84.9268 21.493 84.9378 21.4372C84.9378 21.4261 84.9489 21.4149 84.9489 21.3926C84.96 21.3368 84.971 21.2699 84.9821 21.203C84.9821 21.1919 84.9821 21.1696 84.9821 21.1584C84.9931 21.0915 84.9931 21.0358 84.9931 20.9689C84.9931 20.9577 84.9931 20.9354 84.9931 20.9243C84.9931 20.8685 84.9931 20.8016 84.9931 20.7459C84.9931 20.7347 84.9931 20.7236 84.9931 20.7236C84.9931 20.6678 84.9821 20.6009 84.9821 20.5452C84.9821 20.534 84.9821 20.5117 84.9821 20.5005C84.971 20.4448 84.96 20.3779 84.9489 20.3221C84.9489 20.311 84.9378 20.2887 84.9378 20.2775C84.9268 20.2218 84.9047 20.1549 84.8936 20.0991C84.8936 20.088 84.8826 20.0768 84.8826 20.0545C84.8605 19.9988 84.8494 19.943 84.8273 19.8761C84.8273 19.865 84.8162 19.865 84.8162 19.8538C84.7941 19.7981 84.772 19.7423 84.7388 19.6865C84.7278 19.6754 84.7278 19.6642 84.7167 19.6531C84.6946 19.5973 84.6615 19.5416 84.6283 19.4858C84.6172 19.4747 84.6172 19.4635 84.6062 19.4412C84.573 19.3855 84.5398 19.3297 84.5067 19.2851C84.4956 19.274 84.4956 19.2628 84.4846 19.2517C84.4514 19.1959 84.4072 19.1513 84.374 19.0956L84.3629 19.0844C84.3187 19.0287 84.2745 18.9841 84.2303 18.9395C84.2192 18.9283 84.2082 18.9172 84.2082 18.906C84.1639 18.8614 84.1197 18.8168 84.0644 18.7722C84.0534 18.761 84.0423 18.7499 84.0313 18.7387C83.9871 18.6941 83.9318 18.6495 83.8765 18.6161C83.8654 18.6049 83.8544 18.6049 83.8433 18.5938C83.788 18.5492 83.7328 18.5157 83.6775 18.4711C83.6775 18.4711 83.6775 18.4711 83.6664 18.4711C83.2574 18.2147 82.1186 17.6014 80.6814 16.832C78.6914 15.7615 76.2038 14.4346 74.8661 13.5871C73.2961 12.6059 72.6328 11.4797 72.6328 9.82935C72.6328 9.7067 72.6439 9.58404 72.6549 9.47253C72.7876 8.04524 73.7163 6.60681 75.0098 5.85971C75.0098 5.85971 75.0208 5.85971 75.0208 5.84856C77.0772 4.63314 79.5316 3.30621 80.9909 2.51451C81.389 2.30265 81.7206 2.12424 81.9528 2.00158ZM72.2459 16.4417C71.4167 15.8953 69.504 14.3677 69.504 11.9145C69.504 10.4315 70.0458 9.21607 71.1624 8.22366C71.1071 8.41322 71.0629 8.60278 71.0297 8.80349C71.0297 8.81464 71.0297 8.82579 71.0187 8.83694C71.0076 8.8927 70.9966 8.9373 70.9966 8.99305C70.9966 9.01535 70.9855 9.04881 70.9855 9.07111C70.9855 9.11571 70.9744 9.14916 70.9744 9.19376C70.9744 9.23837 70.9634 9.28297 70.9634 9.32757C70.9634 9.34987 70.9634 9.37217 70.9523 9.39448C70.9413 9.52828 70.9413 9.66209 70.9413 9.7959C70.9413 12.026 71.9363 13.7321 73.9816 15.0144C75.3746 15.8842 77.8843 17.2334 79.8964 18.315C81.19 19.0064 82.4061 19.6642 82.7599 19.8873C83.3127 20.2441 83.4232 20.8908 83.2021 21.3145C83.1689 21.3815 83.1247 21.4484 83.0805 21.5041L83.0694 21.5153C83.0473 21.5376 83.0252 21.5599 83.0031 21.5822C82.992 21.5933 82.992 21.5933 82.981 21.6045C82.9589 21.6268 82.9478 21.6379 82.9257 21.6602C82.9146 21.6714 82.9036 21.6714 82.9036 21.6825C82.8815 21.6937 82.8704 21.716 82.8483 21.7271C82.8373 21.7383 82.8262 21.7383 82.8151 21.7494C82.793 21.7606 82.782 21.7717 82.7599 21.7829C82.7488 21.794 82.7378 21.794 82.7267 21.794C82.7046 21.8052 82.6935 21.8163 82.6714 21.8163C82.6604 21.8163 82.6493 21.8275 82.6383 21.8275C82.6161 21.8386 82.6051 21.8386 82.583 21.8498C82.5719 21.8498 82.5609 21.8609 82.5388 21.8609C82.5166 21.8609 82.5056 21.8721 82.4835 21.8721C82.4724 21.8721 82.4503 21.8721 82.4392 21.8832C82.4171 21.8832 82.4061 21.8832 82.384 21.8944C82.3729 21.8944 82.3508 21.8944 82.3397 21.8944C82.3176 21.8944 82.3066 21.8944 82.2845 21.8944C82.2734 21.8944 82.2513 21.8944 82.2402 21.8944C82.2181 21.8944 82.2071 21.8944 82.185 21.8944C82.1739 21.8944 82.1518 21.8944 82.1407 21.8944C82.1297 21.8944 82.1076 21.8944 82.0965 21.8832C82.0855 21.8832 82.0634 21.8721 82.0523 21.8721C82.0412 21.8721 82.0191 21.8609 82.0081 21.8609C81.997 21.8609 81.9749 21.8498 81.9639 21.8498C81.9528 21.8498 81.9307 21.8386 81.9196 21.8386C81.9086 21.8386 81.8865 21.8275 81.8754 21.8163C81.8533 21.8052 81.8422 21.8052 81.8201 21.794C81.8201 21.794 81.8091 21.794 81.8091 21.7829C80.3718 21.0135 73.9042 17.5345 72.2459 16.4417Z" fill="#040921" fill-opacity="0.16"/>
<path d="M100.296 15.227C100.296 15.238 100.284 15.2491 100.284 15.2601C99.2028 17.5487 100.017 20.1799 102.169 21.3187C104.455 22.5237 107.187 21.7941 108.514 19.6161C108.781 19.1739 109.64 17.6371 110.588 15.9014C110.766 15.5697 111.112 15.1827 111.68 15.1827C112.126 15.1827 112.506 15.3265 112.907 16.0561C114.044 18.0904 114.724 19.2955 114.914 19.6161C114.925 19.6271 114.936 19.6493 114.948 19.6603C114.959 19.6824 114.97 19.6935 114.981 19.7156C114.981 19.7156 114.981 19.7156 114.981 19.7266C114.992 19.7488 115.003 19.7598 115.014 19.7709C116.185 21.5066 118.594 22.6011 121.114 21.3961C122.184 20.8875 122.987 19.9367 123.377 18.7427C123.768 17.5376 123.678 16.2551 123.132 15.2491C123.009 15.0169 122.831 14.6852 122.619 14.2983C121.827 12.8279 120.489 10.3624 119.307 8.28395C118.56 6.96832 117.98 5.9733 117.568 5.32101C116.163 3.08775 114.134 1.90478 111.703 1.90478C108.413 1.90478 106.44 4.35916 105.748 5.40945C104.6 7.14521 101.121 13.646 100.351 15.1275C100.351 15.1275 100.351 15.1275 100.351 15.1385C100.34 15.1606 100.329 15.1938 100.318 15.2159C100.296 15.2159 100.296 15.2159 100.296 15.227ZM114.401 15.227C113.799 14.1435 112.963 13.5686 111.915 13.4912C112.494 12.4409 112.974 11.5896 113.13 11.3353C113.342 10.9816 113.621 10.7825 113.877 10.7825C114.145 10.7825 114.435 11.0037 114.669 11.3906C115.527 12.7947 117.635 16.5426 118.125 17.5044C118.259 17.7698 118.326 18.0241 118.326 18.2562C118.326 18.6321 118.148 18.9527 117.802 19.1407C117.746 19.1739 117.679 19.207 117.601 19.2291C117.579 19.2402 117.557 19.2402 117.534 19.2512L117.523 19.2512C117.501 19.2623 117.479 19.2623 117.456 19.2734L117.445 19.2734C117.423 19.2734 117.401 19.2844 117.378 19.2844L117.367 19.2844C117.345 19.2844 117.323 19.2844 117.3 19.2844L117.289 19.2844C117.166 19.2844 117.044 19.2623 116.921 19.207C116.888 19.196 116.865 19.1739 116.832 19.1517C116.776 19.1186 116.709 19.0633 116.654 19.008C116.62 18.9749 116.598 18.9417 116.564 18.9085C116.564 18.9085 116.564 18.8975 116.553 18.8975C116.52 18.8643 116.497 18.8201 116.475 18.7869C116.475 18.7869 116.475 18.7759 116.464 18.7759C116.453 18.7537 116.442 18.7427 116.431 18.7206C116.252 18.5105 115.795 17.7256 114.401 15.227ZM121.616 16.0451C121.939 16.6421 121.984 17.4602 121.738 18.212C121.493 18.9638 121.002 19.5608 120.356 19.8593C119.954 20.0473 119.564 20.1578 119.196 20.191C119.252 20.1468 119.296 20.0915 119.341 20.0362C119.341 20.0252 119.352 20.0252 119.352 20.0141C119.397 19.9588 119.441 19.9146 119.486 19.8593C119.497 19.8483 119.497 19.8483 119.508 19.8372C119.553 19.7819 119.586 19.7266 119.62 19.6714C119.653 19.6161 119.687 19.5608 119.72 19.4945C119.72 19.4834 119.731 19.4834 119.731 19.4724C119.765 19.4171 119.787 19.3507 119.809 19.2955C119.809 19.2844 119.82 19.2734 119.82 19.2623C119.843 19.196 119.865 19.1407 119.887 19.0744C119.887 19.0633 119.887 19.0633 119.887 19.0522C119.91 18.9859 119.921 18.9306 119.932 18.8643C119.932 18.8532 119.932 18.8532 119.943 18.8422C119.954 18.7759 119.965 18.7095 119.976 18.6432C119.976 18.6321 119.976 18.6211 119.976 18.599C119.988 18.5326 119.988 18.4663 119.999 18.4C119.999 18.3889 119.999 18.3778 119.999 18.3668C119.999 18.3005 119.999 18.2341 119.999 18.1788C119.999 18.1678 119.999 18.1678 119.999 18.1567C119.999 18.0904 119.988 18.0241 119.988 17.9577C119.988 17.9467 119.988 17.9246 119.988 17.9135C119.976 17.8472 119.965 17.7808 119.954 17.7145C119.954 17.7034 119.954 17.6924 119.943 17.6703C119.932 17.6039 119.921 17.5376 119.898 17.4713C119.898 17.4602 119.898 17.4602 119.898 17.4492C119.876 17.3828 119.854 17.3054 119.832 17.2391C119.832 17.228 119.82 17.2059 119.82 17.1949C119.798 17.1285 119.776 17.0622 119.742 16.9959C119.731 16.9848 119.731 16.9627 119.72 16.9517C119.687 16.8853 119.664 16.819 119.631 16.7526C119.631 16.7526 119.631 16.7416 119.62 16.7416C119.118 15.7687 116.966 11.9434 116.096 10.5172C115.538 9.61064 114.724 9.09102 113.844 9.09102C112.974 9.09102 112.171 9.58853 111.636 10.4619C111.379 10.882 110.42 12.6289 109.394 14.4752C108.369 16.3436 107.298 18.2783 107.019 18.7427C106.15 20.1578 104.432 20.6111 102.938 19.8261C102.548 19.6161 102.225 19.3286 101.99 18.9859L102.002 18.9859C102.057 19.008 102.124 19.0191 102.18 19.0301C102.191 19.0301 102.202 19.0412 102.225 19.0412C102.28 19.0522 102.347 19.0633 102.414 19.0744C102.425 19.0744 102.448 19.0744 102.459 19.0744C102.526 19.0854 102.581 19.0854 102.648 19.0854C102.659 19.0854 102.682 19.0854 102.693 19.0854C102.749 19.0854 102.816 19.0854 102.871 19.0854C102.882 19.0854 102.894 19.0854 102.894 19.0854C102.949 19.0854 103.016 19.0744 103.072 19.0744C103.083 19.0744 103.105 19.0744 103.117 19.0744C103.172 19.0633 103.239 19.0522 103.295 19.0412C103.306 19.0412 103.329 19.0301 103.34 19.0301C103.395 19.0191 103.462 18.997 103.518 18.9859C103.529 18.9859 103.54 18.9749 103.563 18.9749C103.618 18.9527 103.674 18.9417 103.741 18.9196C103.752 18.9196 103.752 18.9085 103.763 18.9085C103.819 18.8864 103.875 18.8643 103.931 18.8311C103.942 18.8201 103.953 18.8201 103.964 18.809C104.02 18.7869 104.076 18.7537 104.131 18.7206C104.143 18.7095 104.154 18.7095 104.176 18.6985C104.232 18.6653 104.287 18.6321 104.332 18.599C104.343 18.5879 104.354 18.5879 104.366 18.5768C104.421 18.5437 104.466 18.4995 104.522 18.4663L104.533 18.4552C104.589 18.411 104.633 18.3668 104.678 18.3226C104.689 18.3115 104.7 18.3005 104.711 18.3005C104.756 18.2562 104.8 18.212 104.845 18.1567C104.856 18.1457 104.867 18.1346 104.878 18.1236C104.923 18.0793 104.968 18.0241 105.001 17.9688C105.012 17.9577 105.012 17.9467 105.023 17.9356C105.068 17.8803 105.101 17.8251 105.146 17.7698C105.146 17.7698 105.146 17.7698 105.146 17.7587C105.403 17.3497 106.016 16.2109 106.785 14.7737C107.856 12.7836 109.183 10.2961 110.03 8.95835C111.011 7.38843 112.138 6.72509 113.788 6.72509C113.91 6.72509 114.033 6.73614 114.145 6.7472C115.572 6.87987 117.01 7.80855 117.757 9.10207C117.757 9.10207 117.757 9.11313 117.769 9.11313C118.984 11.1695 120.311 13.6239 121.103 15.0832C121.315 15.4812 121.493 15.8129 121.616 16.0451ZM107.175 6.33814C107.722 5.50896 109.25 3.59631 111.703 3.59631C113.186 3.59631 114.401 4.13804 115.394 5.25467C115.204 5.1994 115.014 5.15517 114.814 5.12201C114.803 5.12201 114.791 5.12201 114.78 5.11095C114.724 5.09989 114.68 5.08884 114.624 5.08884C114.602 5.08884 114.568 5.07778 114.546 5.07778C114.501 5.07778 114.468 5.06673 114.423 5.06673C114.379 5.06673 114.334 5.05567 114.29 5.05567C114.267 5.05567 114.245 5.05567 114.223 5.04462C114.089 5.03356 113.955 5.03356 113.821 5.03356C111.591 5.03356 109.885 6.02858 108.603 8.07389C107.733 9.46691 106.384 11.9766 105.302 13.9887C104.611 15.2822 103.953 16.4984 103.73 16.8521C103.373 17.4049 102.726 17.5155 102.303 17.2944C102.236 17.2612 102.169 17.217 102.113 17.1728L102.102 17.1617C102.08 17.1396 102.057 17.1175 102.035 17.0954C102.024 17.0843 102.024 17.0843 102.013 17.0733C101.99 17.0512 101.979 17.0401 101.957 17.018C101.946 17.0069 101.946 16.9959 101.935 16.9959C101.924 16.9738 101.901 16.9627 101.89 16.9406C101.879 16.9295 101.879 16.9185 101.868 16.9074C101.857 16.8853 101.845 16.8743 101.834 16.8521C101.823 16.8411 101.823 16.83 101.823 16.819C101.812 16.7969 101.801 16.7858 101.801 16.7637C101.801 16.7526 101.79 16.7416 101.79 16.7305C101.779 16.7084 101.779 16.6974 101.767 16.6753C101.767 16.6642 101.756 16.6531 101.756 16.631C101.756 16.6089 101.745 16.5979 101.745 16.5758C101.745 16.5647 101.745 16.5426 101.734 16.5315C101.734 16.5094 101.734 16.4984 101.723 16.4763C101.723 16.4652 101.723 16.4431 101.723 16.432C101.723 16.4099 101.723 16.3989 101.723 16.3768C101.723 16.3657 101.723 16.3436 101.723 16.3325C101.723 16.3104 101.723 16.2994 101.723 16.2773C101.723 16.2662 101.723 16.2441 101.723 16.233C101.723 16.222 101.723 16.1999 101.734 16.1888C101.734 16.1777 101.745 16.1556 101.745 16.1446C101.745 16.1335 101.756 16.1114 101.756 16.1004C101.756 16.0893 101.767 16.0672 101.767 16.0561C101.767 16.0451 101.779 16.023 101.779 16.0119C101.779 16.0009 101.79 15.9787 101.801 15.9677C101.812 15.9456 101.812 15.9345 101.823 15.9124C101.823 15.9124 101.823 15.9014 101.834 15.9014C102.604 14.4641 106.083 7.9965 107.175 6.33814Z" fill="#040921" fill-opacity="0.16"/>
<path d="M142.295 0.487901C142.284 0.487901 142.273 0.476751 142.262 0.476751C139.973 -0.604864 137.342 0.209135 136.203 2.36121C134.998 4.6471 135.728 7.37902 137.906 8.70595C138.348 8.97357 139.885 9.83217 141.621 10.78C141.952 10.9584 142.339 11.3041 142.339 11.8727C142.339 12.3188 142.196 12.6979 141.466 13.0993C139.432 14.2367 138.227 14.9169 137.906 15.1064C137.895 15.1176 137.873 15.1287 137.862 15.1399C137.84 15.151 137.828 15.1622 137.806 15.1733C137.806 15.1733 137.806 15.1733 137.795 15.1733C137.773 15.1845 137.762 15.1956 137.751 15.2068C136.015 16.3776 134.921 18.7862 136.126 21.3062C136.634 22.3767 137.585 23.1795 138.779 23.5698C139.984 23.9601 141.267 23.8709 142.273 23.3245C142.505 23.2018 142.837 23.0234 143.224 22.8116C144.694 22.0199 147.16 20.6818 149.238 19.4998C150.554 18.7527 151.549 18.1729 152.201 17.7603C154.434 16.3553 155.617 14.3259 155.617 11.895C155.617 8.60559 153.163 6.63192 152.113 5.94058C150.377 4.79206 143.876 1.31305 142.395 0.543654C142.395 0.543654 142.395 0.543654 142.383 0.543654C142.361 0.532503 142.328 0.521354 142.306 0.510203C142.306 0.487902 142.306 0.487901 142.295 0.487901ZM142.295 14.5935C143.378 13.9914 143.953 13.1551 144.031 12.1069C145.081 12.6867 145.932 13.1662 146.187 13.3223C146.54 13.5342 146.739 13.813 146.739 14.0694C146.739 14.337 146.518 14.627 146.131 14.8611C144.727 15.7197 140.979 17.8272 140.018 18.3178C139.752 18.4516 139.498 18.5185 139.266 18.5185C138.89 18.5185 138.569 18.3401 138.381 17.9945C138.348 17.9387 138.315 17.8718 138.293 17.7937C138.282 17.7714 138.282 17.7491 138.271 17.7268L138.271 17.7157C138.26 17.6934 138.26 17.6711 138.249 17.6488L138.249 17.6376C138.249 17.6153 138.238 17.593 138.238 17.5707L138.238 17.5596C138.238 17.5373 138.238 17.515 138.238 17.4927L138.238 17.4815C138.238 17.3589 138.26 17.2362 138.315 17.1136C138.326 17.0801 138.348 17.0578 138.37 17.0244C138.403 16.9686 138.459 16.9017 138.514 16.8459C138.547 16.8125 138.58 16.7902 138.613 16.7567C138.613 16.7567 138.625 16.7567 138.625 16.7456C138.658 16.7121 138.702 16.6898 138.735 16.6675C138.735 16.6675 138.746 16.6675 138.746 16.6564C138.768 16.6452 138.779 16.6341 138.801 16.6229C139.011 16.4445 139.796 15.9873 142.295 14.5935ZM141.477 21.808C140.88 22.1314 140.062 22.176 139.31 21.9306C138.558 21.6853 137.961 21.1947 137.663 20.548C137.475 20.1465 137.364 19.7563 137.331 19.3883C137.375 19.444 137.43 19.4887 137.486 19.5333C137.497 19.5333 137.497 19.5444 137.508 19.5444C137.563 19.589 137.607 19.6336 137.663 19.6782C137.674 19.6894 137.674 19.6894 137.685 19.7005C137.74 19.7451 137.795 19.7786 137.851 19.812C137.906 19.8455 137.961 19.8789 138.027 19.9124C138.039 19.9124 138.039 19.9235 138.05 19.9235C138.105 19.957 138.171 19.9793 138.227 20.0016C138.238 20.0016 138.249 20.0127 138.26 20.0127C138.326 20.035 138.381 20.0573 138.448 20.0796C138.459 20.0796 138.459 20.0796 138.47 20.0796C138.536 20.1019 138.591 20.1131 138.658 20.1242C138.669 20.1242 138.669 20.1242 138.68 20.1354C138.746 20.1465 138.812 20.1577 138.879 20.1688C138.89 20.1688 138.901 20.1688 138.923 20.1688C138.989 20.18 139.056 20.18 139.122 20.1911C139.133 20.1911 139.144 20.1911 139.155 20.1911C139.222 20.1911 139.288 20.1911 139.343 20.1911C139.354 20.1911 139.354 20.1911 139.365 20.1911C139.432 20.1911 139.498 20.18 139.564 20.18C139.575 20.18 139.597 20.18 139.608 20.18C139.675 20.1688 139.741 20.1577 139.807 20.1465C139.819 20.1465 139.83 20.1465 139.852 20.1354C139.918 20.1242 139.984 20.1131 140.051 20.0908C140.062 20.0908 140.062 20.0908 140.073 20.0908C140.139 20.0685 140.217 20.0462 140.283 20.0239C140.294 20.0239 140.316 20.0127 140.327 20.0127C140.393 19.9904 140.46 19.9681 140.526 19.9347C140.537 19.9235 140.559 19.9235 140.57 19.9124C140.637 19.8789 140.703 19.8566 140.769 19.8232C140.769 19.8232 140.78 19.8232 140.78 19.812C141.753 19.3102 145.579 17.1582 147.005 16.2884C147.911 15.7309 148.431 14.9169 148.431 14.036C148.431 13.1662 147.933 12.3634 147.06 11.8281C146.64 11.5717 144.893 10.6127 143.047 9.58685C141.178 8.56099 139.244 7.49052 138.779 7.21176C137.364 6.34201 136.911 4.6248 137.696 3.13061C137.906 2.74034 138.193 2.41697 138.536 2.1828L138.536 2.19395C138.514 2.24971 138.503 2.31661 138.492 2.37237C138.492 2.38352 138.481 2.39467 138.481 2.41697C138.47 2.47272 138.459 2.53962 138.448 2.60653C138.448 2.61768 138.448 2.63998 138.448 2.65113C138.437 2.71804 138.437 2.77379 138.437 2.84069C138.437 2.85184 138.437 2.87415 138.437 2.8853C138.437 2.94105 138.437 3.00795 138.437 3.06371C138.437 3.07486 138.437 3.08601 138.437 3.08601C138.437 3.14176 138.448 3.20867 138.448 3.26442C138.448 3.27557 138.448 3.29787 138.448 3.30902C138.459 3.36478 138.47 3.43168 138.481 3.48743C138.481 3.49858 138.492 3.52088 138.492 3.53204C138.503 3.58779 138.525 3.65469 138.536 3.71045C138.536 3.7216 138.547 3.73275 138.547 3.75505C138.569 3.8108 138.58 3.86656 138.602 3.93346C138.602 3.94461 138.613 3.94461 138.613 3.95576C138.636 4.01151 138.658 4.06727 138.691 4.12302C138.702 4.13417 138.702 4.14532 138.713 4.15647C138.735 4.21223 138.768 4.26798 138.801 4.32373C138.812 4.33488 138.812 4.34603 138.824 4.36834C138.857 4.42409 138.89 4.47984 138.923 4.52445C138.934 4.5356 138.934 4.54675 138.945 4.5579C138.978 4.61365 139.023 4.65825 139.056 4.71401L139.067 4.72516C139.111 4.78091 139.155 4.82551 139.199 4.87012C139.21 4.88127 139.222 4.89242 139.222 4.90357C139.266 4.94817 139.31 4.99277 139.365 5.03738C139.376 5.04853 139.387 5.05968 139.398 5.07083C139.443 5.11543 139.498 5.16003 139.553 5.19349C139.564 5.20464 139.575 5.20464 139.586 5.21579C139.642 5.26039 139.697 5.29384 139.752 5.33844C139.752 5.33844 139.752 5.33844 139.763 5.33844C140.172 5.59491 141.311 6.2082 142.748 6.97759C144.738 8.04806 147.226 9.37499 148.564 10.2224C150.134 11.2037 150.797 12.3299 150.797 13.9802C150.797 14.1029 150.786 14.2255 150.775 14.337C150.642 15.7643 149.713 17.2028 148.42 17.9499C148.42 17.9499 148.409 17.9499 148.409 17.961C146.352 19.1764 143.898 20.5034 142.439 21.2951C142.041 21.5069 141.709 21.6853 141.477 21.808ZM151.184 7.36787C152.013 7.91425 153.926 9.44189 153.926 11.895C153.926 13.3781 153.384 14.5935 152.267 15.5859C152.323 15.3964 152.367 15.2068 152.4 15.0061C152.4 14.9949 152.4 14.9838 152.411 14.9726C152.422 14.9169 152.433 14.8723 152.433 14.8165C152.433 14.7942 152.444 14.7608 152.444 14.7385C152.444 14.6939 152.455 14.6604 152.455 14.6158C152.455 14.5712 152.466 14.5266 152.466 14.482C152.466 14.4597 152.466 14.4374 152.477 14.4151C152.488 14.2813 152.488 14.1475 152.488 14.0137C152.488 11.7835 151.493 10.0775 149.448 8.79515C148.055 7.9254 145.545 6.57617 143.533 5.49455C142.24 4.80321 141.024 4.14532 140.67 3.92231C140.117 3.56549 140.006 2.91875 140.228 2.49502C140.261 2.42812 140.305 2.36121 140.349 2.30546L140.36 2.29431C140.382 2.27201 140.404 2.24971 140.427 2.22741C140.438 2.21626 140.438 2.21626 140.449 2.20511C140.471 2.1828 140.482 2.17165 140.504 2.14935C140.515 2.1382 140.526 2.1382 140.526 2.12705C140.548 2.1159 140.559 2.0936 140.581 2.08245C140.592 2.0713 140.603 2.0713 140.615 2.06015C140.637 2.049 140.648 2.03784 140.67 2.02669C140.681 2.01554 140.692 2.01554 140.703 2.01554C140.725 2.00439 140.736 1.99324 140.758 1.99324C140.769 1.99324 140.78 1.98209 140.791 1.98209C140.814 1.97094 140.825 1.97094 140.847 1.95979C140.858 1.95979 140.869 1.94864 140.891 1.94864C140.913 1.94864 140.924 1.93749 140.946 1.93749C140.957 1.93749 140.979 1.93749 140.99 1.92634C141.013 1.92634 141.024 1.92634 141.046 1.91519C141.057 1.91519 141.079 1.91519 141.09 1.91519C141.112 1.91519 141.123 1.91519 141.145 1.91519C141.156 1.91519 141.178 1.91519 141.189 1.91519C141.212 1.91519 141.223 1.91519 141.245 1.91519C141.256 1.91519 141.278 1.91519 141.289 1.91519C141.3 1.91519 141.322 1.91519 141.333 1.92634C141.344 1.92634 141.366 1.93749 141.377 1.93749C141.388 1.93749 141.411 1.94864 141.422 1.94864C141.433 1.94864 141.455 1.95979 141.466 1.95979C141.477 1.95979 141.499 1.97094 141.51 1.97094C141.521 1.97094 141.543 1.98209 141.554 1.99324C141.576 2.00439 141.587 2.00439 141.61 2.01554C141.61 2.01554 141.621 2.01554 141.621 2.02669C143.058 2.79609 149.525 6.2751 151.184 7.36787Z" fill="#040921" fill-opacity="0.16"/>
</svg>
