<svg width="16" height="16" viewBox="0 0 16 16" fill="none" xmlns="http://www.w3.org/2000/svg">
<path d="M8 16C12.4183 16 16 12.4183 16 8C16 3.58172 12.4183 0 8 0C3.58172 0 0 3.58172 0 8C0 12.4183 3.58172 16 8 16Z" fill="#F0F0F0"/>
<path d="M15.9323 6.95653H9.04353H9.0435V0.0677188C8.70191 0.02325 8.35366 0 8 0C7.64634 0 7.29809 0.02325 6.95653 0.0677188V6.95647V6.9565H0.0677188C0.02325 7.29809 0 7.64634 0 8C0 8.35372 0.02325 8.70191 0.0677188 9.04347H6.95647H6.9565V15.9323C7.29809 15.9768 7.64634 16 8 16C8.35366 16 8.70191 15.9768 9.04347 15.9323V9.04353V9.0435H15.9323C15.9768 8.70191 16 8.35372 16 8C16 7.64634 15.9768 7.29809 15.9323 6.95653Z" fill="#D80027"/>
<path d="M4.86822 3.82475V2.78125H3.82475V3.82475H2.78125V4.86822H3.82475V5.91169H4.86822V4.86822H5.91169V3.82475H4.86822Z" fill="#D80027"/>
<path d="M12.1729 3.82475V2.78125H11.1294V3.82475H10.0859V4.86822H11.1294V5.91169H12.1729V4.86822H13.2164V3.82475H12.1729Z" fill="#D80027"/>
<path d="M4.86822 11.1304V10.0869H3.82475V11.1304H2.78125V12.1739H3.82475V13.2174H4.86822V12.1739H5.91169V11.1304H4.86822Z" fill="#D80027"/>
<path d="M12.1729 11.1304V10.0869H11.1294V11.1304H10.0859V12.1739H11.1294V13.2174H12.1729V12.1739H13.2164V11.1304H12.1729Z" fill="#D80027"/>
</svg>
