<svg width="118" height="25" viewBox="0 0 118 25" fill="none" xmlns="http://www.w3.org/2000/svg">
<path d="M9.12624 19.1284H8.84829C7.43534 19.1284 6.48565 18.2462 5.90658 16.8531L0.277959 3.85148C0.138981 3.50322 0 3.06209 0 2.57453C0 1.34401 1.13499 0.136719 2.52478 0.136719C3.91456 0.136719 4.67894 0.926104 5.04955 1.9941L8.98726 12.674L13.0176 1.92445C13.3651 1.04219 14.0831 0.136719 15.4498 0.136719C16.8164 0.136719 17.9514 1.20471 17.9514 2.62096C17.9514 3.06209 17.7892 3.6193 17.6734 3.85148L12.0448 16.8764C11.4889 18.1997 10.516 19.1284 9.12624 19.1284Z" fill="white"/>
<path d="M29.4879 19.1774C23.9751 19.1774 19.8984 15.3002 19.8984 9.65837V9.58872C19.8984 4.34162 23.6277 0 28.9783 0C35.1165 0 37.8266 5.03814 37.8266 8.86899C37.8266 10.3781 36.7611 11.3764 35.3945 11.3764H25.0638C25.5734 13.7446 27.2179 14.9751 29.5574 14.9751C30.9935 14.9751 32.198 14.534 33.2635 13.7446C33.6341 13.466 33.9815 13.3267 34.5375 13.3267C35.6956 13.3267 36.5526 14.209 36.5526 15.393C36.5526 16.0895 36.2515 16.6003 35.8578 16.9486C34.2363 18.3184 32.1517 19.1774 29.4879 19.1774ZM32.8466 8.10282C32.5454 5.75788 31.1788 4.1791 28.9783 4.1791C26.8242 4.1791 25.4112 5.73466 24.9943 8.10282H32.8466Z" fill="white"/>
<path d="M42.2245 23.8647C41.4601 23.5861 40.5799 22.9825 40.5799 21.7055C40.5799 20.4286 41.5759 19.5696 42.6414 19.5696C43.0584 19.5696 43.29 19.6392 43.4985 19.7089C43.9386 19.8482 44.2165 19.9178 44.5871 19.9178C45.5136 19.9178 45.9537 19.7553 46.4402 18.8266L46.6023 18.4087L40.3483 3.85148C40.2093 3.50322 40.0703 2.99244 40.0703 2.64418C40.0703 1.15828 41.2053 0.136719 42.6414 0.136719C43.9385 0.136719 44.7029 0.856453 45.143 2.08697L49.1271 12.8133L52.9721 2.1334C53.3891 1.04219 54.1303 0.136719 55.4738 0.136719C56.8172 0.136719 57.9522 1.15828 57.9522 2.55131C57.9522 2.96922 57.8132 3.54965 57.7206 3.78183L51.3044 19.1981C49.7525 22.9361 48.2237 24.3523 45.0967 24.3523C43.8922 24.3523 43.0815 24.1898 42.2245 23.8647Z" fill="white"/>
<path d="M68.72 19.1321H68.442C67.0291 19.1321 66.0794 18.2499 65.5003 16.8568L59.8717 3.83195C59.7327 3.48369 59.5938 3.04256 59.5938 2.555C59.5938 1.32448 60.7287 0.117188 62.1185 0.117188C63.5083 0.117188 64.2727 0.906574 64.6433 1.97457L68.581 12.6545L72.5882 1.90492C72.9357 1.02266 73.6537 0.117188 75.0204 0.117188C76.387 0.117188 77.522 1.18518 77.522 2.60144C77.522 3.04256 77.3598 3.59978 77.244 3.83195L71.6154 16.8568C71.0826 18.2034 70.1098 19.1321 68.72 19.1321Z" fill="white"/>
<path d="M89.066 19.1774C83.5532 19.1774 79.4766 15.3002 79.4766 9.65837V9.58872C79.4766 4.34162 83.2058 0 88.5565 0C94.6947 0 97.4047 5.03814 97.4047 8.86899C97.4047 10.3781 96.3392 11.3764 94.9726 11.3764H84.6651C85.1747 13.7446 86.8192 14.9751 89.1587 14.9751C90.5948 14.9751 91.7993 14.534 92.8648 13.7446C93.2354 13.466 93.5828 13.3267 94.1388 13.3267C95.2969 13.3267 96.1539 14.209 96.1539 15.393C96.1539 16.0895 95.8528 16.6003 95.4591 16.9486C93.8376 18.3184 91.753 19.1774 89.066 19.1774ZM92.4247 8.10282C92.1236 5.75788 90.7569 4.1791 88.5565 4.1791C86.4023 4.1791 84.9894 5.73466 84.5724 8.10282H92.4247Z" fill="white"/>
<path d="M101.826 23.8647C101.061 23.5861 100.181 22.9825 100.181 21.7055C100.181 20.4286 101.177 19.5696 102.243 19.5696C102.66 19.5696 102.891 19.6392 103.1 19.7089C103.54 19.8482 103.818 19.9178 104.188 19.9178C105.115 19.9178 105.555 19.7553 106.041 18.8266L106.204 18.4087L99.9264 3.85148C99.7874 3.50322 99.6484 2.99244 99.6484 2.64418C99.6484 1.15828 100.783 0.136719 102.22 0.136719C103.517 0.136719 104.281 0.856453 104.721 2.08697L108.705 12.8133L112.55 2.1334C112.967 1.04219 113.708 0.136719 115.052 0.136719C116.395 0.136719 117.53 1.15828 117.53 2.55131C117.53 2.96922 117.391 3.54965 117.299 3.78183L110.883 19.1981C109.331 22.9361 107.802 24.3523 104.675 24.3523C103.494 24.3523 102.683 24.1898 101.826 23.8647Z" fill="white"/>
</svg>
