<svg width="180" height="130" viewBox="0 0 180 130" fill="none" xmlns="http://www.w3.org/2000/svg">
<g clip-path="url(#clip0_1_66341)">
<path d="M16.2295 25.9333C13.6833 28.2182 12.0759 31.1936 10.5125 34.1572C8.85244 37.2881 7.47108 40.5797 6.65577 44.0493C4.99602 51.2319 5.12851 59.2999 7.33026 66.2945C7.6448 67.2937 9.13988 66.8926 8.91329 65.8698C7.49437 58.8065 6.81431 51.6863 8.34215 44.5392C9.0373 41.1489 10.2663 37.9924 11.639 34.8444C13.003 31.8401 14.2877 28.7157 16.5113 26.2817C16.7838 26.0672 16.4698 25.7746 16.2295 25.9333Z" fill="#89B4E1"/>
<path d="M15.4885 33.012C12.0936 37.4092 10.1714 42.7305 8.86793 48.0743C7.53531 53.6614 5.95426 60.2575 7.42779 65.9399C7.69835 66.9509 9.1377 66.5176 8.96684 65.5269C8.05628 59.8349 9.10405 53.7117 10.2812 48.072C11.3562 42.9309 13.0058 37.8241 15.8582 33.3368C16.031 33.102 15.6613 32.7772 15.4885 33.012Z" fill="#89B4E1"/>
<path d="M67.7911 70.1442C67.3654 73.1323 67.0573 76.5601 67.9774 79.4698C68.2919 80.4691 69.787 80.068 69.5604 79.0451C68.8162 76.0882 68.5148 73.2008 68.3219 70.1902C68.263 69.9704 67.8085 69.8568 67.7911 70.1442Z" fill="#89B4E1"/>
<path d="M64.5123 73.7118C63.7874 76.6389 63.0012 79.8651 63.7015 82.8339C63.8928 83.7248 65.4027 83.5553 65.2993 82.6407C65.0184 79.6537 65.2242 76.7246 65.0548 73.8019C65.0164 73.4824 64.5618 73.3688 64.5123 73.7118Z" fill="#89B4E1"/>
<path d="M59.7071 79.0057C59.7373 80.1754 59.7236 81.3569 59.6659 82.5502C59.6287 83.6438 59.3158 84.7643 59.5102 85.8429C59.6309 86.4701 60.6045 86.5858 60.9266 86.0282C61.4624 85.0364 61.3442 83.8903 61.2935 82.8203C61.2397 81.5626 61.142 80.3168 60.9885 79.0388C60.9086 78.2122 59.7152 78.1554 59.7071 79.0057Z" fill="#89B4E1"/>
<path d="M55.942 81.8521C55.4154 83.4068 55.3112 85.1308 54.5178 86.5687C54.099 87.2935 55.2255 87.9807 55.6882 87.244C56.6341 85.6711 56.5828 83.8945 56.9626 82.1437C57.0617 81.4575 56.1526 81.2303 55.942 81.8521Z" fill="#89B4E1"/>
<path d="M50.5114 86.2293C50.1076 87.1857 49.7037 88.1421 49.2998 89.0985C48.9808 89.8437 50.0485 90.311 50.3557 89.5219C50.7039 88.5333 50.9963 87.5126 51.3004 86.5359C51.4584 86.0695 50.7134 85.7511 50.5114 86.2293Z" fill="#89B4E1"/>
<path d="M73.4859 35.4033C74.3928 40.2011 72.875 45.2726 71.1604 49.7844C69.5102 54.1847 67.0796 58.1347 64.3821 61.9679C63.9399 62.6048 64.9462 63.3714 65.456 62.8106C68.9189 59.196 71.3284 54.6391 72.8846 49.8872C74.388 45.2907 75.7033 39.9909 74.0253 35.3056C73.8755 34.9218 73.3918 35.0516 73.4859 35.4033Z" fill="#89B4E1"/>
<path d="M22.8767 78.5681C26.8536 83.3904 34.8849 83.6385 40.5079 82.4597C43.721 81.7861 46.8722 80.7051 49.9794 79.6359C52.175 78.8584 54.6548 77.9104 56.2603 76.1605C57.2036 75.1065 58.0083 73.0061 56.4798 72.0498C55.4648 71.427 53.8261 71.8195 52.7589 72.0587C51.044 72.5188 49.3086 73.0786 47.5497 73.5505C43.2403 74.7067 38.9601 75.6194 34.6124 76.4561C32.6863 76.8315 30.819 77.4267 28.8928 77.8021C26.9667 78.1775 25.2097 77.4239 23.3071 77.8873C22.2518 78.1704 22.6753 79.7529 23.7424 79.5137C25.2053 79.1683 26.7833 79.7815 28.2814 79.568C29.5597 79.4135 30.7674 78.9953 31.9547 78.6767C35.2205 77.8477 38.6125 77.3145 41.9018 76.5734C44.9595 75.8473 48.0494 75.0654 51.0042 74.1313C51.5641 73.934 55.492 72.4091 55.4696 73.7343C55.4379 74.4966 53.7527 75.4199 53.2721 75.7373C51.5546 76.7163 49.5993 77.3351 47.7438 77.9742C45.1525 78.8579 42.5289 79.7974 39.8231 80.4291C34.5872 81.6453 27.6173 81.4894 23.0699 78.2336C22.9114 77.9934 22.7299 78.3719 22.8767 78.5681Z" fill="#89B4E1"/>
<path d="M88.3491 73.6761C84.2722 72.1786 83.4488 83.8953 89.3863 83.7157C90.6002 83.6728 90.7719 82.0248 89.6837 81.6572C88.0735 81.0998 87.1781 79.691 86.9305 78.0613C86.6476 76.2998 87.1921 75.1643 88.499 74.0599C88.6074 73.9366 88.5046 73.7286 88.3491 73.6761Z" fill="#89B4E1"/>
<path d="M91.9199 79.9742C94.8918 82.0979 97.8607 84.034 100.672 86.4365C103.483 88.839 106.466 91.0066 109.353 93.3416C115.295 98.1079 121.116 102.954 127.769 106.681C133.921 110.119 140.511 112.732 146.949 115.481C152.531 117.847 158.45 119.886 164.536 118.678C165.703 118.459 165.461 116.498 164.259 116.585C157.6 117.24 151.544 114.861 145.56 112.226C139.198 109.41 132.763 106.849 126.808 103.264C120.351 99.3898 114.694 94.453 108.635 89.9536C105.93 87.9467 103.281 85.972 100.576 83.9652C98.038 82.0548 95.2537 79.9278 92.0543 79.4199C91.8345 79.4789 91.6852 79.8016 91.9199 79.9742Z" fill="#89B4E1"/>
<path d="M156.114 107.838C154.626 110.028 152.846 113.238 153.906 115.969C154.332 117.032 155.883 116.663 155.665 115.497C155.215 112.932 156.051 110.776 157.24 108.525C157.691 107.745 156.588 107.146 156.114 107.838Z" fill="#89B4E1"/>
<path d="M152.793 107.034C151.568 108.446 150.581 110.218 149.803 111.888C149.484 112.633 148.98 113.569 149.16 114.416C149.339 115.263 150.219 115.733 150.961 115.158C151.473 114.785 151.481 113.934 150.76 113.704C150.816 113.736 150.983 113.832 150.962 113.932C150.992 113.689 151.021 113.445 151.094 113.19C151.269 112.437 151.576 111.647 151.851 110.914C152.34 109.746 152.761 108.503 153.306 107.367C153.435 107.144 153.053 106.775 152.793 107.034Z" fill="#89B4E1"/>
<path d="M147.601 106.307C146.634 107.273 145.846 108.38 145.238 109.627C144.714 110.662 143.964 112.088 144.226 113.243C144.379 113.815 145.2 114.065 145.546 113.596C146.228 112.8 146.274 111.563 146.622 110.574C147.044 109.331 147.632 108.183 148.443 107.165C148.941 106.56 148.155 105.734 147.601 106.307Z" fill="#89B4E1"/>
<path d="M140.601 106.394C139.966 107.365 139.741 108.462 139.372 109.55C139.13 110.228 140.25 110.54 140.437 109.83C140.729 108.809 140.822 107.748 141.27 106.78C141.484 106.345 140.871 105.992 140.601 106.394Z" fill="#89B4E1"/>
<path d="M164.76 112.304C163.969 113.929 163.78 115.865 164.514 117.552C164.87 118.352 166.318 117.775 165.995 116.92C165.419 115.472 165.066 114.153 165.393 112.558C165.487 112.203 164.941 111.925 164.76 112.304Z" fill="#89B4E1"/>
<path d="M120.106 81.9284C119.027 81.4171 117.988 80.7063 116.815 80.5499C115.985 80.4427 114.643 80.7087 114.204 81.5333C113.466 83.0033 116.024 84.1074 117.024 84.4987C118.303 85.0507 120.881 86.0551 121.962 84.6344C123.444 82.7762 120.558 81.8544 119.294 81.5339C118.64 81.3796 118.38 82.3446 119.001 82.5547C119.512 82.7004 120.066 82.8344 120.6 83.0681C121.245 83.3661 121.466 84.0137 120.618 84.1939C119.595 84.4213 118.272 83.881 117.372 83.5101C116.838 83.2764 114.993 82.5464 115.248 81.9127C115.353 81.6018 116.268 81.4977 116.543 81.4709C116.963 81.4526 117.417 81.5662 117.828 81.6917C118.549 81.9221 119.239 82.2083 119.948 82.3948C120.171 82.5235 120.417 82.0335 120.106 81.9284Z" fill="#89B4E1"/>
<path d="M74.7288 68.5676C76.0015 68.7444 77.2748 69.6278 78.3778 70.227C79.4925 70.8702 80.5428 71.625 81.6693 72.3121C82.5171 72.8385 83.3341 71.4886 82.4423 70.974C81.1486 70.1904 79.7905 69.5182 78.4002 68.9018C77.2767 68.4023 75.9979 67.8502 74.7636 67.9929C74.356 68.0552 74.3418 68.5301 74.7288 68.5676Z" fill="#89B4E1"/>
<path d="M92.3313 66.3883C91.6563 65.6271 90.4102 65.7259 89.6924 66.3896C88.8662 67.1766 89.2073 68.4514 90.2192 68.8866C91.1754 69.2897 92.3274 68.8393 93.0453 68.1756C93.8071 67.5 94.0202 66.3592 92.8764 65.9594C92.1549 65.729 91.8507 66.7057 92.3876 67.127C92.3876 67.127 92.3876 67.127 92.3759 67.0831C92.4111 67.215 92.3994 67.171 92.3406 66.9512C92.2848 66.919 92.3406 66.9512 92.3406 66.9512C92.2966 66.963 92.0798 67.2096 92.0036 67.2772C91.6871 67.5034 91.183 67.7329 90.7842 67.6515C90.4733 67.5464 90.3705 67.3384 90.5873 67.0918C90.8802 66.7776 91.5076 66.6564 91.93 66.8258C92.2966 66.963 92.5456 66.6606 92.3313 66.3883Z" fill="#89B4E1"/>
<path d="M50.8366 96.2255C58.9564 89.7597 67.9686 84.515 75.6364 77.4167C75.9412 77.1465 75.4804 76.6576 75.1757 76.9278C67.4051 83.8182 58.4839 89.2269 50.4991 95.8449C50.2265 96.0594 50.5962 96.3842 50.8366 96.2255Z" fill="#89B4E1"/>
<path d="M61.2259 94.38C67.6697 89.4003 74.9527 85.0907 80.5748 79.1537C81.0846 78.5929 80.3099 77.8113 79.7326 78.296C73.6615 83.7881 67.1502 88.6917 60.9324 93.9876C60.7478 94.1784 61.0296 94.5269 61.2259 94.38Z" fill="#89B4E1"/>
<path d="M76.4364 92.5619C80.5805 90.0838 83.6737 86.1444 88.2377 84.3546C88.8738 84.0897 88.6589 83.1108 87.9554 83.2996C83.0186 84.5769 80.1254 89.2636 76.1194 92.0816C75.8351 92.2521 76.1199 92.7881 76.4364 92.5619Z" fill="#89B4E1"/>
<path d="M87.2306 91.8793C89.8684 90.4649 92.1656 88.4822 94.7799 86.9799C95.4364 86.6153 94.8463 85.6429 94.178 85.9636C91.4609 87.2579 89.3575 89.6125 86.89 91.311C86.5853 91.5812 86.8583 92.0733 87.2306 91.8793Z" fill="#89B4E1"/>
<path d="M95.4779 93.6259C96.5767 92.6242 97.7546 91.7426 98.9884 90.8932C99.6653 90.4288 99.0398 89.3241 98.3189 89.8003C97.009 90.7173 95.7548 91.6665 94.5917 92.7797C94.038 93.3524 94.9125 94.1546 95.4779 93.6259Z" fill="#89B4E1"/>
<path d="M155.143 125.673C159.437 124.285 163.262 121.845 167.145 119.626C167.801 119.261 167.2 118.245 166.543 118.609C162.648 120.785 158.991 123.321 154.913 125.169C154.606 125.251 154.791 125.767 155.143 125.673Z" fill="#89B4E1"/>
<path d="M161.85 128.207C165.025 126.508 168.005 124.436 171.032 122.54C171.601 122.199 171.078 121.303 170.51 121.644C167.45 123.595 164.616 125.863 161.533 127.727C161.261 127.941 161.522 128.39 161.85 128.207Z" fill="#89B4E1"/>
<path d="M173.987 125.471C175.968 124.421 177.632 122.891 179.59 121.753C180.126 121.467 179.627 120.659 179.135 120.932C177.098 121.95 175.489 123.513 173.52 124.607C172.995 124.936 173.45 125.756 173.987 125.471Z" fill="#89B4E1"/>
<path d="M57.9321 4.71594C55.4949 4.23977 53.2684 3.14178 50.8517 2.5659C48.2677 1.89362 45.5051 1.7874 42.8366 2.03276C37.8631 2.47298 33.1016 4.41069 28.8007 6.83706C20.6593 11.472 13.9678 18.3555 9.12728 26.3435C0.170145 41.3246 -3.77723 63.5805 8.25111 78.062C18.6244 90.5855 36.5432 91.6629 50.54 85.1263C57.8727 81.6976 63.9814 76.3366 68.4678 69.6683C73.9915 61.591 78.5586 52.4046 80.2017 42.6843C81.8652 32.8643 80.106 22.4087 74.002 14.3913C68.5406 7.1906 60.1718 3.21972 51.2506 2.64723C50.6318 2.62494 50.4388 3.66591 51.0811 3.7761C58.7181 4.83465 65.9104 7.7554 71.0866 13.7138C76.6003 20.0527 79.1034 28.707 78.7734 36.9915C78.3824 46.2815 74.7389 55.2199 70.1183 63.1489C66.0662 70.0304 61.2833 76.1189 54.5171 80.4317C42.4271 88.105 25.8676 89.8186 14.1118 80.5866C-0.216975 69.3133 1.19114 47.7861 8.11597 32.7855C12.2872 23.7053 18.7729 15.6995 27.1426 10.1555C31.5136 7.28633 36.3893 4.89406 41.6206 4.0078C44.506 3.5158 47.6409 3.42786 50.5533 3.91779C53.0785 4.37034 55.3458 5.26893 57.9499 5.13508C58.0936 5.1436 58.1873 4.78874 57.9321 4.71594Z" fill="#004E9E"/>
<path d="M79.6465 66.0199C81.9192 64.4677 83.0146 61.1586 84.0136 58.7233C85.2471 55.7541 86.2693 52.7002 86.9923 49.5853C88.3414 43.5228 88.2854 37.3193 86.4987 31.3448C85.0852 26.5892 83.2639 21.8959 80.1524 18.0201C77.2551 14.4165 72.9939 11.1791 68.7775 9.34287C68.2435 9.10933 67.5691 9.76144 68.0739 10.2384C71.3581 13.1728 75.1493 15.3586 78.0876 18.7628C81.2401 22.4392 82.9381 27.0242 84.2605 31.6158C85.9593 37.6139 86.112 43.6502 84.8304 49.7887C84.2569 52.5809 83.3723 55.268 82.3323 57.9027C81.3772 60.3261 79.4573 63.197 79.3678 65.8592C79.315 66.0146 79.494 66.155 79.6465 66.0199Z" fill="#004E9E"/>
<path d="M21.165 86.2886C22.4005 88.2642 25.1982 89.2084 27.2863 89.9664C29.7527 90.9053 32.3245 91.5334 34.8933 91.974C39.9194 92.7909 45.0623 92.6348 50.0346 91.4885C55.0626 90.3744 59.8526 88.1941 64.1232 85.3057C68.1974 82.5641 72.4119 78.9373 74.6586 74.4732C74.9368 73.9277 74.2533 73.3107 73.7639 73.7716C70.253 77.2096 67.1966 80.7609 63.0667 83.4704C59.0247 86.1562 54.4838 88.0342 49.7431 89.1654C45.0464 90.2848 40.1029 90.4815 35.3233 89.881C32.8777 89.5486 30.4613 88.9729 28.1181 88.1422C25.986 87.396 23.6542 85.903 21.3349 85.8663C21.1707 85.9575 21.0741 86.1247 21.165 86.2886Z" fill="#004E9E"/>
<path d="M56.9974 10.0504C51.952 7.40124 44.3992 10.1825 39.7083 12.3838C34.4691 14.8266 29.7288 18.0774 25.6752 22.133C17.3834 30.4352 11.9844 41.4462 10.3717 53.0423C9.47191 59.5484 9.63712 67.0403 12.737 72.9908C13.0335 73.5706 13.9101 73.1468 13.8013 72.5637C12.0027 65.1335 11.4007 57.9472 12.9568 50.37C14.3492 43.5904 17.1933 37.1275 21.032 31.3868C24.7944 25.7137 29.7508 20.8034 35.4438 17.0613C38.4487 15.0771 41.7235 13.3972 45.195 12.2768C47.1507 11.6576 49.1212 11.2699 51.1387 11.058C53.0242 10.8815 55.08 10.9891 56.9155 10.4492C57.0914 10.402 57.1646 10.1468 56.9974 10.0504Z" fill="#004E9E"/>
<path d="M97.9187 73.6966C99.9462 69.9964 97.6856 65.4218 93.8959 63.9428C89.5283 62.242 85.7646 65.7959 83.5112 69.18C81.0848 72.7989 78.9353 78.5102 81.0138 82.7567C82.6813 86.1715 88.0052 88.2751 90.9597 85.2209C91.5577 84.6365 90.7917 83.7116 90.091 84.0882C86.7077 85.8914 82.7595 84.1722 82.1445 80.2864C81.6266 76.9398 82.9386 73.3846 84.682 70.5614C86.1676 68.1842 88.6031 65.1281 91.6853 65.1956C95.9054 65.2874 97.9783 69.8652 97.4406 73.4952C97.3674 73.7504 97.7576 73.9753 97.9187 73.6966Z" fill="#004E9E"/>
<path d="M99.2687 74.3264C98.5081 72.3639 96.695 70.8723 94.4898 71.0875C92.4722 71.2994 90.7956 72.7858 89.6732 74.4059C87.3114 77.9133 87.6984 83.4146 92.8042 83.6454C93.467 83.6559 93.5838 82.6825 92.9737 82.5165C91.4427 82.0797 90.0053 81.288 89.7024 79.6265C89.4347 78.0969 90.0497 76.5187 90.835 75.2245C91.632 73.9743 92.8279 72.8054 94.2911 72.4597C96.1941 71.9959 97.5409 73.3301 98.8406 74.4884C98.9991 74.7285 99.3392 74.5901 99.2687 74.3264Z" fill="#004E9E"/>
<path d="M92.7393 83.0643C94.7777 83.4591 96.9377 86.6003 98.264 88.0341C100.107 89.9887 101.861 91.967 103.933 93.7189C110.56 99.2876 117.387 104.897 124.771 109.415C131.653 113.643 139.127 117.619 146.683 120.489C153.35 123.033 160.952 123.959 167.604 120.807C168.612 120.348 167.89 118.705 166.846 119.033C158.936 121.533 151.574 120.448 144.153 117.023C136.732 113.599 129.252 109.955 122.42 105.383C115.699 100.875 108.805 95.8965 102.896 90.3704C101.012 88.6152 99.2809 86.7249 97.2771 85.049C96.1123 84.0429 94.3637 82.4398 92.6658 82.613C92.5778 82.6366 92.4842 82.9915 92.7393 83.0643Z" fill="#004E9E"/>
<path d="M97.9266 74.2762C98.7778 75.6962 101.083 76.2078 102.547 76.5685C105.063 77.1647 107.597 77.4736 110.134 77.9701C117.944 79.5003 125.773 82.156 133.27 84.8065C141.344 87.6786 149.097 91.8148 156.51 96.0893C163.366 100.042 168.398 105.286 170.906 112.902C171.323 114.109 173.039 113.649 172.798 112.395C171.524 105.342 166.389 99.8902 160.639 96.0171C153.795 91.4014 145.96 87.6641 138.366 84.4745C130.405 81.1477 121.944 78.9446 113.605 76.8497C111.077 76.2096 108.543 75.9007 105.965 75.6036C104.449 75.3983 102.933 75.193 101.405 74.9438C100.42 74.7844 99.0705 74.6756 98.2754 73.9941C98.0847 73.8098 97.7681 74.0361 97.9266 74.2762Z" fill="#004E9E"/>
<path d="M171.796 113.574C166.393 112.763 165.912 123.303 172.454 122.206C179.624 120.988 176.698 110.751 170.246 111.305C169.375 111.398 168.989 112.773 170.03 112.965C171.925 113.351 173.638 114.116 174.463 115.967C175.185 117.61 174.705 119.341 173.028 120.121C168.401 122.211 167.934 115.176 171.805 114.137C172.069 114.066 172.095 113.635 171.796 113.574Z" fill="#004E9E"/>
<path d="M168.697 106.063C166.994 101.81 162.576 105.21 160.568 107.398C157.605 110.595 154.553 117.161 158.092 120.874C158.62 121.439 159.646 120.693 159.182 120.016C156.787 116.703 158.544 111.992 160.892 108.959C162.395 107.001 166.202 102.729 168.225 106.237C168.351 106.533 168.823 106.359 168.697 106.063Z" fill="#004E9E"/>
<path d="M116.11 77.9115C107.507 74.4747 99.4695 86.194 103.212 93.6675C103.612 94.4552 104.884 93.9252 104.617 93.102C102.041 85.4095 108.187 78.2488 116.02 78.454C116.351 78.4592 116.377 78.0283 116.11 77.9115Z" fill="#004E9E"/>
<path d="M46.7499 15.9583C44.2113 17.3933 40.9944 17.1736 39.0692 19.6685C37.9556 21.1448 37.1242 23.6757 38.6058 25.1618C41.1319 27.7333 46.7725 25.5598 49.5929 24.473C52.4014 23.3423 57.1796 20.4112 54.3392 16.8409C52.0505 13.9231 46.7791 15.7149 44.22 17.2496C43.6513 17.5907 44.0096 18.5777 44.7015 18.3449C46.7654 17.6024 49.9141 16.3333 52.0815 17.2115C56.4722 18.9999 50.2897 22.4963 48.5336 23.1561C46.3055 23.9897 43.1773 25.1591 40.8252 24.4718C37.9188 23.6508 40.5004 20.0849 42.0305 19.109C43.6926 18.0977 45.44 17.5815 46.9994 16.3622C47.1958 16.2153 46.9903 15.7995 46.7499 15.9583Z" fill="#004E9E"/>
<path d="M81.5867 74.6853C80.6301 73.5762 79.3042 72.8488 78.0223 72.1095C76.7286 71.3264 75.4114 70.4553 74.0006 69.9391C72.8449 69.4957 72.3091 71.194 73.2361 71.84C74.5533 72.7111 76.1314 73.3237 77.5775 73.9717C78.8124 74.5352 80.0473 75.0986 81.3964 75.2075C81.6398 75.2363 81.7335 74.8815 81.5867 74.6853Z" fill="#004E9E"/>
<path d="M85.1682 67.7903C84.1589 66.8366 82.877 66.0974 81.683 65.3346C80.5008 64.6157 79.4506 63.8614 78.119 63.4653C77.3095 63.2587 76.5652 64.3534 77.281 64.9149C78.3665 65.801 79.5662 66.2326 80.8451 66.7842C82.168 67.324 83.5143 67.9517 84.9104 68.2363C85.1773 68.3531 85.4147 68.0068 85.1682 67.7903Z" fill="#004E9E"/>
<path d="M73.9561 70.4682C73.0283 68.4092 75.1308 62.5222 77.915 64.648C78.7423 65.2738 79.7914 63.9088 79.0286 63.1715C74.9356 59.3245 69.9548 68.1981 73.5868 70.8499C73.8655 71.0106 74.0588 70.6761 73.9561 70.4682Z" fill="#004E9E"/>
<g clip-path="url(#clip1_1_66341)">
<path d="M43.5004 52.4754C44.0477 51.9584 51.421 58.2658 52.5228 58.9667C53.4149 59.5246 54.163 58.1565 53.3242 57.5843C50.3067 55.4897 47.1292 53.0109 43.6816 51.658C43.5199 51.5875 43.3546 51.7172 43.3102 51.8715C43.2658 52.0258 43.2143 52.1535 43.1698 52.3078C43.1059 52.4958 43.3689 52.6245 43.5004 52.4754Z" fill="#7BAFDE"/>
<path d="M36.9983 64.0427C38.8944 64.1888 39.678 61.2452 40.5345 59.962C42.0841 57.6386 44.4688 55.2335 45.2826 52.5096C45.5118 51.7647 44.5167 51.4623 44.124 52.0232C42.8214 53.8817 41.757 55.9895 40.5025 57.9205C39.8752 58.8861 39.2817 59.871 38.7291 60.9019C38.2422 61.8582 38.0965 63.2355 36.945 63.6299C36.7193 63.7474 36.7708 64.0468 36.9983 64.0427Z" fill="#7BAFDE"/>
<path d="M30.1678 45.0072C33.9459 46.1006 36.5636 49.1566 40.0165 50.8498C40.8731 51.2748 41.6425 49.9864 40.7788 49.5348C38.8631 48.5682 37.1038 47.3318 35.2929 46.2232C33.793 45.3159 32.0586 44.386 30.2477 44.5587C30.0007 44.5965 29.919 44.9316 30.1678 45.0072Z" fill="#7BAFDE"/>
<path d="M53.3428 37.7911C52.8879 39.5076 51.7862 40.9421 50.6898 42.2897C49.7444 43.4545 48.1949 44.9237 47.9781 46.4624C47.8751 47.1449 48.6961 47.8642 49.2612 47.2001C49.7872 46.6034 50.1301 45.8566 50.5477 45.1751C51.1092 44.2841 51.7721 43.4514 52.394 42.5728C53.3891 41.1669 54.2758 39.6762 54.2616 37.9147C54.2598 37.3742 53.4619 37.2751 53.3428 37.7911Z" fill="#7BAFDE"/>
<path d="M37.2299 62.5572C37.9389 62.1107 38.1877 61.3321 38.5644 60.6047C39.2592 59.2509 40.0286 57.9625 40.8585 56.6864C42.2623 54.459 44.1175 52.4238 45.4342 50.1913C45.8909 49.4424 44.9046 48.8529 44.2897 49.331C42.4718 50.7583 41.244 53.5364 40.0836 55.4991C38.7864 57.6979 37.8518 59.9702 36.9384 62.3222C36.8407 62.4908 37.077 62.6267 37.2299 62.5572Z" fill="#005BAA"/>
<path d="M33.3278 59.7047C34.554 58.5216 35.4869 56.99 36.53 55.6567C37.534 54.3908 38.5717 53.1443 39.6095 51.8978C40.1941 51.2 40.7983 50.4684 41.4167 49.79C41.7064 49.4845 41.9694 49.1862 42.2857 48.8735C42.5629 48.6283 43.3537 48.2738 42.5025 48.6161C42.8152 48.5037 43.1511 48.1573 42.9911 47.7731C42.9076 47.5678 42.7974 47.3695 42.5753 47.2868C42.2181 47.1264 41.9178 47.1785 41.6068 47.4043C40.4037 48.3534 39.4975 49.8778 38.5663 51.0957C36.5139 53.7818 34.6019 56.4587 33.0293 59.4431C32.8924 59.6791 33.143 59.8682 33.3278 59.7047Z" fill="#005BAA"/>
<path d="M32.6792 60.0762C32.8907 60.3326 33.2674 60.4593 33.5517 60.6678C34.012 60.9998 34.4403 61.4259 34.8881 61.8183C35.519 62.3608 36.4591 63.4184 37.3814 63.3418C37.6888 63.3162 38.0407 63.1364 38.0958 62.8084C38.1384 62.5407 38.1278 62.2873 37.9038 62.0912C37.7546 61.9604 37.5928 61.8899 37.392 61.8868C36.8163 61.8704 37.5004 61.9716 37.1912 61.8837C36.6066 61.7274 36.0308 61.2839 35.5438 60.959C35.064 60.6607 33.2531 59.1249 32.6685 59.8228C32.6152 59.8371 32.5974 59.9842 32.6792 60.0762Z" fill="#005BAA"/>
<path d="M29.498 42.1088C32.0659 43.2706 34.4775 44.7021 36.8765 46.1939C38.4511 47.1666 40.1873 48.6369 42.0586 48.9037C43.1248 49.0447 43.1514 47.3292 42.0656 47.2219C41.154 47.1248 40.2334 46.4606 39.4569 46.0141C38.4848 45.4777 37.4932 44.975 36.5015 44.4722C34.3281 43.29 32.1689 42.161 29.6988 41.6848C29.4162 41.5897 29.2083 41.9872 29.498 42.1088Z" fill="#005BAA"/>
<path d="M29.8843 42.1753C30.4672 41.3641 30.8404 40.4098 31.457 39.618C31.7715 39.1919 32.1678 38.8578 32.5569 38.4972C32.8466 38.1917 33.0669 37.7339 32.7204 37.3998C32.564 37.2425 32.3081 37.1403 32.0753 37.2312C31.1637 37.5612 30.5862 38.7127 30.1508 39.5413C29.7741 40.2688 29.0953 41.362 29.4632 42.2029C29.5129 42.3889 29.7795 42.3173 29.8843 42.1753Z" fill="#005BAA"/>
<path d="M32.004 38.4474C34.5293 39.4498 36.7205 41.3391 39.0769 42.6715C40.1912 43.3121 41.3054 43.9528 42.2686 44.7763C42.784 45.2075 43.3349 45.7715 44.0244 45.7858C44.9751 45.8155 45.2452 44.2625 44.2589 44.1C43.6618 44.0039 43.0683 43.2805 42.5742 42.929C41.2076 41.9859 39.5976 41.3075 38.1066 40.5401C36.3863 39.6634 34.0583 37.5831 31.9969 37.9938C31.7499 38.0316 31.8086 38.3575 32.004 38.4474Z" fill="#005BAA"/>
<path d="M57.0651 29.076C54.4262 30.6381 52.3009 33.3722 50.3089 35.6435C49.2836 36.8297 48.2582 38.0159 47.24 39.2287C45.8735 40.8481 44.212 42.4328 43.2649 44.3383C42.8171 45.2272 44.1073 45.9915 44.6155 45.1148C46.3071 42.0415 48.994 39.2706 51.2401 36.561C53.2499 34.1426 55.544 31.9327 57.4383 29.4029C57.5822 29.1935 57.2837 28.9319 57.0651 29.076Z" fill="#005BAA"/>
<path d="M57.5204 29.3813C57.4351 30.7708 56.4453 32.0899 55.7008 33.2577C54.8318 34.6012 53.8545 35.86 52.8771 37.1187C51.5124 38.8516 50.1743 40.5772 48.8771 42.3489C48.0117 43.4922 46.1085 45.4549 46.2401 47.0141C46.3432 48.0399 47.8431 48.0931 47.8732 47.0315C47.907 46.1967 48.6035 45.3834 49.0478 44.6948C49.8776 43.4187 50.7146 42.1691 51.612 40.9318C52.6462 39.4585 53.7142 38.0046 54.7484 36.5313C55.5338 35.4095 59.3544 30.683 57.8598 29.2617C57.7105 29.131 57.5381 29.2341 57.5204 29.3813Z" fill="#005BAA"/>
<path d="M46.6576 47.8406C48.0616 49.0299 49.8351 49.8923 51.383 50.8722C53.3431 52.1116 55.6694 54.0785 57.9778 54.4842C58.8504 54.6487 59.5398 53.3818 58.6228 52.9445C56.0336 51.703 53.5297 50.3532 51.0115 48.9503C50.242 48.5304 47.6776 46.7412 46.6985 47.4595C46.5865 47.5749 46.5155 47.7364 46.6576 47.8406Z" fill="#005BAA"/>
<path d="M44.8502 50.2619C45.6713 51.4083 44.0043 50.0902 45.4331 51.159C45.9005 51.5176 46.3875 51.8426 46.8548 52.2012C47.9176 52.9696 48.9216 53.8391 49.9648 54.6412C51.5571 55.8939 53.2418 57.4919 55.154 58.2317C56.2113 58.6598 56.7124 56.9025 55.6355 56.508C51.6513 55.0714 48.8451 51.0978 44.685 49.9646C44.5304 49.9206 44.3651 50.0504 44.374 50.1904C44.39 50.3569 44.4309 50.4029 44.573 50.5071C44.7223 50.6379 44.9462 50.407 44.8502 50.2619Z" fill="#005BAA"/>
<path d="M55.8792 57.7252C56.0232 57.5157 56.0658 57.248 56.176 57.0192C56.3643 56.6554 56.6131 56.304 56.869 55.9791C57.4074 55.3221 57.9743 54.7714 58.3297 53.9642C58.614 53.3185 57.8534 52.6114 57.2865 53.1621C56.6077 53.8283 56.0639 54.5721 55.5682 55.3885C55.2359 55.9616 54.5464 57.2286 55.2111 57.7906C55.435 57.9867 55.7086 57.9418 55.8792 57.7252Z" fill="#005BAA"/>
</g>
</g>
<defs>
<clipPath id="clip0_1_66341">
<rect width="180" height="130" fill="white"/>
</clipPath>
<clipPath id="clip1_1_66341">
<rect width="41.315" height="41.3601" fill="white" transform="matrix(0.965844 -0.259124 0.258514 0.966007 17.1953 34.9893)"/>
</clipPath>
</defs>
</svg>
