<svg width="58" height="55" viewBox="0 0 58 55" fill="none" xmlns="http://www.w3.org/2000/svg">
<path opacity="0.1" d="M27.9424 4.73208L24.633 2L20.729 4.93031L6.07812 16.505V43.2915H43.1879V17.9185L27.9424 4.73208Z" fill="url(#paint0_linear_1_33773)"/>
<path d="M36.6839 32.2253H29.9531V38.9564H36.6839V32.2253Z" stroke="#040921" stroke-width="2.38397"/>
<path d="M19.6761 32.2253H12.9453V38.9564H19.6761V32.2253Z" stroke="#040921" stroke-width="2.38397"/>
<path d="M36.7152 19.2802H29.9844V26.0113H36.7152V19.2802Z" stroke="#040921" stroke-width="2.38397"/>
<path d="M19.6761 19.2802H12.9453V26.0113H19.6761V19.2802Z" stroke="#040921" stroke-width="2.38397"/>
<path d="M1.04688 19.7197L24.6348 2L46.861 20.3575" stroke="#040921" stroke-width="2.38397"/>
<path fill-rule="evenodd" clip-rule="evenodd" d="M45.011 33.5439C43.9682 31.3892 44.2268 28.7175 45.8642 26.8042C47.269 25.158 49.3373 24.4341 51.3109 24.6754C51.5005 24.7013 51.5867 24.9253 51.4574 25.0632L48.5186 28.3038C48.3893 28.4417 48.398 28.6572 48.5445 28.7864L52.776 32.6389C52.9311 32.7768 53.1638 32.7682 53.3017 32.6131L56.2405 29.3811C56.3611 29.2432 56.5852 29.3122 56.6197 29.4845C57.0334 31.3806 56.5594 33.4405 55.1546 34.9918C53.4137 36.9051 50.7421 37.4739 48.4583 36.6466L35.8758 52.2203C34.6003 53.7975 32.2734 53.9699 30.7738 52.6081C29.2743 51.2464 29.2398 48.9021 30.6877 47.4887L45.011 33.5439Z" stroke="#040921" stroke-width="2.38397"/>
<path opacity="0.1" d="M33.0643 52.2462C34.1829 52.2462 35.0896 51.3394 35.0896 50.2208C35.0896 49.1022 34.1829 48.1954 33.0643 48.1954C31.9458 48.1954 31.0391 49.1022 31.0391 50.2208C31.0391 51.3394 31.9458 52.2462 33.0643 52.2462Z" fill="url(#paint1_linear_1_33773)"/>
<defs>
<linearGradient id="paint0_linear_1_33773" x1="32.4261" y1="-9.51397" x2="-10.6784" y2="7.63794" gradientUnits="userSpaceOnUse">
<stop offset="0.0001" stop-color="#9D50FF"/>
<stop offset="1" stop-color="#583CF0"/>
</linearGradient>
<linearGradient id="paint1_linear_1_33773" x1="33.9149" y1="47.0659" x2="29.3583" y2="49.0833" gradientUnits="userSpaceOnUse">
<stop offset="0.0001" stop-color="#9D50FF"/>
<stop offset="1" stop-color="#583CF0"/>
</linearGradient>
</defs>
</svg>
